<?xml version="1.0" encoding="UTF-8" standalone="no"?>
<!-- Created with Inkscape (http://www.inkscape.org/) -->

<svg
   xmlns:dc="http://purl.org/dc/elements/1.1/"
   xmlns:cc="http://creativecommons.org/ns#"
   xmlns:rdf="http://www.w3.org/1999/02/22-rdf-syntax-ns#"
   xmlns:svg="http://www.w3.org/2000/svg"
   xmlns="http://www.w3.org/2000/svg"
   xmlns:sodipodi="http://sodipodi.sourceforge.net/DTD/sodipodi-0.dtd"
   xmlns:inkscape="http://www.inkscape.org/namespaces/inkscape"
   version="1.1"
   width="160"
   height="160"
   id="svg2"
   xml:space="preserve"
   inkscape:version="0.48.5 r10040"
   sodipodi:docname="icon_tag_5.svg"><sodipodi:namedview
     pagecolor="#ffffff"
     bordercolor="#666666"
     borderopacity="1"
     objecttolerance="10"
     gridtolerance="10"
     guidetolerance="10"
     inkscape:pageopacity="0"
     inkscape:pageshadow="2"
     inkscape:window-width="1279"
     inkscape:window-height="949"
     id="namedview9"
     showgrid="false"
     inkscape:zoom="3.9889599"
     inkscape:cx="37.795467"
     inkscape:cy="77.966102"
     inkscape:window-x="181"
     inkscape:window-y="58"
     inkscape:window-maximized="0"
     inkscape:current-layer="svg2" /><metadata
     id="metadata8"><rdf:RDF><cc:Work
         rdf:about=""><dc:format>image/svg+xml</dc:format><dc:type
           rdf:resource="http://purl.org/dc/dcmitype/StillImage" /><dc:title /></cc:Work></rdf:RDF></metadata><defs
     id="defs6"><clipPath
       id="clipPath16"><path
         d="M 0,128 128,128 128,0 0,0 0,128 z"
         id="path18" /></clipPath></defs><rect
     style="fill:#ffffff;stroke:#000000;stroke-width:2.82361101999999997;stroke-linejoin:round;stroke-miterlimit:4;stroke-opacity:1;stroke-dasharray:none;fill-opacity:1"
     id="rect4079"
     width="153.09251"
     height="153.84459"
     x="3.379636"
     y="2.7016699" /><path
     style="fill:#000000;fill-opacity:1;fill-rule:nonzero;stroke:none"
     d="m 79.254432,37.076319 c 1.51748,0 3.026913,1.170682 4.178255,3.514535 l 5.632906,11.476667 c 2.302682,4.687705 8.408505,9.140279 13.556117,9.890461 l 12.62761,1.835022 c 5.14761,0.751427 6.294,4.375441 2.56885,8.024337 l -9.13026,8.926296 c -3.72514,3.65014 -6.04763,10.833476 -5.16865,15.986468 l 2.1665,12.627445 c 0.87898,5.15299 -2.17269,7.37741 -6.778056,4.94523 l -11.296763,-5.9405 c -4.605365,-2.43218 -12.139841,-2.43218 -16.743968,0 l -11.265813,5.9405 c -4.604127,2.43218 -7.657038,0.20776 -6.778057,-4.94523 l 2.166502,-12.627445 c 0.878981,-5.152992 -1.44351,-12.337572 -5.168656,-15.986468 l -9.13026,-8.957399 c -3.725146,-3.647651 -2.579995,-7.241807 2.568853,-7.993234 l 12.627614,-1.835022 c 5.14761,-0.751426 11.223721,-5.202756 13.525165,-9.890461 l 5.663856,-11.476667 c 1.151342,-2.343853 2.660775,-3.514535 4.178255,-3.514535 z"
     id="path22"
     inkscape:connector-curvature="0" /></svg>