<?xml version="1.0" standalone="no"?>
<!DOCTYPE svg PUBLIC "-//W3C//DTD SVG 20010904//EN"
 "http://www.w3.org/TR/2001/REC-SVG-20010904/DTD/svg10.dtd">
<svg version="1.0" xmlns="http://www.w3.org/2000/svg"
 width="128.000000pt" height="128.000000pt" viewBox="0 0 128.000000 128.000000"
 preserveAspectRatio="xMidYMid meet">
<metadata>
Created by potrace 1.11, written by Peter Selinger 2001-2013
</metadata>
<g transform="translate(0.000000,128.000000) scale(0.100000,-0.100000)"
fill="#000000" stroke="none">
<path d="M122 1176 c-6 -14 -7 -28 -3 -31 5 -2 46 -14 91 -24 45 -11 84 -22
86 -23 7 -8 44 -190 44 -218 0 -25 -6 -32 -36 -45 -60 -25 -96 -56 -116 -102
-10 -23 -23 -43 -27 -43 -8 0 -34 -50 -29 -55 2 -1 16 -6 32 -12 29 -9 30 -12
53 -144 13 -73 31 -165 41 -204 l17 -70 94 -3 c52 -1 107 2 122 7 24 8 34 5
71 -24 72 -56 154 -78 288 -79 126 0 186 17 242 71 15 14 37 31 50 37 16 8 23
21 24 42 0 16 4 36 8 43 12 19 -12 67 -40 79 -13 7 -24 17 -24 23 0 29 -54
129 -81 148 -28 21 -29 22 -14 52 9 16 15 39 13 51 -2 14 4 23 22 29 24 9 24
8 6 -6 -11 -8 -15 -15 -9 -15 6 0 26 13 46 29 36 28 36 29 17 46 -20 18 -20
18 1 41 l21 22 -31 7 c-17 3 -35 4 -40 1 -5 -4 -25 2 -45 13 -34 20 -34 20
-48 0 -13 -20 -14 -20 -47 10 -35 32 -61 40 -61 20 0 -8 -4 -8 -13 -1 -10 9
-22 4 -50 -19 l-37 -30 0 35 c0 25 -5 36 -15 36 -8 0 -29 9 -47 19 -38 24 -51
19 -36 -14 14 -32 5 -41 -27 -27 -38 18 -58 15 -51 -5 6 -17 5 -17 -8 0 -31
40 -25 12 14 -58 31 -57 38 -75 26 -75 -9 0 -23 12 -33 28 -9 15 -32 44 -52
65 -30 32 -32 37 -16 38 14 0 10 4 -9 10 -36 10 -44 5 -25 -17 13 -16 12 -16
-18 -1 -18 10 -39 17 -47 17 -17 0 -18 3 -46 135 -31 149 -28 146 -123 178
-45 16 -89 31 -98 34 -9 3 -19 -5 -27 -21z m309 -351 c47 -17 83 -44 112 -85
34 -49 31 -50 -168 -50 -102 0 -185 2 -185 5 0 19 35 68 65 91 32 24 95 53
121 54 6 0 30 -7 55 -15z m312 -140 c80 -8 250 -37 265 -44 10 -6 9 -12 -5
-30 l-19 -23 -61 21 c-67 23 -183 28 -227 11 -14 -5 -46 -28 -71 -51 -28 -26
-45 -36 -45 -27 0 9 -3 29 -6 46 -6 27 -3 32 20 38 25 6 25 7 11 35 -8 15 -15
31 -15 34 0 3 23 3 50 0 28 -3 74 -7 103 -10z m197 -101 c71 -32 97 -57 126
-119 45 -96 61 -90 -241 -93 l-265 -4 0 30 c0 90 78 191 163 213 52 13 157 0
217 -27z m-641 -59 c39 -20 109 -48 156 -63 80 -25 85 -28 85 -54 0 -44 -26
-51 -108 -28 -97 27 -182 69 -191 94 -11 29 -21 86 -16 86 2 0 36 -16 74 -35z
m839 -167 c11 -11 18 -58 8 -58 -1 0 -18 5 -36 11 -25 9 -34 9 -40 -1 -7 -11
-13 -10 -34 3 -37 25 -64 21 -103 -14 -47 -41 -88 -38 -88 6 0 24 -5 31 -23
33 -13 2 -33 -3 -45 -11 -12 -8 -41 -18 -65 -22 -34 -5 -43 -4 -48 9 -7 18
-39 22 -49 6 -8 -14 -46 -12 -70 3 -50 31 -25 34 268 36 160 1 293 4 296 7 7
7 16 5 29 -8z m-642 -113 c3 -21 -6 -24 -87 -29 -110 -6 -115 -4 -133 70 -9
35 -16 65 -16 68 0 2 53 -17 117 -44 77 -32 117 -54 119 -65z m90 41 c107 -51
344 -60 440 -15 51 23 84 26 112 9 14 -8 11 -9 -14 -10 -77 0 -240 -78 -278
-132 l-16 -22 -27 26 c-33 32 -174 99 -257 123 -55 16 -58 19 -41 31 24 18 23
18 81 -10z"/>
</g>
</svg>
