<?xml version="1.0" standalone="no"?>
<!DOCTYPE svg PUBLIC "-//W3C//DTD SVG 20010904//EN"
 "http://www.w3.org/TR/2001/REC-SVG-20010904/DTD/svg10.dtd">
<svg version="1.0" xmlns="http://www.w3.org/2000/svg"
 width="128.000000pt" height="128.000000pt" viewBox="0 0 128.000000 128.000000"
 preserveAspectRatio="xMidYMid meet">
<metadata>
Created by potrace 1.11, written by Peter Selinger 2001-2013
</metadata>
<g transform="translate(0.000000,128.000000) scale(0.100000,-0.100000)"
fill="#000000" stroke="none">
<path d="M614 1225 c-27 -13 -77 -47 -111 -75 l-61 -50 -145 70 c-166 81 -218
90 -262 45 -21 -20 -25 -34 -25 -85 0 -72 37 -191 81 -263 l30 -49 -30 -46
c-95 -149 -93 -282 5 -391 25 -28 57 -54 70 -57 20 -5 23 -10 16 -33 -4 -14
-7 -71 -7 -126 0 -81 4 -106 18 -129 15 -23 23 -27 45 -21 37 9 89 50 107 85
23 44 19 111 -8 151 -20 30 -39 46 -103 86 -18 10 -15 16 36 67 47 48 65 59
125 76 76 22 135 26 135 10 0 -5 -9 -10 -21 -10 -68 0 -254 -69 -235 -87 2 -3
17 5 33 16 15 11 75 32 134 45 l105 25 65 -21 c51 -18 89 -22 189 -22 115 -1
130 1 175 24 29 15 57 39 68 58 19 32 19 35 2 78 -20 53 -108 151 -211 235
l-72 58 14 58 c8 32 17 92 20 134 8 87 -7 129 -56 154 -41 21 -68 19 -126 -10z
m-495 -54 c6 -32 23 -81 36 -107 14 -27 25 -50 25 -51 0 -1 -22 -5 -50 -9 -27
-4 -50 -11 -50 -17 0 -5 13 -7 30 -3 34 6 37 0 14 -32 -8 -12 -14 -27 -12 -33
2 -5 16 11 32 36 16 25 33 48 36 50 4 2 21 -15 38 -38 66 -91 236 -242 325
-288 l38 -20 -51 -46 c-56 -51 -67 -77 -19 -42 l32 22 -5 -31 c-8 -54 10 -35
23 23 7 31 15 58 19 60 3 2 53 -13 110 -33 99 -34 112 -37 227 -37 133 0 136
-1 109 -54 -18 -33 -45 -46 -128 -61 -118 -22 -290 10 -429 81 -80 40 -208
139 -263 203 -96 112 -169 266 -183 386 -5 43 -3 51 20 74 44 43 63 35 76 -33z
m620 43 c40 -29 51 -70 40 -159 -11 -92 -49 -252 -73 -309 -16 -38 -17 -39
-61 -34 -85 10 -243 127 -288 215 -16 30 -16 31 37 94 93 114 224 209 286 209
19 0 46 -7 59 -16z m-526 -23 c48 -17 141 -64 196 -100 11 -7 4 -22 -37 -74
l-52 -64 38 -59 c21 -33 53 -72 71 -87 45 -37 158 -102 204 -117 59 -19 67 -8
123 168 5 18 107 -63 186 -146 58 -63 87 -107 76 -118 -10 -9 -122 -6 -189 6
-117 21 -266 83 -369 153 -67 46 -166 144 -216 213 -45 62 -98 167 -110 217
-8 33 2 34 79 8z m15 -494 c56 -58 144 -124 228 -173 16 -9 11 -13 -36 -24
-67 -15 -124 -47 -169 -94 -38 -39 -53 -40 -104 -4 -33 23 -87 114 -87 146 0
12 -4 22 -9 22 -11 0 4 -62 24 -101 15 -27 93 -103 115 -111 14 -4 6 -28 -10
-28 -20 0 -109 94 -124 130 -24 61 -32 146 -14 153 9 3 18 23 22 44 3 21 20
62 37 92 30 52 32 54 45 35 8 -10 45 -50 82 -87z m41 -397 c52 -26 81 -75 81
-135 0 -43 -4 -52 -44 -91 -48 -49 -88 -58 -106 -24 -6 11 -13 50 -15 88 -3
45 -2 57 4 37 6 -24 8 -16 9 37 0 38 4 72 7 78 21 33 99 -37 113 -102 l10 -43
1 35 c1 52 -21 81 -93 123 -42 23 -14 22 33 -3z"/>
<path d="M599 1179 c-61 -39 -208 -179 -228 -217 -8 -14 -1 -29 27 -67 33 -44
133 -125 153 -125 4 0 0 14 -8 31 -50 100 69 359 165 359 15 0 33 -5 40 -12
16 -16 15 -3 -3 32 -9 17 -20 30 -26 30 -8 0 -8 -4 0 -14 9 -11 5 -15 -18 -19
-47 -10 -98 -63 -138 -143 -30 -62 -37 -88 -41 -154 l-5 -79 -43 31 c-40 29
-94 96 -94 117 0 5 31 43 70 84 56 60 124 114 219 174 2 2 2 5 -1 8 -2 3 -34
-13 -69 -36z"/>
</g>
</svg>
