<?xml version="1.0" standalone="no"?>
<!DOCTYPE svg PUBLIC "-//W3C//DTD SVG 20010904//EN"
 "http://www.w3.org/TR/2001/REC-SVG-20010904/DTD/svg10.dtd">
<svg version="1.0" xmlns="http://www.w3.org/2000/svg"
 width="128.000000pt" height="128.000000pt" viewBox="0 0 128.000000 128.000000"
 preserveAspectRatio="xMidYMid meet">
<metadata>
Created by potrace 1.11, written by Peter Selinger 2001-2013
</metadata>
<g transform="translate(0.000000,128.000000) scale(0.100000,-0.100000)"
fill="#000000" stroke="none">
<path d="M841 1263 c-35 -11 -55 -23 -59 -35 -6 -23 -7 -23 -42 3 -32 24 -130
39 -130 20 0 -6 15 -28 33 -47 28 -31 41 -37 85 -42 57 -5 60 -11 46 -80 -6
-29 -39 -51 -46 -30 -2 5 -15 0 -30 -12 -25 -19 -27 -19 -37 -3 -10 17 -12 17
-26 -1 -8 -11 -15 -26 -15 -33 0 -7 -4 -13 -10 -13 -5 0 -10 19 -10 41 0 32 6
47 26 66 14 13 24 31 22 41 -4 22 -79 58 -138 67 l-45 7 33 -34 c17 -19 32
-37 32 -40 0 -3 -17 -4 -38 -1 -29 4 -51 -1 -88 -20 l-49 -25 117 -7 117 -7
-22 -32 c-12 -17 -23 -33 -24 -35 -1 -2 -17 6 -35 17 -44 26 -82 34 -125 26
-31 -6 -33 -8 -17 -17 16 -9 15 -12 -16 -23 -19 -6 -34 -16 -33 -22 2 -6 -6
-14 -17 -17 -34 -11 -22 -24 15 -18 41 7 44 -2 13 -34 l-22 -23 58 20 c62 21
76 19 76 -8 1 -13 7 -10 25 12 20 26 26 28 40 16 12 -10 19 -10 27 -2 8 8 15
7 24 -6 20 -26 17 -32 -15 -26 -17 4 -41 -1 -62 -12 -30 -15 -31 -18 -15 -24
29 -10 12 -16 -98 -35 -98 -18 -99 -18 -78 -36 27 -21 28 -29 5 -30 -11 0 -13
-3 -6 -6 27 -10 11 -20 -42 -26 -104 -11 -175 -71 -160 -137 6 -27 54 -79 87
-94 10 -5 10 -7 1 -12 -7 -3 -13 -14 -13 -25 0 -13 7 -19 24 -19 18 0 24 -5
24 -25 0 -20 -7 -27 -37 -35 -20 -5 -45 -10 -56 -11 -13 0 -8 -5 15 -13 l35
-13 -77 -23 c-43 -13 -78 -26 -78 -29 0 -3 28 -5 62 -3 44 2 59 0 48 -7 -27
-18 -4 -21 44 -5 44 15 48 15 66 -1 16 -14 22 -15 35 -5 8 7 21 10 29 7 8 -3
22 3 32 14 16 17 26 19 69 14 27 -4 52 -9 54 -10 1 -2 -4 -14 -13 -27 -22 -30
-20 -48 4 -48 11 0 20 -7 20 -15 0 -17 25 -20 35 -5 3 6 18 -3 32 -20 27 -33
50 -39 59 -15 4 10 14 13 30 9 20 -5 24 -2 24 17 l0 22 24 -22 c16 -15 28 -46
40 -98 9 -42 14 -78 11 -81 -3 -3 -49 -9 -103 -12 -68 -5 -18 -7 168 -8 146 0
261 1 255 3 -5 2 -45 6 -87 10 -77 7 -78 7 -78 34 0 15 -6 49 -14 74 l-14 47
31 15 c36 18 63 50 73 89 5 20 2 26 -10 26 -29 0 -92 -38 -102 -61 -10 -21
-11 -20 -37 24 -33 55 -33 57 -4 57 12 0 46 7 75 14 46 13 54 13 59 0 3 -8 17
-14 32 -14 15 0 33 -6 40 -13 11 -10 15 -9 19 2 3 10 9 8 23 -10 l19 -24 0 24
c0 20 4 23 25 19 14 -3 28 -1 31 3 3 5 14 9 25 9 27 0 24 17 -7 33 l-27 14 65
30 c100 47 135 116 88 175 -10 14 -16 28 -12 32 3 4 0 11 -8 16 -10 7 -11 10
-2 10 22 0 13 20 -10 21 -21 1 -20 2 7 14 19 9 24 14 13 15 -19 0 -26 30 -8
30 6 0 10 5 10 10 0 6 -12 10 -26 10 -14 0 -23 4 -19 10 4 6 -6 10 -22 11 -15
0 -22 3 -15 6 19 8 14 23 -8 23 -19 0 -20 1 -5 24 38 58 -3 112 -93 123 -34 4
-52 10 -52 19 0 10 -9 12 -29 8 -21 -4 -30 -2 -35 11 -3 9 -4 21 0 26 3 5 -6
9 -20 9 -13 0 -26 5 -28 10 -2 7 -18 6 -45 -4 -46 -16 -53 -14 -46 15 4 15 12
19 26 15 35 -9 75 5 114 41 l38 34 -52 -5 c-29 -3 -65 -12 -81 -20 -29 -15
-30 -15 -36 12 -4 15 -9 34 -12 43 -3 13 4 18 30 23 24 5 45 19 66 44 52 63
39 73 -59 45z m-171 -398 c97 -104 118 -187 71 -275 -51 -96 -43 -178 32 -321
49 -94 62 -132 71 -202 l6 -48 -52 3 -53 3 -20 82 c-12 44 -27 89 -35 98 -16
20 -114 70 -185 96 -28 10 -41 18 -29 19 39 0 153 -40 182 -65 39 -33 49 -32
26 3 -31 47 -44 77 -53 129 -12 61 -1 112 33 162 49 70 24 172 -56 235 -39 31
-27 34 20 6 22 -14 42 -39 59 -76 25 -55 26 -84 7 -143 -4 -16 -4 -22 3 -18
14 9 36 90 36 136 0 57 -37 125 -104 191 -52 51 -59 62 -59 96 l0 39 19 -42
c11 -23 47 -72 81 -108z m444 34 c87 -68 -76 -171 -219 -139 -86 19 -123 79
-70 114 13 9 28 16 32 16 4 0 1 -4 -7 -10 -27 -17 -2 -22 30 -5 26 14 34 14
47 3 13 -10 17 -10 20 0 3 7 23 12 51 12 42 0 44 1 26 15 -18 13 -16 14 22 15
27 0 50 -7 68 -21z m-159 -158 c39 0 88 6 110 14 46 17 67 19 45 5 -12 -8 -9
-10 13 -10 15 0 27 -4 27 -10 0 -5 9 -10 19 -10 19 0 35 -23 24 -34 -4 -3 -13
-6 -22 -6 -14 0 -14 2 -1 11 11 7 4 9 -27 7 -23 -1 -45 1 -49 5 -11 11 -63 8
-87 -5 -12 -6 -58 -12 -102 -12 -73 -1 -80 1 -81 19 0 11 -4 27 -8 37 -7 15
-4 15 31 3 21 -8 70 -14 108 -14z m-662 -27 c-18 -8 -33 -15 -33 -17 0 -1 30
0 66 1 63 4 66 3 59 -17 -8 -25 -2 -26 30 -5 23 15 27 14 71 -10 56 -31 58
-31 44 -7 -16 31 -13 34 32 28 92 -12 127 -82 68 -137 -118 -111 -459 -83
-510 41 -30 70 54 136 175 137 l30 0 -32 -14z m891 -98 c97 -41 86 -140 -21
-193 -51 -25 -69 -28 -153 -28 -118 0 -180 24 -206 79 -16 33 -16 36 0 61 16
25 52 45 80 45 9 0 12 -9 8 -27 l-5 -27 32 27 c36 30 39 31 75 17 28 -10 34
-2 14 18 -9 9 1 12 48 13 58 1 59 1 29 14 l-30 14 48 1 c26 0 63 -6 81 -14z"/>
</g>
</svg>
