<?xml version="1.0" standalone="no"?>
<!DOCTYPE svg PUBLIC "-//W3C//DTD SVG 20010904//EN"
 "http://www.w3.org/TR/2001/REC-SVG-20010904/DTD/svg10.dtd">
<svg version="1.0" xmlns="http://www.w3.org/2000/svg"
 width="128.000000pt" height="128.000000pt" viewBox="0 0 128.000000 128.000000"
 preserveAspectRatio="xMidYMid meet">
<metadata>
Created by potrace 1.11, written by Peter Selinger 2001-2013
</metadata>
<g transform="translate(0.000000,128.000000) scale(0.100000,-0.100000)"
fill="#000000" stroke="none">
<path d="M455 1073 c-16 -8 -37 -21 -45 -28 -8 -7 -33 -18 -55 -25 -22 -7 -44
-16 -50 -20 -5 -4 -21 -11 -35 -15 -69 -21 -197 -132 -236 -204 -33 -62 -32
-185 2 -235 18 -27 32 -36 52 -36 33 0 214 89 252 124 20 19 78 46 97 46 2 0
2 -9 -2 -19 -14 -44 42 -181 108 -263 38 -48 72 -50 139 -7 l49 32 56 -56 c63
-66 213 -146 284 -154 43 -4 44 -4 63 37 19 39 96 121 126 133 12 5 11 9 -4
21 -14 11 -42 16 -93 16 -90 0 -81 -1 -123 20 -28 15 -137 96 -173 129 -4 4 0
27 8 52 24 68 22 174 -5 232 -27 57 -95 120 -168 153 -29 13 -55 24 -58 24 -2
0 -17 8 -31 17 -31 20 -91 43 -113 42 -8 0 -28 -7 -45 -16z m119 -27 c37 -15
68 -54 108 -136 26 -53 39 -50 18 4 -14 39 4 33 53 -17 72 -74 80 -153 27
-258 -15 -28 -33 -42 -88 -67 -76 -35 -94 -51 -115 -101 l-14 -33 -25 33 c-90
119 -95 223 -21 360 35 62 36 69 27 115 -13 69 -38 72 -58 5 -19 -65 -32 -89
-69 -128 -37 -39 -27 -43 20 -7 38 29 38 29 18 -19 -8 -20 -15 -47 -15 -60 0
-20 -9 -28 -47 -42 -27 -10 -61 -30 -78 -45 -16 -15 -60 -37 -97 -49 -81 -25
-88 -26 -88 -5 0 9 -14 39 -31 67 -37 60 -35 90 10 163 39 65 146 140 240 169
l24 7 -21 -33 c-26 -42 -44 -89 -34 -89 4 0 17 17 29 38 68 119 145 162 227
128z m292 -497 c19 -11 58 -41 86 -65 71 -60 105 -74 185 -74 37 0 78 -3 91
-6 24 -7 30 -24 9 -24 -17 0 -102 -84 -125 -122 -25 -42 -49 -39 -182 26 -44
21 -88 55 -140 107 -59 59 -85 78 -123 88 -58 17 -52 28 42 76 72 36 91 35
157 -6z"/>
</g>
</svg>
