<?xml version="1.0" standalone="no"?>
<!DOCTYPE svg PUBLIC "-//W3C//DTD SVG 20010904//EN"
 "http://www.w3.org/TR/2001/REC-SVG-20010904/DTD/svg10.dtd">
<svg version="1.0" xmlns="http://www.w3.org/2000/svg"
 width="128.000000pt" height="128.000000pt" viewBox="0 0 128.000000 128.000000"
 preserveAspectRatio="xMidYMid meet">
<metadata>
Created by potrace 1.11, written by Peter Selinger 2001-2013
</metadata>
<g transform="translate(0.000000,128.000000) scale(0.100000,-0.100000)"
fill="#000000" stroke="none">
<path d="M465 1218 c-4 -10 1 -29 14 -47 30 -42 26 -65 -19 -125 -53 -70 -53
-120 -2 -178 11 -13 18 -15 28 -7 10 8 9 17 -7 42 -27 46 -24 72 16 124 57 75
58 117 6 176 -25 27 -31 30 -36 15z"/>
<path d="M560 1204 c0 -9 9 -27 20 -41 29 -37 25 -62 -20 -122 -30 -39 -40
-62 -40 -90 0 -41 32 -101 55 -101 19 0 19 29 0 54 -25 33 -17 68 25 125 48
63 51 100 15 154 -26 38 -55 49 -55 21z"/>
<path d="M670 1204 c0 -9 9 -27 20 -41 27 -35 25 -62 -8 -103 -41 -49 -52 -74
-52 -112 0 -39 33 -98 55 -98 19 0 19 29 0 54 -25 32 -18 70 22 122 46 60 51
111 15 162 -25 34 -52 43 -52 16z"/>
<path d="M133 814 c-9 -25 4 -181 22 -260 8 -38 31 -100 49 -137 l34 -66 -92
-3 c-117 -4 -122 -16 -40 -99 98 -99 174 -119 462 -119 272 0 351 22 450 123
78 79 72 91 -46 95 l-92 3 27 47 c14 26 28 49 30 51 1 2 17 -10 35 -27 103
-101 269 3 285 178 7 73 -21 140 -69 170 -47 28 -115 27 -161 -4 l-36 -25 -3
42 -3 42 -423 3 c-380 2 -423 1 -429 -14z m793 -127 c-11 -132 -41 -223 -103
-304 l-24 -33 -239 0 -239 0 -24 33 c-60 79 -91 172 -103 306 l-7 81 373 0
373 0 -7 -83z m244 18 c55 -58 28 -192 -49 -242 -69 -46 -130 -13 -138 74 -7
65 10 116 53 159 44 44 98 47 134 9z m-228 -444 c-66 -57 -121 -66 -382 -66
-263 0 -322 10 -383 65 l-32 29 415 0 415 0 -33 -28z"/>
</g>
</svg>
