<?xml version="1.0" encoding="UTF-8" standalone="no"?>
<!-- Created with Inkscape (http://www.inkscape.org/) -->

<svg
   xmlns:dc="http://purl.org/dc/elements/1.1/"
   xmlns:cc="http://creativecommons.org/ns#"
   xmlns:rdf="http://www.w3.org/1999/02/22-rdf-syntax-ns#"
   xmlns:svg="http://www.w3.org/2000/svg"
   xmlns="http://www.w3.org/2000/svg"
   xmlns:sodipodi="http://sodipodi.sourceforge.net/DTD/sodipodi-0.dtd"
   xmlns:inkscape="http://www.inkscape.org/namespaces/inkscape"
   version="1.1"
   width="64.181816"
   height="64.181816"
   id="svg2985"
   inkscape:version="0.48.5 r10040"
   sodipodi:docname="icon_tag_4.svg">
  <sodipodi:namedview
     pagecolor="#ffffff"
     bordercolor="#666666"
     borderopacity="1"
     objecttolerance="10"
     gridtolerance="10"
     guidetolerance="10"
     inkscape:pageopacity="0"
     inkscape:pageshadow="2"
     inkscape:window-width="696"
     inkscape:window-height="480"
     id="namedview3001"
     showgrid="false"
     inkscape:zoom="3.6770539"
     inkscape:cx="32.090908"
     inkscape:cy="32.090908"
     inkscape:window-x="158"
     inkscape:window-y="25"
     inkscape:window-maximized="0"
     inkscape:current-layer="svg2985" />
  <defs
     id="defs2987" />
  <metadata
     id="metadata2990">
    <rdf:RDF>
      <cc:Work
         rdf:about="">
        <dc:format>image/svg+xml</dc:format>
        <dc:type
           rdf:resource="http://purl.org/dc/dcmitype/StillImage" />
        <dc:title />
      </cc:Work>
    </rdf:RDF>
  </metadata>
  <path
     d="m 64.181816,32.090908 a 32.090908,32.090908 0 0 1 -64.181816,0 32.090908,32.090908 0 1 1 64.181816,0 z"
     id="path3008"
     style="fill:#b70101;fill-opacity:1;stroke:none" />
  <path
     d=""
     id="path3850"
     style="fill:#000000" />
  <path
     d=""
     id="path3848"
     style="fill:#000000" />
  <path
     d=""
     id="path3846"
     style="fill:#000000" />
  <path
     d=""
     id="path3874"
     style="fill:#000000" />
  <g
     id="g6111"
     transform="matrix(0.87290204,0,0,1.2377131,3.3910244,-9.937028)"
     style="fill:#ffffff;fill-opacity:1;stroke:none">
    <path
       id="path6101"
       d="m 57.652,22.324 c -0.707,-2.062 -3.3,-3.418 -9.015,-3.889 -3.038,-0.251 -4.894,0.947 -5.303,2.328 L 42,19.984 c -1.078,-0.75 -25.948,-6.086 -25.948,14.773 0,0 -8.485,1.95 -10.488,-0.91 0,0 -1.532,-1.264 -2.946,0 -1.414,1.264 2.121,3.857 5.775,4.681 3.653,0.825 10.606,0.589 11.313,0.471 0.707,-0.118 1.482,1.917 0.825,3.535 -0.48,1.181 4.596,5.892 7.307,6.128 2.71,0.236 6.246,0.825 6.285,-3.418 0.039,-4.242 -9.271,0.864 -5.971,-5.185 3.3,-6.049 3.663,-4.955 3.85,-4.91 0,0 2.985,3.143 4.085,3.614 0,0 -1.414,10.528 2.2,10.528 3.614,0 2.357,-11.313 2.357,-12.099 0,0 6.108,-5.264 6.58,-6.501 0,0 9.781,2.475 12.02,2.121 2.239,-0.354 3.123,-3.83 2.946,-4.419 -0.177,-0.589 -3.831,-4.006 -4.538,-6.069 z"
       inkscape:connector-curvature="0"
       style="fill:#ffffff;fill-opacity:1;stroke:none" />
    <path
       id="path6103"
       d="M 9.217,49 H 20.53 c 0,0 0.928,-2.542 -1.405,-2.708 0,0 -0.083,-2.583 -1.917,-2.375 0,0 -1.471,-3.362 -3.906,-0.691 0,0 1.257,-0.109 1.178,0.519 0,0 -2.647,-0.161 -2.147,2.339 C 12.333,46.083 8.981,46 9.217,49 z"
       inkscape:connector-curvature="0"
       style="fill:#ffffff;fill-opacity:1;stroke:none" />
  </g>
</svg>
