<?xml version="1.0" encoding="UTF-8" standalone="no"?>
<!-- Created with Inkscape (http://www.inkscape.org/) -->

<svg
   xmlns:dc="http://purl.org/dc/elements/1.1/"
   xmlns:cc="http://creativecommons.org/ns#"
   xmlns:rdf="http://www.w3.org/1999/02/22-rdf-syntax-ns#"
   xmlns:svg="http://www.w3.org/2000/svg"
   xmlns="http://www.w3.org/2000/svg"
   xmlns:sodipodi="http://sodipodi.sourceforge.net/DTD/sodipodi-0.dtd"
   xmlns:inkscape="http://www.inkscape.org/namespaces/inkscape"
   version="1.1"
   width="64.181816"
   height="64.181816"
   id="svg2985"
   inkscape:version="0.48.5 r10040"
   sodipodi:docname="icon_tag_2.svg">
  <sodipodi:namedview
     pagecolor="#ffffff"
     bordercolor="#666666"
     borderopacity="1"
     objecttolerance="10"
     gridtolerance="10"
     guidetolerance="10"
     inkscape:pageopacity="0"
     inkscape:pageshadow="2"
     inkscape:window-width="696"
     inkscape:window-height="480"
     id="namedview3001"
     showgrid="false"
     inkscape:zoom="3.6770539"
     inkscape:cx="32.090908"
     inkscape:cy="32.090908"
     inkscape:window-x="158"
     inkscape:window-y="25"
     inkscape:window-maximized="0"
     inkscape:current-layer="svg2985" />
  <defs
     id="defs2987" />
  <metadata
     id="metadata2990">
    <rdf:RDF>
      <cc:Work
         rdf:about="">
        <dc:format>image/svg+xml</dc:format>
        <dc:type
           rdf:resource="http://purl.org/dc/dcmitype/StillImage" />
        <dc:title />
      </cc:Work>
    </rdf:RDF>
  </metadata>
  <path
     d="m 64.181816,32.090908 a 32.090908,32.090908 0 0 1 -64.181816,0 32.090908,32.090908 0 1 1 64.181816,0 z"
     id="path3008"
     style="fill:#b70101;fill-opacity:1;stroke:none" />
  <path
     d=""
     id="path3850"
     style="fill:#000000" />
  <path
     d=""
     id="path3848"
     style="fill:#000000" />
  <path
     d=""
     id="path3846"
     style="fill:#000000" />
  <path
     d=""
     id="path3874"
     style="fill:#000000" />
  <path
     id="path5481"
     d="M 56.273346,20.464764 C 55.873585,19.374224 54.66291,18.819116 53.574441,19.21577 l -2.33332,0.857518 c 0.190559,-2.531129 -0.336587,-5.281817 -1.615615,-8.237563 -0.4619,-1.06672 -1.700538,-1.558654 -2.766222,-1.095718 -1.065685,0.460864 -1.557618,1.699502 -1.096754,2.765187 1.612508,3.72627 1.741964,6.896396 0.385262,9.424418 -1.414699,2.636766 -4.199562,4.256523 -6.500778,5.200001 -1.998805,-1.586616 -4.522685,-2.541486 -7.272337,-2.541486 -2.749652,0 -5.274567,0.95487 -7.272337,2.541486 -2.303287,-0.944513 -5.086079,-2.563235 -6.501813,-5.200001 -1.356702,-2.528022 -1.227246,-5.698148 0.385262,-9.424418 0.460864,-1.065685 -0.03003,-2.304323 -1.096754,-2.765187 -1.06672,-0.463972 -2.304322,0.029 -2.766223,1.095718 -1.277992,2.955746 -1.805138,5.706434 -1.615614,8.237563 L 11.173877,19.21577 c -1.089504,-0.398726 -2.3001786,0.158454 -2.698904,1.248994 -0.4007967,1.09054 0.1574188,2.30018 1.2489943,2.699941 l 5.2828527,1.940809 c 0.617247,1.100896 1.379486,2.06198 2.226648,2.902928 -0.156383,-0.01553 -0.313802,-0.03107 -0.472257,-0.02796 -3.525354,0.05696 -6.312289,4.518543 -6.312289,4.518543 0,0 2.930891,4.368374 6.455209,4.311413 1.521371,-0.02382 2.902928,-0.869947 3.985183,-1.822745 -0.150169,0.748775 -0.231986,1.523442 -0.231986,2.31675 0,3.801873 3.822586,11.526789 3.822586,12.768534 0,4.360088 3.533639,7.894763 7.893727,7.894763 4.361124,0 7.894764,-3.534675 7.894764,-7.894763 0,-1.241745 3.820514,-8.965626 3.820514,-12.768534 0,-0.793308 -0.08182,-1.566939 -0.231986,-2.31675 1.082255,0.952798 2.463813,1.797889 3.985183,1.822745 3.524318,0.05696 6.455209,-4.311413 6.455209,-4.311413 0,0 -2.7859,-4.461582 -6.312289,-4.518543 -0.158455,-0.0021 -0.315874,0.01346 -0.472257,0.02796 0.847162,-0.840948 1.610437,-1.802032 2.226649,-2.902928 l 5.282852,-1.940809 c 1.093647,-0.399761 1.651863,-1.609401 1.251066,-2.699941 z M 26.550179,42.379127 c -1.231388,0 -2.227684,-0.830592 -2.227684,-2.093049 0,-0.434974 0.124278,-0.970405 0.330373,-0.970405 h 3.793587 c 0.206094,0 0.330373,0.544752 0.330373,0.980761 0,1.261422 -0.997332,2.082693 -2.226649,2.082693 z m 5.824498,12.731251 c 0,0 -2.710297,-1.212747 -2.710297,-2.709262 0,-1.49755 1.214818,-0.238199 2.710297,-0.238199 1.496515,0 2.709262,-1.259351 2.709262,0.238199 0,1.496515 -2.709262,2.709262 -2.709262,2.709262 z m 5.823462,-12.731251 c -1.230352,0 -2.226648,-0.820235 -2.226648,-2.083729 0,-0.434973 0.124278,-0.980761 0.330372,-0.980761 h 3.793588 c 0.206094,0 0.330372,0.535432 0.330372,0.970405 0,1.263493 -0.99526,2.094085 -2.227684,2.094085 z"
     inkscape:connector-curvature="0"
     style="fill:#ffffff;fill-opacity:1;stroke:none" />
</svg>
