<?xml version="1.0" encoding="UTF-8" standalone="no"?>
<!-- Created with Inkscape (http://www.inkscape.org/) -->

<svg
   xmlns:dc="http://purl.org/dc/elements/1.1/"
   xmlns:cc="http://creativecommons.org/ns#"
   xmlns:rdf="http://www.w3.org/1999/02/22-rdf-syntax-ns#"
   xmlns:svg="http://www.w3.org/2000/svg"
   xmlns="http://www.w3.org/2000/svg"
   version="1.1"
   width="64.181816"
   height="64.181816"
   id="svg2985">
  <defs
     id="defs2987" />
  <metadata
     id="metadata2990">
    <rdf:RDF>
      <cc:Work
         rdf:about="">
        <dc:format>image/svg+xml</dc:format>
        <dc:type
           rdf:resource="http://purl.org/dc/dcmitype/StillImage" />
        <dc:title></dc:title>
      </cc:Work>
    </rdf:RDF>
  </metadata>
  <g
     transform="translate(-0.49489419,2.361002)"
     id="layer1">
    <path
       d="m 63.999998,31.90909 a 32.090908,32.090908 0 1 1 -64.18181601,0 32.090908,32.090908 0 1 1 64.18181601,0 z"
       transform="translate(0.6767122,-2.179184)"
       id="path3008"
       style="fill:#b70101;fill-opacity:1;stroke:none" />
    <path
       d="m 12.109172,51.679015 c -0.130403,-0.339826 -0.0087,-0.892988 0.270309,-1.229249 0.439861,-0.53 3.096499,-0.59727 19.957146,-0.505351 l 19.449741,0.106041 0.129239,1.123211 0.129238,1.12321 -19.849288,0 c -17.341298,0 -19.879248,-0.07807 -20.086385,-0.617859 z m 2.46179,-3.646904 c -0.124269,-0.32384 -0.161966,-0.921183 -0.08377,-1.32743 0.134123,-0.696803 1.130546,-0.744656 17.597464,-0.845124 l 17.455292,-0.106495 0,1.433922 0,1.433926 -17.37152,0 c -14.751726,0 -17.405595,-0.0888 -17.597465,-0.588803 z M 17.054,43.623699 C 16.941044,43.329333 16.898198,38.957193 16.9588,33.90783 l 0.110174,-9.180658 3.88018,0 3.88018,0 0,9.598341 0,9.59834 -3.784973,0.117529 c -2.830411,0.08789 -3.836769,-0.01745 -3.990352,-0.417683 z m 11.342814,0.0283 c -0.777186,-0.777184 -0.7143,-18.037773 0.06808,-18.687092 0.366321,-0.304021 1.872962,-0.432261 4.18651,-0.356342 l 3.614239,0.118603 0,9.598341 0,9.59834 -3.682322,0.116169 c -2.514786,0.07934 -3.842182,-0.04369 -4.186509,-0.388017 z m 11.121388,-0.0283 C 39.405246,43.329333 39.3624,38.957193 39.423002,33.90783 l 0.110174,-9.180658 3.880181,0 3.88018,0 0,9.598341 0,9.59834 -3.784972,0.117529 c -2.830411,0.08789 -3.836769,-0.01745 -3.990353,-0.417683 z M 10.957309,23.321811 c -0.197786,-0.320022 6.756525,-5.796966 18.653002,-14.6903771 1.460622,-1.0919115 2.52768,-1.6249849 2.859081,-1.4283191 2.814279,1.6700975 21.92442,15.8407992 21.747795,16.1265932 -0.740339,1.197886 -2.803835,0.136937 -11.978342,-6.158677 -5.237881,-3.594272 -9.829071,-6.53504 -10.202642,-6.53504 -0.373573,0 -3.802127,2.263284 -7.619011,5.029521 -3.816883,2.766236 -7.925351,5.707006 -9.129929,6.535041 -2.126305,1.461637 -3.844591,1.906593 -4.329954,1.121258 z m 5.498995,0.01013 c 0,-0.475413 1.5786,-1.687963 9.314138,-7.154352 l 6.250838,-4.417211 8.367489,5.576549 c 4.602121,3.067103 8.257274,5.754882 8.122571,5.972842 -0.320404,0.518422 -32.055036,0.540373 -32.055036,0.02218 z"
       id="path3004"
       style="fill:#ffffff" />
  </g>
</svg>
