<?xml version="1.0" encoding="UTF-8" standalone="no"?>
<!-- Created with Inkscape (http://www.inkscape.org/) -->

<svg
   xmlns:dc="http://purl.org/dc/elements/1.1/"
   xmlns:cc="http://creativecommons.org/ns#"
   xmlns:rdf="http://www.w3.org/1999/02/22-rdf-syntax-ns#"
   xmlns:svg="http://www.w3.org/2000/svg"
   xmlns="http://www.w3.org/2000/svg"
   xmlns:sodipodi="http://sodipodi.sourceforge.net/DTD/sodipodi-0.dtd"
   xmlns:inkscape="http://www.inkscape.org/namespaces/inkscape"
   id="svg2"
   version="1.1"
   inkscape:version="0.48.4 r9939"
   width="160"
   height="160"
   xml:space="preserve"
   sodipodi:docname="icon_innovation.ai"><metadata
     id="metadata8"><rdf:RDF><cc:Work
         rdf:about=""><dc:format>image/svg+xml</dc:format><dc:type
           rdf:resource="http://purl.org/dc/dcmitype/StillImage" /><dc:title></dc:title></cc:Work></rdf:RDF></metadata><defs
     id="defs6"><clipPath
       clipPathUnits="userSpaceOnUse"
       id="clipPath16"><path
         d="M 0,128 128,128 128,0 0,0 0,128 z"
         id="path18" /></clipPath></defs><sodipodi:namedview
     pagecolor="#ffffff"
     bordercolor="#666666"
     borderopacity="1"
     objecttolerance="10"
     gridtolerance="10"
     guidetolerance="10"
     inkscape:pageopacity="0"
     inkscape:pageshadow="2"
     inkscape:window-width="640"
     inkscape:window-height="480"
     id="namedview4"
     showgrid="false"
     inkscape:zoom="1.475"
     inkscape:cx="80"
     inkscape:cy="80"
     inkscape:window-x="0"
     inkscape:window-y="0"
     inkscape:window-maximized="0"
     inkscape:current-layer="g10" /><g
     id="g10"
     inkscape:groupmode="layer"
     inkscape:label="icon_innovation"
     transform="matrix(1.25,0,0,-1.25,0,160)"><g
       id="g12"><g
         id="g14"
         clip-path="url(#clipPath16)"><g
           id="g20"
           transform="translate(128,64)"><path
             d="m 0,0 c 0,-35.349 -28.657,-64 -64,-64 -35.35,0 -64,28.651 -64,64 0,35.346 28.65,64 64,64 C -28.657,64 0,35.346 0,0"
             style="fill:#cf2037;fill-opacity:1;fill-rule:nonzero;stroke:none"
             id="path22" /></g><g
           id="g24"
           transform="translate(63.417,102.5078)"><path
             d="m 0,0 c -15.016,0 -27.186,-12.17 -27.186,-27.177 0,-11.148 11.229,-17.127 15.922,-28.863 0.726,-1.83 1.217,-3.638 1.541,-5.396 3.017,-1.155 6.293,-1.795 9.723,-1.795 3.74,0 7.31,0.763 10.556,2.127 0.255,1.679 0.653,3.369 1.262,5.064 4.255,11.85 15.36,15.272 15.36,28.863 C 27.178,-12.17 15.005,0 0,0"
             style="fill:#ffffff;fill-opacity:1;fill-rule:nonzero;stroke:none"
             id="path26" /></g><g
           id="g28"
           transform="translate(55.1899,25.2031)"><path
             d="m 0,0 c 0.998,-3.029 3.299,-4.262 8.986,-4.262 5.409,0 7.623,1.43 8.57,4.622 C 14.557,-0.69 11.422,-1.225 8.227,-1.225 5.421,-1.225 2.662,-0.808 0,0"
             style="fill:#ffffff;fill-opacity:1;fill-rule:nonzero;stroke:none"
             id="path30" /></g><g
           id="g32"
           transform="translate(73.502,33.1484)"><path
             d="M 0,0 C 0.019,1.125 0.042,2.34 0.071,3.641 -3.065,2.374 -6.497,1.666 -10.085,1.666 c -3.244,0 -6.34,0.572 -9.225,1.61 0.059,-1.313 0.098,-2.534 0.146,-3.656 2.808,-0.992 6.089,-1.492 9.079,-1.492 3.353,0 6.983,0.627 10.085,1.872"
             style="fill:#ffffff;fill-opacity:1;fill-rule:nonzero;stroke:none"
             id="path34" /></g><g
           id="g36"
           transform="translate(63.417,29.1035)"><path
             d="m 0,0 c -3.074,0 -6.094,0.496 -8.986,1.472 0.052,-1.076 0.125,-2.042 0.238,-2.918 2.811,-0.995 5.75,-1.506 8.748,-1.506 3.363,0 6.653,0.636 9.749,1.889 0,0 0.222,1.798 0.265,2.892 C 6.813,0.614 3.442,0 0,0"
             style="fill:#ffffff;fill-opacity:1;fill-rule:nonzero;stroke:none"
             id="path38" /></g></g></g></g></svg>