<?xml version="1.0" encoding="UTF-8" standalone="no"?>
<!-- Created with Inkscape (http://www.inkscape.org/) -->

<svg
   xmlns:dc="http://purl.org/dc/elements/1.1/"
   xmlns:cc="http://creativecommons.org/ns#"
   xmlns:rdf="http://www.w3.org/1999/02/22-rdf-syntax-ns#"
   xmlns:svg="http://www.w3.org/2000/svg"
   xmlns="http://www.w3.org/2000/svg"
   xmlns:sodipodi="http://sodipodi.sourceforge.net/DTD/sodipodi-0.dtd"
   xmlns:inkscape="http://www.inkscape.org/namespaces/inkscape"
   id="svg2"
   version="1.1"
   inkscape:version="0.48.4 r9939"
   width="160"
   height="160"
   xml:space="preserve"
   sodipodi:docname="icon_search.svg"><metadata
     id="metadata8"><rdf:RDF><cc:Work
         rdf:about=""><dc:format>image/svg+xml</dc:format><dc:type
           rdf:resource="http://purl.org/dc/dcmitype/StillImage" /><dc:title /></cc:Work></rdf:RDF></metadata><defs
     id="defs6"><clipPath
       clipPathUnits="userSpaceOnUse"
       id="clipPath16"><path
         d="M 0,128 128,128 128,0 0,0 0,128 z"
         id="path18" /></clipPath></defs><sodipodi:namedview
     pagecolor="#ffffff"
     bordercolor="#666666"
     borderopacity="1"
     objecttolerance="10"
     gridtolerance="10"
     guidetolerance="10"
     inkscape:pageopacity="0"
     inkscape:pageshadow="2"
     inkscape:window-width="1908"
     inkscape:window-height="1042"
     id="namedview4"
     showgrid="false"
     inkscape:zoom="1.475"
     inkscape:cx="-64.745763"
     inkscape:cy="80"
     inkscape:window-x="0"
     inkscape:window-y="0"
     inkscape:window-maximized="1"
     inkscape:current-layer="g10" /><g
     id="g10"
     inkscape:groupmode="layer"
     inkscape:label="icon_search"
     transform="matrix(1.25,0,0,-1.25,0,160)"><path
       inkscape:connector-curvature="0"
       id="path22"
       style="fill:#cf2037;fill-opacity:1;fill-rule:nonzero;stroke:none"
       d="M 128,63.9976 C 128,28.6556 99.343,-4e-4 64,-4e-4 c -35.349,0 -64,28.656 -64,63.998 0,35.346 28.651,64.002 64,64.002 35.343,0 64,-28.656 64,-64.002" /><path
       style="fill:#ffffff;fill-opacity:1;fill-rule:nonzero;stroke:none"
       d="M 55.125,105.325 C 39.676,105.325 27.15,92.802 27.15,77.35 27.15,61.904 39.676,49.4 55.125,49.4 c 5.661131,0 10.921389,1.682682 15.325,4.575 1.090015,-2.551533 2.91982,-5.481362 5.3,-8.35 l 9.35,-11.3 c 5.365,-6.466 11.642,-10.195 13.925,-8.3 2.284,1.893 -0.259,8.734 -5.625,15.2 L 84.05,52.5 c -2.46812,2.974066 -5.128384,5.362318 -7.5,6.9 4.078248,4.859326 6.55,11.109823 6.55,17.95 0,15.452 -12.532,27.975 -27.975,27.975 z m 0,-10.175 c 9.801,0 17.775,-7.995 17.775,-17.8 0,-9.802 -7.974,-17.775 -17.775,-17.775 -9.802,0 -17.775,7.973 -17.775,17.775 0,9.805 7.973,17.8 17.775,17.8 z"
       id="path26"
       inkscape:connector-curvature="0" /></g></svg>