<?xml version="1.0" encoding="UTF-8" standalone="no"?>
<!-- Created with Inkscape (http://www.inkscape.org/) -->

<svg
   xmlns:dc="http://purl.org/dc/elements/1.1/"
   xmlns:cc="http://creativecommons.org/ns#"
   xmlns:rdf="http://www.w3.org/1999/02/22-rdf-syntax-ns#"
   xmlns:svg="http://www.w3.org/2000/svg"
   xmlns="http://www.w3.org/2000/svg"
   xmlns:sodipodi="http://sodipodi.sourceforge.net/DTD/sodipodi-0.dtd"
   xmlns:inkscape="http://www.inkscape.org/namespaces/inkscape"
   id="svg2"
   version="1.1"
   inkscape:version="0.48.4 r9939"
   width="160"
   height="160"
   xml:space="preserve"
   sodipodi:docname="icon_culture.svg"><metadata
     id="metadata8"><rdf:RDF><cc:Work
         rdf:about=""><dc:format>image/svg+xml</dc:format><dc:type
           rdf:resource="http://purl.org/dc/dcmitype/StillImage" /><dc:title></dc:title></cc:Work></rdf:RDF></metadata><defs
     id="defs6"><clipPath
       clipPathUnits="userSpaceOnUse"
       id="clipPath16"><path
         d="M 0,128 128,128 128,0 0,0 0,128 z"
         id="path18" /></clipPath></defs><sodipodi:namedview
     pagecolor="#ffffff"
     bordercolor="#666666"
     borderopacity="1"
     objecttolerance="10"
     gridtolerance="10"
     guidetolerance="10"
     inkscape:pageopacity="0"
     inkscape:pageshadow="2"
     inkscape:window-width="1431"
     inkscape:window-height="845"
     id="namedview4"
     showgrid="false"
     inkscape:zoom="1.475"
     inkscape:cx="81.355932"
     inkscape:cy="136.94915"
     inkscape:window-x="39"
     inkscape:window-y="29"
     inkscape:window-maximized="0"
     inkscape:current-layer="g10" /><g
     id="g10"
     inkscape:groupmode="layer"
     inkscape:label="icon_culture"
     transform="matrix(1.25,0,0,-1.25,0,160)"><g
       id="g20"
       transform="translate(128,63.998)"
       style="fill:#cf2037;fill-opacity:1"><path
         d="m 0,0 c 0,-35.342 -28.657,-63.998 -64,-63.998 -35.35,0 -64,28.656 -64,63.998 0,35.349 28.65,64.002 64,64.002 C -28.657,64.002 0,35.349 0,0"
         style="fill:#cf2037;fill-opacity:1;fill-rule:nonzero;stroke:none"
         id="path22"
         inkscape:connector-curvature="0" /></g><g
       id="g24"
       transform="translate(103.3057,42.3057)"
       style="fill:#ffffff;fill-opacity:1" /><g
       id="g28"
       transform="translate(67.5186,98.7012)"
       style="fill:#ffffff" /><path
       style="fill:#ffffff;fill-opacity:1;fill-rule:nonzero;stroke:none"
       d="m 65.75,117.6 -1.6,-17.225 C 30.830205,98.813474 28.356082,50.392716 28.175,43.25 c 2.229321,0.399912 5.016118,0.84164 8.45,1.25 3.969,0.478 8.614,0.895 13.575,1.175 2.481,0.143 5.045,0.261 7.65,0.325 2.605,0.085 5.254,0.104 7.9,0.125 2.646,-0.02 5.294,-0.04 7.9,-0.125 2.604,-0.057 5.145,-0.164 7.625,-0.3 4.962,-0.278 9.606,-0.697 13.575,-1.175 3.36316,-0.401544 6.21286,-0.828864 8.425,-1.225 -0.0866,5.166986 -1.77545,55.566462 -35.9,57.075 L 65.75,117.6 z M 65.8,97.025 c 0,0 0.334,-0.739 0.775,-2.05 0.433,-1.31 0.976,-3.178 1.45,-5.425 0.478,-2.246 0.895,-4.891 1.175,-7.7 0.143,-1.404 0.236,-2.85 0.3,-4.325 0.085,-1.474 0.104,-2.977 0.125,-4.475 -0.02,-1.498 -0.015,-2.976 -0.1,-4.45 C 69.468,67.125 69.336,65.654 69.2,64.25 68.922,61.441 68.503,58.822 68.025,56.575 67.549,54.329 67.01,52.461 66.575,51.15 66.133,49.839 65.8,49.1 65.8,49.1 c 0,0 -0.308,0.739 -0.75,2.05 -0.436,1.311 -0.975,3.179 -1.45,5.425 -0.478,2.247 -0.897,4.866 -1.175,7.675 -0.136,1.404 -0.268,2.875 -0.325,4.35 -0.086,1.474 -0.079,2.952 -0.1,4.45 0.022,1.498 0.015,3.001 0.1,4.475 0.064,1.475 0.182,2.921 0.325,4.325 0.28,2.809 0.699,5.454 1.175,7.7 0.475,2.247 1.017,4.115 1.45,5.425 0.441,1.311 0.75,2.05 0.75,2.05 z m -6.15,-0.5 c 0,0 -0.542,-0.737 -1.575,-1.925 C 57.536,94.02 56.957,93.274 56.3,92.475 55.976,92.063 55.601,91.689 55.25,91.225 54.896,90.77 54.538,90.299 54.15,89.8 53.954,89.558 53.754,89.301 53.55,89.05 53.363,88.787 53.169,88.523 52.975,88.25 52.591,87.703 52.163,87.16 51.75,86.6 51.003,85.411 50.132,84.256 49.4,82.95 48.593,81.7 47.925,80.327 47.175,78.975 46.837,78.273 46.516,77.544 46.15,76.85 45.807,76.144 45.541,75.399 45.225,74.675 44.878,73.964 44.625,73.221 44.35,72.475 44.09,71.724 43.72,71.015 43.5,70.25 43.259,69.494 42.999,68.734 42.725,68 42.488,67.252 42.3,66.503 42.05,65.775 41.547,64.321 41.22,62.846 40.775,61.475 40.383,60.09 40.03,58.756 39.65,57.525 39.317,56.286 39.015,55.146 38.7,54.125 38.367,53.104 38.148,52.194 37.9,51.45 37.428,49.959 37.1,49.1 37.1,49.1 c 0,0 -0.312,0.844 -0.725,2.375 -0.19,0.766 -0.462,1.721 -0.625,2.8 -0.179,1.081 -0.356,2.305 -0.5,3.65 -0.083,1.343 -0.184,2.795 -0.175,4.35 0.078,1.551 0.075,3.206 0.35,4.9 0.105,0.851 0.222,1.702 0.375,2.575 0.181,0.869 0.401,1.77 0.625,2.65 0.197,0.886 0.473,1.751 0.775,2.625 0.3,0.876 0.583,1.771 0.975,2.625 0.394,0.85 0.771,1.719 1.2,2.55 0.437,0.829 0.919,1.623 1.375,2.425 0.471,0.796 1.027,1.536 1.55,2.275 0.504,0.753 1.088,1.418 1.675,2.075 1.113,1.364 2.425,2.476 3.6,3.55 1.287,0.961 2.43,1.905 3.65,2.575 0.601,0.346 1.176,0.702 1.725,1 0.557,0.292 1.112,0.549 1.625,0.775 1.031,0.458 1.917,0.825 2.675,1.025 1.509,0.45 2.4,0.625 2.4,0.625 z m 11.4,0 c 0,0 0.891,-0.175 2.4,-0.625 0.758,-0.2 1.644,-0.567 2.675,-1.025 0.514,-0.226 1.068,-0.484 1.625,-0.775 0.549,-0.299 1.124,-0.654 1.725,-1 1.22,-0.67 2.362,-1.613 3.65,-2.575 1.175,-1.074 2.487,-2.186 3.6,-3.55 0.588,-0.657 1.171,-1.323 1.675,-2.075 0.523,-0.739 1.103,-1.48 1.575,-2.275 0.455,-0.803 0.938,-1.596 1.375,-2.425 0.429,-0.83 0.78,-1.7 1.175,-2.55 0.391,-0.854 0.674,-1.749 0.975,-2.625 0.302,-0.875 0.604,-1.738 0.8,-2.625 0.225,-0.88 0.419,-1.781 0.6,-2.65 0.153,-0.873 0.271,-1.724 0.375,-2.575 0.276,-1.694 0.272,-3.35 0.35,-4.9 0.01,-1.556 -0.068,-3.007 -0.15,-4.35 -0.144,-1.345 -0.346,-2.57 -0.525,-3.65 -0.164,-1.08 -0.434,-2.034 -0.625,-2.8 -0.412,-1.531 -0.7,-2.375 -0.7,-2.375 0,0 -0.354,0.859 -0.825,2.35 -0.249,0.744 -0.467,1.654 -0.8,2.675 -0.315,1.021 -0.617,2.161 -0.95,3.4 -0.38,1.231 -0.708,2.565 -1.1,3.95 -0.445,1.371 -0.796,2.846 -1.3,4.3 -0.249,0.728 -0.438,1.477 -0.675,2.225 -0.275,0.734 -0.534,1.494 -0.775,2.25 -0.22,0.765 -0.566,1.474 -0.825,2.225 -0.275,0.746 -0.554,1.49 -0.9,2.2 -0.317,0.724 -0.582,1.469 -0.925,2.175 -0.366,0.694 -0.688,1.423 -1.025,2.125 -0.751,1.352 -1.417,2.725 -2.225,3.975 -0.731,1.306 -1.603,2.461 -2.35,3.65 -0.413,0.56 -0.816,1.103 -1.2,1.65 -0.194,0.273 -0.386,0.537 -0.575,0.8 -0.203,0.251 -0.404,0.508 -0.6,0.75 -0.388,0.499 -0.771,0.97 -1.125,1.425 -0.351,0.464 -0.726,0.838 -1.05,1.25 -0.657,0.799 -1.236,1.545 -1.775,2.125 -1.032,1.188 -1.575,1.925 -1.575,1.925 z M 23.4,42.3 l 0,-12.3 84.675,0 0,12.3 c 0,0 -0.33,-0.081 -0.95,-0.225 -0.62,-0.122 -1.517,-0.329 -2.675,-0.525 -2.316,-0.442 -5.63,-0.976 -9.6,-1.45 -3.969,-0.478 -8.613,-0.897 -13.575,-1.175 -2.48,-0.136 -5.021,-0.268 -7.625,-0.325 -2.606,-0.085 -5.254,-0.08 -7.9,-0.1 -2.646,0.021 -5.295,0.015 -7.9,0.1 -2.605,0.064 -5.169,0.182 -7.65,0.325 -4.961,0.28 -9.606,0.697 -13.575,1.175 -3.969,0.472 -7.26,1.011 -9.575,1.45 -1.158,0.194 -2.08,0.405 -2.7,0.525 C 23.73,42.218 23.4,42.3 23.4,42.3 z"
       id="path32"
       inkscape:connector-curvature="0" /><g
       id="g34"
       transform="translate(59.6587,96.5352)"
       style="fill:#cf2037;fill-opacity:1" /><g
       id="g38"
       transform="translate(65.8105,97.0293)"
       style="fill:#cf2037;fill-opacity:1" /><g
       id="g42"
       transform="translate(71.0469,96.5352)"
       style="fill:#cf2037;fill-opacity:1" /><g
       id="g46"
       transform="translate(23.4019,42.3057)"
       style="fill:#cf2037;fill-opacity:1" /></g></svg>