<?xml version="1.0" encoding="UTF-8" standalone="no"?>
<!-- Created with Inkscape (http://www.inkscape.org/) -->

<svg
   xmlns:dc="http://purl.org/dc/elements/1.1/"
   xmlns:cc="http://creativecommons.org/ns#"
   xmlns:rdf="http://www.w3.org/1999/02/22-rdf-syntax-ns#"
   xmlns:svg="http://www.w3.org/2000/svg"
   xmlns="http://www.w3.org/2000/svg"
   xmlns:sodipodi="http://sodipodi.sourceforge.net/DTD/sodipodi-0.dtd"
   xmlns:inkscape="http://www.inkscape.org/namespaces/inkscape"
   version="1.1"
   width="160"
   height="160"
   id="svg2"
   xml:space="preserve"
   inkscape:version="0.48.4 r9939"
   sodipodi:docname="icon_mustdo.svg"><sodipodi:namedview
     pagecolor="#ffffff"
     bordercolor="#666666"
     borderopacity="1"
     objecttolerance="10"
     gridtolerance="10"
     guidetolerance="10"
     inkscape:pageopacity="0"
     inkscape:pageshadow="2"
     inkscape:window-width="640"
     inkscape:window-height="480"
     id="namedview9"
     showgrid="false"
     inkscape:zoom="1.475"
     inkscape:cx="80"
     inkscape:cy="80"
     inkscape:window-x="0"
     inkscape:window-y="0"
     inkscape:window-maximized="0"
     inkscape:current-layer="svg2" /><metadata
     id="metadata8"><rdf:RDF><cc:Work
         rdf:about=""><dc:format>image/svg+xml</dc:format><dc:type
           rdf:resource="http://purl.org/dc/dcmitype/StillImage" /><dc:title /></cc:Work></rdf:RDF></metadata><defs
     id="defs6"><clipPath
       id="clipPath16"><path
         d="M 0,128 128,128 128,0 0,0 0,128 z"
         id="path18" /></clipPath></defs><path
     style="fill:#cf2037;fill-opacity:1;fill-rule:nonzero;stroke:none"
     d="M 80,0 C 35.8125,0 0,35.815 0,80 c 0,44.18125 35.8125,80 80,80 44.18375,0 80,-35.81875 80,-80 C 160,35.815 124.18375,0 80,0 z"
     id="path2989" /><path
     style="fill:#ffffff;fill-opacity:1;fill-rule:nonzero;stroke:none"
     d="m 80,37.25 c 1.532187,0 3.05625,1.17625 4.21875,3.53125 l 5.6875,11.53125 c 2.325,4.71 8.49,9.18375 13.6875,9.9375 l 12.75,1.84375 c 5.1975,0.755 6.355,4.39625 2.59375,8.0625 L 109.71875,81.125 C 105.9575,84.7925 103.6125,92.01 104.5,97.1875 l 2.1875,12.6875 c 0.8875,5.1775 -2.19375,7.4125 -6.84375,4.96875 L 88.4375,108.875 c -4.65,-2.44375 -12.2575,-2.44375 -16.90625,0 l -11.375,5.96875 C 55.5075,117.2875 52.425,115.0525 53.3125,109.875 L 55.5,97.1875 C 56.3875,92.01 54.0425,84.79125 50.28125,81.125 l -9.21875,-9 c -3.76125,-3.665 -2.605,-7.27625 2.59375,-8.03125 l 12.75,-1.84375 c 5.1975,-0.755 11.3325,-5.2275 13.65625,-9.9375 L 75.78125,40.78125 C 76.94375,38.42625 78.467813,37.25 80,37.25 z"
     id="path22" /></svg>