<?xml version="1.0" encoding="UTF-8" standalone="no"?>
<!-- Created with Inkscape (http://www.inkscape.org/) -->

<svg
   xmlns:dc="http://purl.org/dc/elements/1.1/"
   xmlns:cc="http://creativecommons.org/ns#"
   xmlns:rdf="http://www.w3.org/1999/02/22-rdf-syntax-ns#"
   xmlns:svg="http://www.w3.org/2000/svg"
   xmlns="http://www.w3.org/2000/svg"
   version="1.1"
   width="64.181816"
   height="64.181816"
   id="svg2985">
  <defs
     id="defs2987" />
  <metadata
     id="metadata2990">
    <rdf:RDF>
      <cc:Work
         rdf:about="">
        <dc:format>image/svg+xml</dc:format>
        <dc:type
           rdf:resource="http://purl.org/dc/dcmitype/StillImage" />
        <dc:title></dc:title>
      </cc:Work>
    </rdf:RDF>
  </metadata>
  <path
     d="m 64.181816,32.090908 a 32.090908,32.090908 0 0 1 -64.181816,0 32.090908,32.090908 0 1 1 64.181816,0 z"
     id="path3008"
     style="fill:#b70101;fill-opacity:1;stroke:none" />
  <path
     d=""
     id="path3850"
     style="fill:#000000" />
  <path
     d=""
     id="path3848"
     style="fill:#000000" />
  <path
     d=""
     id="path3846"
     style="fill:#000000" />
  <path
     d=""
     id="path3874"
     style="fill:#000000" />
  <path
     d="M 42.586043,47.586263 30.514093,47.551 30.002605,47.329636 c -0.281318,-0.12175 -0.593522,-0.292767 -0.693789,-0.380043 -0.310621,-0.270369 -0.840736,-0.851966 -0.843057,-0.924933 -0.0013,-0.03816 -0.095,-0.192017 -0.208415,-0.341909 -0.113413,-0.149892 -0.206205,-0.324758 -0.206205,-0.388595 0,-0.06383 -0.0792,-0.265016 -0.175996,-0.447067 -0.0968,-0.182049 -0.209379,-0.4911 -0.250182,-0.686779 -0.0408,-0.195677 -0.135735,-0.541481 -0.210958,-0.768454 -0.168988,-0.509883 -0.249594,-1.89902 -0.18741,-3.229722 0.04115,-0.880487 0.05841,-0.968111 0.288113,-1.462158 l 0.244342,-0.525541 0.597007,-0.286467 c 0.806384,-0.386928 0.78708,-0.500652 -0.08511,-0.501381 -0.693973,-5.56e-4 -0.966133,-0.100363 -1.387251,-0.508582 -0.203271,-0.197048 -0.417662,-0.451931 -0.476424,-0.566405 -0.05876,-0.114475 -0.163035,-0.27058 -0.23172,-0.346896 -0.06869,-0.07631 -0.186645,-0.310472 -0.262136,-0.520342 -0.07549,-0.209872 -0.193566,-0.522079 -0.262383,-0.693791 -0.177388,-0.442616 -0.186389,-3.369524 -0.01216,-3.954604 0.343975,-1.155111 0.720444,-1.954083 1.138068,-2.415291 l 0.294447,-0.32518 1.951118,-0.0078 c 2.064026,-0.0082 2.305219,-0.04441 1.952158,-0.293111 -0.258586,-0.182148 -0.842153,-0.760939 -0.842153,-0.835262 0,-0.03705 -0.07353,-0.155613 -0.163396,-0.263475 -0.08986,-0.107864 -0.203299,-0.318456 -0.252068,-0.467983 -0.04876,-0.149527 -0.145029,-0.368071 -0.213912,-0.485652 -0.110988,-0.189458 -0.241687,-0.718611 -0.489781,-1.982953 -0.106924,-0.544909 -0.04031,-2.451013 0.09858,-2.82141 0.05963,-0.158992 0.129429,-0.439977 0.155121,-0.62441 0.06127,-0.43989 0.477565,-1.301846 0.803131,-1.662946 0.289136,-0.320701 0.495671,-0.678867 0.429575,-0.744964 -0.02392,-0.02392 -0.290064,-0.04349 -0.591438,-0.04349 -0.96841,0 -1.450245,0.336717 -1.981423,1.384663 -0.219328,0.432704 -0.28413,0.686386 -0.541296,2.118978 -0.121001,0.674067 -0.09817,1.93386 0.0459,2.532334 0.04134,0.171713 0.119402,0.561269 0.17348,0.865679 0.109434,0.616015 0.483773,1.449626 0.758059,1.688117 0.187548,0.16307 0.223194,0.321373 0.09079,0.403202 -0.04562,0.02819 -0.521738,0.05345 -1.058029,0.05613 -0.958821,0.0048 -0.980667,0.0084 -1.310436,0.212999 -0.603884,0.374792 -0.903883,0.676266 -1.235779,1.241857 -0.223846,0.381457 -0.489741,1.054257 -0.551131,1.394545 -0.04132,0.228951 -0.134639,0.666038 -0.207408,0.971307 -0.183874,0.77137 -0.184749,2.344101 -0.0017,3.122056 0.07182,0.305266 0.166986,0.770446 0.211491,1.033731 0.04451,0.263285 0.157242,0.622074 0.250526,0.797307 0.09328,0.175233 0.169608,0.36928 0.169608,0.431215 0,0.06193 0.05803,0.187066 0.128948,0.27807 0.07092,0.091 0.178954,0.262978 0.240071,0.382169 0.173426,0.338209 0.642971,0.804431 0.966845,0.960006 0.370507,0.177975 0.419851,0.404727 0.156245,0.718004 -0.09918,0.117872 -0.278444,0.489075 -0.398361,0.824893 -0.217666,0.609574 -0.218017,0.612861 -0.213384,1.998158 0.0036,1.071198 0.03048,1.474587 0.117978,1.769165 0.06233,0.209872 0.163239,0.631349 0.224227,0.936617 0.06099,0.305268 0.185509,0.695277 0.276709,0.866686 0.0912,0.171409 0.165818,0.362181 0.165818,0.423937 0,0.06175 0.07847,0.227913 0.174373,0.369238 0.0959,0.141327 0.216972,0.356423 0.269034,0.477991 0.05206,0.12157 0.254216,0.377138 0.449232,0.56793 0.340835,0.333453 0.433252,0.5339 0.287645,0.623891 -0.105881,0.06544 -1.432624,-0.097 -2.002114,-0.245133 -0.280293,-0.07291 -0.841866,-0.166354 -1.24794,-0.20766 -0.850373,-0.08651 -1.252631,-0.237514 -1.618849,-0.607746 -0.139898,-0.141428 -0.368537,-0.350804 -0.508089,-0.465279 -0.646963,-0.530707 -1.108103,-1.593212 -1.264676,-2.913919 -0.09089,-0.766633 -0.09417,-1.058038 -0.02188,-1.942612 0.04678,-0.572377 0.125512,-1.149959 0.17496,-1.283512 0.04945,-0.133555 0.155476,-0.420884 0.235614,-0.638506 0.255433,-0.69365 0.827294,-1.463565 1.249078,-1.68168 0.282198,-0.14593 0.331197,-0.249195 0.174463,-0.367691 -0.232607,-0.175855 -0.918887,-0.06757 -1.359916,0.214534 -0.686611,0.439216 -1.058432,0.974132 -1.339304,1.926753 -0.286142,0.970496 -0.326255,1.39824 -0.295243,3.148302 l 0.02827,1.595718 0.24446,0.632723 c 0.21278,0.55073 0.619053,1.205821 0.747824,1.205821 0.02355,0 0.09701,0.09175 0.163264,0.203915 0.06626,0.112153 0.182253,0.223529 0.257785,0.247501 0.07552,0.02398 0.137328,0.0727 0.137328,0.108292 0,0.09517 -0.34914,0.07888 -0.809597,-0.0378 -0.222495,-0.05638 -0.700151,-0.135505 -1.061459,-0.175843 -0.361311,-0.04033 -0.897013,-0.13464 -1.190456,-0.209562 -0.293441,-0.07492 -0.83135,-0.167105 -1.19535,-0.20485 -0.889042,-0.0922 -1.859604,-0.410489 -2.275552,-0.746272 -0.343539,-0.277333 -0.778913,-0.812052 -0.909453,-1.116973 -0.04343,-0.101455 -0.132776,-0.264033 -0.198534,-0.361277 -0.105117,-0.155445 -0.181248,-0.407525 -0.49139,-1.627048 -0.03883,-0.152634 -0.07305,-0.730214 -0.07608,-1.283511 -0.0048,-0.87615 0.01949,-1.108978 0.188195,-1.803855 0.282805,-1.164877 0.929816,-2.387978 1.394888,-2.636877 0.206218,-0.110364 0.283475,-0.316846 0.169799,-0.453818 -0.106365,-0.128163 -0.246954,-0.1267 -0.783798,0.0082 -0.339714,0.08533 -0.500393,0.174119 -0.742738,0.410413 -0.486087,0.473945 -0.593086,0.608473 -0.6906,0.868278 -0.05013,0.133555 -0.149102,0.340765 -0.219944,0.460465 -0.185813,0.313965 -0.335806,1.514209 -0.380305,3.043175 -0.03308,1.13661 -0.01859,1.431925 0.105109,2.143744 0.105919,0.609464 0.189464,0.891907 0.319192,1.079103 0.09664,0.139461 0.175718,0.29082 0.175718,0.336358 0,0.04553 0.109273,0.203745 0.242827,0.351573 0.270556,0.299476 0.306627,0.465191 0.114529,0.526159 -0.132911,0.04218 -1.564576,-0.13623 -1.68364,-0.209814 -0.03708,-0.02293 -0.385971,-0.09888 -0.775321,-0.168814 C 10.050699,44.304689 9.8187907,44.23147 9.7699885,44.148456 9.7317295,44.083386 9.6354821,43.931158 9.5560863,43.810165 9.476638,43.689159 9.3763126,43.488718 9.3330896,43.36473 9.2898656,43.24074 9.1950494,43.054818 9.1223874,42.951569 9.0497146,42.848326 8.9425727,42.607742 8.8842739,42.416951 8.8259702,42.226159 8.714889,41.913954 8.637418,41.723161 8.4431856,41.244818 8.2087393,39.944355 8.2087393,39.345304 c 0,-0.662788 0.2297005,-1.605419 0.5363791,-2.201158 C 9.0637663,36.525155 9.2038772,36.334509 9.6308083,35.938992 10.536874,35.0996 10.597729,35.028206 10.492899,34.927655 10.431811,34.869059 10.066962,34.802179 9.5358441,34.752214 9.0637595,34.707802 8.4861792,34.613168 8.2523318,34.541921 8.0184843,34.470679 7.6022079,34.381954 7.3272748,34.344765 6.7526505,34.26704 6.6393384,34.20206 6.2973129,33.754123 5.6323932,32.883305 5.3429314,31.858355 5.334522,30.344999 5.328492,29.262906 5.5380955,28.01489 5.8125007,27.498805 c 0.096861,-0.182169 0.1761096,-0.384797 0.1761096,-0.450284 0,-0.06549 0.05803,-0.193526 0.1289486,-0.284528 0.070921,-0.09101 0.1840874,-0.274731 0.2514807,-0.408285 0.1587837,-0.314669 0.9040347,-1.027515 1.2126487,-1.159923 0.2026928,-0.08696 0.5213248,-0.0951 2.0410944,-0.05214 0.9904993,0.028 1.8794393,0.07191 1.9754213,0.09759 0.253543,0.06781 0.257952,0.188458 0.01155,0.315881 -0.415735,0.214984 -0.893235,0.628379 -1.122785,0.972049 -0.127437,0.190792 -0.340939,0.6591 -0.47445,1.040686 l -0.2427455,0.693789 0.00146,1.769166 c 0.00127,1.629694 0.013104,1.80198 0.1498562,2.185439 0.081648,0.228949 0.1855093,0.556766 0.2307923,0.728479 0.20694,0.784703 0.958123,1.611438 1.733324,1.907661 0.655528,0.250489 0.769166,0.203196 0.489266,-0.203625 -0.117075,-0.170157 -0.245463,-0.329526 -0.285309,-0.354154 -0.12092,-0.07474 -0.688925,-0.885574 -0.688925,-0.983456 0,-0.05031 -0.08106,-0.246491 -0.180136,-0.435968 -0.179181,-0.342679 -0.303723,-1.015628 -0.411132,-2.221509 -0.07292,-0.818567 0.135373,-2.409024 0.395029,-3.016445 0.364205,-0.852008 0.645111,-1.275118 1.033204,-1.556251 0.153856,-0.111454 0.342951,-0.283005 0.420212,-0.381224 0.07725,-0.09822 0.179071,-0.178585 0.226247,-0.178585 0.04718,0 0.140413,-0.03995 0.207194,-0.08879 0.159104,-0.11634 0.06343,-0.384992 -0.251088,-0.705158 -0.335137,-0.341138 -0.523433,-0.61585 -0.577388,-0.842376 -0.0265,-0.111223 -0.126734,-0.389547 -0.22276,-0.618498 -0.154866,-0.36924 -0.177869,-0.537777 -0.203594,-1.491649 -0.03069,-1.138149 -0.01204,-1.258193 0.346686,-2.2298 0.242156,-0.655906 0.647988,-1.162077 1.280778,-1.597448 0.302169,-0.207897 0.357995,-0.219943 1.281508,-0.276508 0.987862,-0.0605 1.234255,-0.02355 1.234255,0.185113 0,0.05526 -0.148297,0.17568 -0.329551,0.267615 -0.420399,0.213238 -0.712355,0.579465 -1.039998,1.304562 l -0.260858,0.5773 0,1.595718 c 0,1.589918 6.94e-4,1.597286 0.190792,2.027246 0.104936,0.237341 0.190868,0.471495 0.190956,0.520342 2.8e-4,0.151885 0.545147,0.899731 0.838416,1.150759 0.247858,0.212156 1.146322,0.568421 1.433582,0.568454 0.193722,1.9e-5 0.06067,-0.225705 -0.416273,-0.706216 -0.668218,-0.673219 -0.922578,-1.177097 -1.096942,-2.173005 -0.07349,-0.419743 -0.133174,-0.950492 -0.132637,-1.179443 0.0014,-0.640744 0.250251,-2.023999 0.402964,-2.240865 0.07257,-0.103076 0.154095,-0.258651 0.181141,-0.345739 0.05153,-0.165905 0.117518,-0.244371 0.8417,-1.000846 0.245042,-0.255967 0.44553,-0.512332 0.44553,-0.569702 0,-0.165156 0.412793,-0.235685 1.873234,-0.320055 1.303238,-0.0753 2.474685,-0.161221 5.064669,-0.371518 0.667772,-0.05422 1.854153,-0.135045 2.636402,-0.179609 0.782248,-0.04456 1.578373,-0.116694 1.769164,-0.160292 0.467919,-0.10692 3.701524,-0.107999 4.16274,-0.0014 0.190793,0.04409 1.033748,0.116946 1.873233,0.161877 0.839487,0.04493 2.0727,0.124632 2.740472,0.177116 0.667772,0.05249 1.900985,0.143884 2.740471,0.203109 0.839487,0.05923 2.135139,0.153598 2.879228,0.209715 0.744093,0.0561 2.039744,0.149556 2.879231,0.207643 4.267699,0.295295 6.208262,0.460884 6.330835,0.540217 0.04769,0.03086 0.08672,0.16481 0.08672,0.297644 0,0.188788 -0.05792,0.29771 -0.265297,0.498902 -0.145912,0.141564 -0.382155,0.405686 -0.524987,0.586938 l -0.259691,0.329552 -9.391696,0 c -5.778452,0 -9.45854,0.02541 -9.565442,0.06604 -0.318551,0.121113 -0.391181,0.473262 -0.124784,0.605023 0.06382,0.03156 4.308554,0.07301 9.432727,0.0921 8.180605,0.03047 9.324696,0.04737 9.382448,0.138759 0.08355,0.132184 0.08306,0.185425 -0.0045,0.500657 -0.14264,0.513593 0.69586,0.470315 -9.17733,0.473673 -4.891096,0.0017 -9.216546,0.02983 -9.61211,0.06259 -0.740515,0.06132 -0.956393,0.152171 -0.873696,0.367675 0.130638,0.340434 0.377961,0.350067 10.09853,0.393325 7.592185,0.03378 9.149361,0.05667 9.244755,0.13585 0.179319,0.148843 0.152593,0.642868 -0.04482,0.828322 l -0.159528,0.149868 -7.003855,0.03193 c -3.852121,0.01755 -8.082418,0.05701 -9.400662,0.0877 -2.140002,0.04981 -2.41736,0.06927 -2.588675,0.181623 -0.227751,0.149369 -0.210702,0.253336 0.06469,0.394508 0.176514,0.09048 1.434699,0.108597 9.638561,0.13876 5.18955,0.01908 9.489937,0.06135 9.556414,0.09393 0.06648,0.03258 0.167906,0.217643 0.225397,0.411236 0.09335,0.314321 0.09323,0.369234 -0.0011,0.513131 l -0.105583,0.161139 -9.358894,0 c -5.147392,0 -9.408277,0.01896 -9.468636,0.04212 -0.11354,0.04358 -0.146016,0.281966 -0.05665,0.41581 0.15579,0.233317 0.264254,0.235869 10.029303,0.235869 9.193884,0 9.682877,0.0061 9.82863,0.1242 0.295177,0.23902 0.139497,0.940036 -0.225612,1.015924 -0.08537,0.01775 -0.563173,0.04416 -1.06178,0.05868 -1.153542,0.03363 -1.350607,0.116588 -1.684375,0.709105 -0.12897,0.228952 -0.266739,0.509936 -0.306151,0.624411 -0.03941,0.114476 -0.102171,0.247163 -0.139467,0.294862 -0.05368,0.06867 -2.147554,0.08672 -10.054454,0.08672 -6.751368,0 -10.030118,0.02328 -10.120839,0.07182 -0.139514,0.07465 -0.182222,0.306585 -0.06931,0.376367 0.03569,0.02205 4.513088,0.03924 9.949779,0.03817 6.652143,-0.0014 9.946687,0.02157 10.073841,0.06991 0.187052,0.0711 0.188467,0.07651 0.141218,0.537705 -0.0341,0.332852 -0.08976,0.510605 -0.194932,0.622557 l -0.147202,0.15669 -10.242126,0 c -7.873592,0 -10.261376,0.01926 -10.325379,0.08326 -0.119096,0.119096 -0.102723,0.369246 0.03145,0.480628 0.09567,0.07942 1.822733,0.100976 10.404394,0.129908 9.421354,0.03175 10.299298,0.0443 10.403601,0.148624 0.150405,0.150431 0.224004,0.984433 0.100051,1.133785 -0.07725,0.09309 -1.231548,0.10517 -10.041346,0.10517 -8.930138,0 -9.994411,0.01146 -10.346322,0.111401 -0.485342,0.137836 -0.62631,0.252328 -0.499221,0.405461 0.07991,0.09627 1.179861,0.10755 10.489844,0.10755 11.433563,0 10.819963,-0.02312 10.915424,0.411501 0.02613,0.11893 0.118252,0.301343 0.204734,0.405363 0.203196,0.244401 0.243081,0.368971 0.166081,0.518682 -0.05905,0.114822 -0.632652,0.121414 -10.565969,0.121414 -9.456152,0 -10.514396,0.01087 -10.612547,0.109022 -0.121262,0.121263 -0.130563,0.167743 -0.05593,0.279519 0.184351,0.276092 -0.07988,0.269064 11.47195,0.305247 l 11.074086,0.0347 0.311407,0.287064 c 0.520534,0.479838 0.465353,0.468601 2.44749,0.498422 0.992119,0.01493 1.85849,0.05614 1.925267,0.09158 0.207486,0.11012 0.136836,0.339337 -0.208136,0.675264 -0.181254,0.1765 -0.450389,0.469207 -0.59808,0.650457 l -0.268529,0.329551 -11.989256,0 c -10.963512,0 -11.998882,0.0096 -12.101748,0.112491 -0.156636,0.156635 -0.105945,0.318861 0.138116,0.442013 0.181442,0.09157 1.662459,0.108922 11.87685,0.139286 8.712871,0.0259 11.689927,0.05506 11.749945,0.115085 0.122684,0.122697 0.01322,0.884878 -0.158415,1.103083 L 53.4955,40.657495 41.290058,40.640815 c -12.106991,-0.01654 -12.206556,-0.01557 -12.343614,0.12149 -0.113109,0.113109 -0.125489,0.171536 -0.06824,0.322097 0.03949,0.103888 0.138926,0.198444 0.228484,0.217291 0.0872,0.01835 5.598939,0.0468 12.248293,0.06319 8.720021,0.02151 12.115611,0.0513 12.18257,0.106869 0.117541,0.09755 0.285148,1.420739 0.199377,1.574003 -0.05578,0.09969 -1.211973,0.111135 -12.339017,0.122183 -11.625002,0.01154 -12.287442,0.01872 -12.465235,0.135202 -0.103275,0.06766 -0.187774,0.180912 -0.187774,0.251678 0,0.33376 -0.592351,0.317996 12.616121,0.335743 7.013631,0.0094 12.413157,0.04313 12.447725,0.07769 0.07925,0.07924 0.465494,1.188494 0.466704,1.340321 4.86e-4,0.06406 -0.04812,0.165519 -0.108095,0.225482 -0.09821,0.09821 -1.218206,0.109034 -11.291436,0.109132 -10.507162,6.8e-5 -11.197075,0.0074 -11.425236,0.121412 -0.299377,0.149556 -0.35648,0.383896 -0.125626,0.51554 0.130191,0.07425 2.329893,0.09794 11.70608,0.126108 l 11.545764,0.03468 0.225586,0.312205 c 0.297283,0.411437 0.3646,0.687813 0.197319,0.810133 -0.06904,0.0505 -0.174206,0.08425 -0.23369,0.07503 -0.0595,-0.0092 -5.540531,-0.03263 -12.180102,-0.05204 z M 20.041963,36.27027 c 0.02585,-0.0418 -0.04256,-0.159557 -0.152009,-0.261663 -0.410798,-0.38326 -0.996847,-1.074362 -0.996847,-1.17554 0,-0.05775 -0.08083,-0.242917 -0.179614,-0.411488 -0.192602,-0.328649 -0.472733,-1.560463 -0.548404,-2.411482 -0.0855,-0.961548 0.216915,-2.649738 0.621252,-3.468052 0.24886,-0.503654 0.775258,-1.131698 1.147451,-1.369025 0.144456,-0.09212 0.160367,-0.131972 0.09519,-0.238473 -0.119871,-0.195863 -0.931335,-0.172981 -1.190371,0.03357 -0.103586,0.08259 -0.305406,0.213377 -0.448499,0.290633 -0.143094,0.07725 -0.260172,0.168098 -0.260172,0.20187 0,0.03378 -0.109272,0.192195 -0.242827,0.352049 -0.133554,0.159856 -0.242826,0.33556 -0.242826,0.390456 0,0.0549 -0.07823,0.254204 -0.17386,0.442905 -0.42068,0.830174 -0.424561,4.393816 -0.0059,5.400411 0.08965,0.215559 0.184487,0.462149 0.210729,0.547981 0.07058,0.230859 0.503261,0.854874 0.755135,1.089074 0.241693,0.224734 1.171826,0.660604 1.412568,0.661944 0.0836,4.86e-4 0.17315,-0.03335 0.198989,-0.07516 z m 3.312594,-10.028261 c 0.04828,-0.04828 -0.122206,-0.27056 -0.654995,-0.853952 -0.51516,-0.564085 -0.803326,-1.204236 -0.965111,-2.143956 -0.169827,-0.986436 -0.169928,-1.434791 -5.55e-4,-2.438716 0.173305,-1.027224 0.443987,-1.58212 1.115113,-2.285964 0.268559,-0.28165 0.477146,-0.545967 0.463526,-0.587368 -0.01363,-0.04139 -0.18014,-0.0845 -0.370045,-0.09577 -0.522156,-0.03102 -1.158541,0.27761 -1.562466,0.757716 -0.729964,0.867642 -0.941491,1.774065 -0.864156,3.703041 0.04909,1.2245 0.07555,1.371046 0.377779,2.091653 0.386854,0.922411 0.852239,1.394796 1.695342,1.720845 0.439055,0.169792 0.685594,0.212455 0.765571,0.132478 z"
     id="path3014"
     style="fill:#ffffff" />
</svg>
