<?xml version="1.0" encoding="UTF-8" standalone="no"?>
<!-- Created with Inkscape (http://www.inkscape.org/) -->

<svg
   xmlns:dc="http://purl.org/dc/elements/1.1/"
   xmlns:cc="http://creativecommons.org/ns#"
   xmlns:rdf="http://www.w3.org/1999/02/22-rdf-syntax-ns#"
   xmlns:svg="http://www.w3.org/2000/svg"
   xmlns="http://www.w3.org/2000/svg"
   version="1.1"
   width="64.181816"
   height="64.181816"
   id="svg2985">
  <defs
     id="defs2987" />
  <metadata
     id="metadata2990">
    <rdf:RDF>
      <cc:Work
         rdf:about="">
        <dc:format>image/svg+xml</dc:format>
        <dc:type
           rdf:resource="http://purl.org/dc/dcmitype/StillImage" />
        <dc:title></dc:title>
      </cc:Work>
    </rdf:RDF>
  </metadata>
  <path
     d="m 64.181816,32.090908 a 32.090908,32.090908 0 0 1 -64.181816,0 32.090908,32.090908 0 1 1 64.181816,0 z"
     id="path3008"
     style="fill:#b70101;fill-opacity:1;stroke:none" />
  <path
     d=""
     id="path3850"
     style="fill:#000000" />
  <path
     d=""
     id="path3848"
     style="fill:#000000" />
  <path
     d=""
     id="path3846"
     style="fill:#000000" />
  <path
     d=""
     id="path3874"
     style="fill:#000000" />
  <path
     d="m 16.567801,56.38764 c -1.332157,-0.04387 -1.400353,-0.07362 -1.831393,-0.798784 l -0.263935,-0.444034 -0.02414,-1.770073 c -0.0225,-1.649365 0.05839,-3.087947 0.213878,-3.803776 0.03599,-0.165709 0.1171,-0.962242 0.180234,-1.770074 0.06313,-0.807831 0.182325,-1.807734 0.264872,-2.222006 0.08255,-0.414273 0.18527,-1.176911 0.228276,-1.694752 0.04301,-0.51784 0.128415,-1.127951 0.189797,-1.355801 0.09748,-0.36183 0.152528,-0.794276 0.298543,-2.345218 0.03979,-0.422688 0.426833,-1.055778 0.845442,-1.382916 0.729077,-0.569765 0.956572,-0.731352 1.142981,-0.811844 0.110149,-0.04756 0.296084,-0.164062 0.413188,-0.258885 0.117102,-0.09483 0.256495,-0.172408 0.309762,-0.172408 0.05326,0 0.2248,-0.101685 0.381189,-0.225967 0.156388,-0.124281 0.325953,-0.225967 0.376811,-0.225967 0.05086,0 0.186844,-0.07424 0.302192,-0.164968 0.255677,-0.201116 1.195315,-0.687044 1.563507,-0.808559 0.147805,-0.04878 0.309291,-0.137556 0.358858,-0.197281 0.04957,-0.05972 0.227916,-0.145693 0.396332,-0.191043 0.168416,-0.04535 0.426549,-0.164226 0.573628,-0.264169 0.147079,-0.09994 0.318865,-0.181741 0.381746,-0.181774 0.06288,-3.3e-5 0.329216,-0.101717 0.591857,-0.225967 0.730842,-0.345745 1.079197,-0.30635 1.225007,0.138534 0.04972,0.151689 0.169988,0.380683 0.267272,0.508875 0.09728,0.128192 0.176879,0.284464 0.176879,0.347269 0,0.06281 0.08209,0.235167 0.182432,0.383022 0.100337,0.147856 0.253319,0.415273 0.33996,0.59426 0.08664,0.178986 0.206372,0.410167 0.266069,0.513735 0.0597,0.103568 0.166315,0.306938 0.236928,0.451934 0.175167,0.359676 0.515709,1.000518 0.820535,1.544107 0.139388,0.248563 0.30727,0.570566 0.373075,0.715561 0.0658,0.144996 0.153315,0.314471 0.194469,0.376612 0.04115,0.06214 0.172708,0.320847 0.292345,0.574902 0.119634,0.254057 0.252144,0.48332 0.294463,0.509475 0.04232,0.02615 0.118225,0.174189 0.168676,0.328965 0.05045,0.154775 0.168685,0.373808 0.262742,0.486742 0.09406,0.112932 0.19344,0.307439 0.22085,0.432239 0.02741,0.124799 0.08433,0.248223 0.126484,0.274277 0.04215,0.02605 0.171923,0.259727 0.288375,0.519275 0.116451,0.259547 0.246355,0.493304 0.288674,0.51946 0.04232,0.02615 0.11749,0.174189 0.167042,0.328964 0.04955,0.154776 0.153028,0.350658 0.229945,0.435294 0.07692,0.08464 0.179946,0.27106 0.22895,0.414273 0.049,0.143214 0.168319,0.378415 0.265144,0.52267 0.09683,0.144256 0.176046,0.300527 0.176046,0.347271 0,0.04674 0.08944,0.216787 0.19876,0.377877 0.109318,0.161089 0.233586,0.394611 0.276149,0.518936 0.04256,0.124326 0.152297,0.327732 0.243851,0.452013 0.09155,0.124282 0.205247,0.347212 0.25265,0.495402 0.0942,0.294473 0.4683,0.620669 0.667767,0.582256 0.06914,-0.01331 0.173888,-0.125657 0.232763,-0.249646 0.05887,-0.123988 0.158361,-0.327118 0.221083,-0.4514 0.06272,-0.124282 0.161316,-0.327652 0.219098,-0.451934 0.05778,-0.124282 0.153755,-0.310704 0.213273,-0.414272 0.05952,-0.103569 0.159932,-0.306939 0.223142,-0.451934 0.06321,-0.144996 0.16504,-0.348365 0.226291,-0.451934 0.06125,-0.103568 0.181122,-0.340834 0.266381,-0.527256 0.08526,-0.186422 0.187998,-0.389793 0.228308,-0.451934 0.04031,-0.06214 0.173778,-0.316354 0.296598,-0.564917 0.12282,-0.248564 0.255102,-0.502776 0.293962,-0.564917 0.03886,-0.06214 0.136099,-0.248563 0.216089,-0.414272 0.07999,-0.16571 0.202868,-0.419922 0.27306,-0.564918 0.07019,-0.144995 0.176319,-0.348365 0.235838,-0.451933 0.05952,-0.103569 0.159931,-0.306939 0.223141,-0.451934 0.06321,-0.144996 0.165041,-0.348365 0.226291,-0.451934 0.06125,-0.103568 0.181122,-0.340833 0.266382,-0.527256 0.08526,-0.186422 0.187998,-0.389793 0.228307,-0.451933 0.04031,-0.06214 0.173779,-0.316354 0.296598,-0.564918 0.12282,-0.248563 0.255103,-0.502776 0.293962,-0.564917 0.03886,-0.06214 0.1361,-0.248563 0.21609,-0.414272 0.07999,-0.165709 0.202867,-0.419922 0.27306,-0.564918 0.07019,-0.144995 0.176319,-0.348365 0.235837,-0.451933 0.05952,-0.103568 0.160557,-0.306939 0.224531,-0.451934 0.06397,-0.144995 0.165984,-0.348365 0.226692,-0.451934 0.09424,-0.160777 0.844316,-1.6261 1.151192,-2.248937 0.05394,-0.10947 0.125261,-0.249624 0.158496,-0.311453 0.177448,-0.33011 0.99003,-0.226829 1.881895,0.239196 0.223324,0.116695 0.443642,0.213114 0.489595,0.214266 0.04595,0.0011 0.216693,0.102838 0.379426,0.225967 0.162732,0.123129 0.327732,0.223871 0.366667,0.223871 0.03893,0 0.180418,0.09321 0.314405,0.207137 0.229827,0.195413 0.460891,0.348001 0.953643,0.629752 0.116704,0.06673 0.431836,0.303996 0.700296,0.527257 0.268459,0.22326 0.646957,0.52456 0.841105,0.669556 1.184867,0.88489 2.318592,2.000275 2.449946,2.410313 0.04644,0.144996 0.149258,0.371135 0.228464,0.502534 0.07921,0.131398 0.19306,0.495259 0.253008,0.80858 0.05995,0.313321 0.161578,0.695519 0.225845,0.84933 0.06426,0.153811 0.164112,0.637325 0.221879,1.074477 0.05776,0.437152 0.172632,1.049034 0.255255,1.359738 0.08262,0.310705 0.172476,0.920815 0.199673,1.355801 0.0272,0.434987 0.116557,1.129835 0.198575,1.544107 0.08202,0.414273 0.196039,1.397229 0.25338,2.184347 0.05734,0.787117 0.160389,1.939549 0.228997,2.560957 0.147139,1.332685 0.111437,2.172273 -0.117082,2.753366 -0.200844,0.510718 -0.316292,0.640075 -0.789638,0.884765 -0.368274,0.190374 -0.422467,0.195964 -2.447974,0.252519 -2.363526,0.06599 -28.140953,0.121011 -29.878982,0.06377 z M 31.081037,35.072464 c -0.269277,-0.03456 -0.59049,-0.101856 -0.713807,-0.149546 -0.123316,-0.04769 -0.461508,-0.136624 -0.751536,-0.197633 -0.290029,-0.06101 -0.598325,-0.157447 -0.685102,-0.214305 -0.08678,-0.05686 -0.307853,-0.147052 -0.491281,-0.20043 -0.183427,-0.05338 -0.43519,-0.171175 -0.559471,-0.26177 -0.124282,-0.0906 -0.327652,-0.216937 -0.451934,-0.280761 C 27.09712,33.59815 25.813382,32.432202 25.507188,32.02354 25.362192,31.830022 25.15313,31.562527 25.042604,31.429109 24.80057,31.13694 23.972194,29.551306 23.895802,29.233956 c -0.02991,-0.124281 -0.134066,-0.429336 -0.231441,-0.6779 -0.236547,-0.603822 -0.441583,-2.769222 -0.36017,-3.803776 0.05462,-0.694062 0.06209,-0.716234 0.248598,-0.737962 0.125065,-0.01457 0.293261,0.05784 0.481122,0.207137 0.158859,0.126245 0.332416,0.229537 0.385682,0.229537 0.05326,0 0.194175,0.0819 0.313133,0.181992 0.118956,0.100096 0.350348,0.206403 0.514203,0.236237 0.163856,0.02984 0.451037,0.130937 0.638182,0.224672 0.187143,0.09373 0.543041,0.193389 0.790883,0.221456 0.247843,0.02806 0.620098,0.09576 0.827234,0.150426 1.071456,0.282785 1.393242,0.303357 4.745304,0.303357 3.349028,0 3.787101,-0.02808 4.707643,-0.301781 0.186423,-0.05543 0.53069,-0.122405 0.765039,-0.148839 0.234349,-0.02643 0.556352,-0.114641 0.715561,-0.196014 0.15921,-0.08137 0.425054,-0.184293 0.590763,-0.228708 0.320591,-0.08593 0.69953,-0.304241 1.326671,-0.764317 0.608514,-0.446414 0.613222,-0.433117 0.579207,1.635739 -0.02319,1.410112 -0.05207,1.789445 -0.153756,2.01903 -0.06886,0.155485 -0.166015,0.494435 -0.215892,0.753223 -0.04988,0.258788 -0.187142,0.653245 -0.305033,0.87657 -0.11789,0.223324 -0.214963,0.46059 -0.215717,0.527256 -7.54e-4,0.06667 -0.10244,0.270365 -0.225967,0.452665 -0.123528,0.1823 -0.224596,0.364248 -0.224596,0.404329 0,0.04008 -0.09321,0.181644 -0.207137,0.314586 -0.113924,0.132941 -0.308821,0.371571 -0.433102,0.53029 -0.566928,0.724015 -2.078096,2.147794 -2.279622,2.147794 -0.03999,0 -0.163982,0.07179 -0.275531,0.159535 -0.111548,0.08774 -0.378805,0.226148 -0.593905,0.307565 -0.2151,0.08142 -0.443514,0.195066 -0.50759,0.252552 -0.06407,0.05749 -0.352181,0.154466 -0.640239,0.21551 -0.288056,0.06104 -0.676267,0.168374 -0.86269,0.238513 -0.393323,0.147984 -1.924392,0.208871 -2.711602,0.107834 z m 0.05881,-11.03971 c -0.02669,-0.02669 -0.702,-0.08031 -1.5007,-0.119175 -0.798701,-0.03886 -1.656865,-0.116879 -1.90703,-0.173373 -0.250167,-0.05649 -0.742957,-0.161003 -1.095088,-0.232245 -0.352132,-0.07124 -0.860557,-0.209484 -1.129834,-0.307208 -0.269278,-0.09772 -0.625175,-0.199916 -0.790884,-0.227093 -0.16571,-0.02718 -0.43687,-0.125824 -0.602579,-0.219213 -0.165708,-0.09339 -0.419922,-0.207737 -0.564916,-0.254108 -0.144996,-0.04637 -0.404982,-0.219588 -0.577748,-0.384924 -0.286936,-0.274598 -0.318676,-0.343162 -0.366775,-0.7923 -0.02896,-0.270428 -0.03899,-1.578972 -0.0223,-2.907874 0.0279,-2.220586 0.04135,-2.424222 0.166121,-2.515462 0.177831,-0.130032 0.591969,-0.06787 1.033162,0.155069 0.189991,0.09601 0.478099,0.198704 0.640239,0.228217 0.16214,0.02951 0.447327,0.12956 0.63375,0.222327 0.186423,0.09277 0.512903,0.205563 0.725511,0.250658 0.212609,0.0451 0.500716,0.147669 0.64024,0.227944 0.139523,0.08027 0.432588,0.183022 0.651256,0.228328 0.218668,0.0453 0.473297,0.131992 0.565844,0.192631 0.09255,0.06064 0.400236,0.164049 0.683753,0.229801 0.283518,0.06576 0.588573,0.167438 0.677901,0.225967 0.08933,0.05853 0.394383,0.160215 0.6779,0.225967 0.283518,0.06576 0.588324,0.167274 0.677346,0.225604 0.08902,0.05833 0.373605,0.15545 0.632407,0.215824 0.258802,0.06038 0.616162,0.180262 0.794133,0.266417 0.177971,0.08615 0.481237,0.178253 0.673923,0.204664 0.296783,0.04068 0.425042,0.01199 0.839009,-0.187662 0.268769,-0.129625 0.534038,-0.235682 0.589487,-0.235682 0.05545,0 0.303323,-0.100621 0.550832,-0.223603 0.247509,-0.122982 0.501722,-0.224667 0.564918,-0.225967 0.0632,-0.0013 0.317408,-0.102984 0.564916,-0.225967 0.247509,-0.122981 0.501364,-0.224667 0.564122,-0.225967 0.06276,-0.0013 0.31697,-0.09988 0.564917,-0.219064 0.247946,-0.119186 0.634254,-0.259464 0.85846,-0.31173 0.551143,-0.12848 0.609203,-0.04556 0.609203,0.870104 0,0.605684 -0.0193,0.706932 -0.158787,0.832979 -0.295649,0.267167 -0.536753,0.870076 -0.644687,1.612122 -0.05725,0.393642 -0.160958,0.877131 -0.230445,1.07442 -0.114508,0.325108 -0.115326,0.369724 -0.0087,0.476307 0.188896,0.188896 0.633455,0.253445 1.758722,0.255361 1.722811,0.003 1.920405,-0.135242 1.518911,-1.062172 -0.09644,-0.222649 -0.217373,-0.599134 -0.268743,-0.836634 -0.05137,-0.2375 -0.122401,-0.449743 -0.157848,-0.47165 -0.03545,-0.02191 -0.118789,-0.203434 -0.185204,-0.403394 -0.06642,-0.199959 -0.221536,-0.460115 -0.34471,-0.578123 l -0.223953,-0.214561 0,-1.045372 c 0,-1.075967 0.0568,-1.336758 0.291173,-1.336758 0.07438,0 0.301975,-0.08521 0.505776,-0.189367 0.2038,-0.104152 0.549126,-0.236679 0.767392,-0.294505 0.663151,-0.175692 0.631669,-0.333588 0.605201,3.035407 l -0.02286,2.909331 -0.225967,0.317358 c -0.124281,0.174547 -0.316871,0.355653 -0.427978,0.402458 -0.111106,0.0468 -0.309306,0.164259 -0.440444,0.261009 -0.131137,0.09675 -0.375532,0.199073 -0.5431,0.227383 -0.167568,0.02831 -0.477793,0.132087 -0.689391,0.230611 -0.211597,0.09853 -0.448145,0.17947 -0.525663,0.179875 -0.07752,3.76e-4 -0.573269,0.102399 -1.101668,0.226653 -0.745563,0.175323 -1.287545,0.24537 -2.420015,0.312771 -1.870595,0.111332 -3.786142,0.159905 -3.848462,0.09759 z m 1.201964,-6.291972 c -0.07299,-0.04249 -0.373347,-0.127445 -0.667476,-0.188773 -0.294129,-0.06133 -0.658105,-0.173992 -0.808833,-0.250365 -0.15073,-0.07637 -0.426581,-0.163124 -0.613004,-0.19278 -0.186422,-0.02965 -0.525372,-0.134697 -0.753222,-0.233428 -0.22785,-0.09873 -0.572542,-0.21364 -0.765983,-0.255356 -0.193444,-0.04172 -0.464604,-0.140779 -0.602582,-0.22014 -0.137976,-0.07936 -0.436848,-0.18288 -0.664159,-0.230041 -0.227312,-0.04716 -0.489304,-0.135553 -0.582207,-0.196424 -0.0929,-0.06087 -0.39352,-0.162767 -0.668038,-0.226432 -0.274519,-0.06367 -0.578153,-0.167536 -0.674743,-0.230824 -0.09659,-0.06329 -0.38941,-0.164944 -0.65071,-0.225902 -0.261301,-0.06096 -0.547208,-0.158082 -0.635349,-0.215835 -0.08814,-0.05775 -0.374383,-0.16049 -0.636093,-0.228306 -0.26171,-0.06782 -0.596502,-0.183492 -0.743982,-0.257058 -0.14748,-0.07357 -0.42721,-0.172654 -0.621622,-0.220196 -0.194413,-0.04754 -0.465573,-0.151745 -0.602579,-0.231561 -0.137006,-0.07982 -0.384682,-0.169176 -0.550391,-0.198576 -0.165709,-0.0294 -0.453817,-0.128529 -0.640239,-0.220286 -0.186423,-0.09176 -0.498015,-0.205769 -0.692427,-0.253358 -0.194412,-0.04759 -0.465572,-0.150146 -0.602578,-0.227903 -0.137006,-0.07776 -0.40844,-0.179511 -0.603186,-0.22612 -0.194747,-0.04661 -0.513324,-0.169412 -0.70795,-0.272896 -0.194626,-0.103484 -0.420466,-0.188152 -0.501866,-0.188152 -0.0814,0 -0.271249,-0.06638 -0.421886,-0.147503 -0.150635,-0.08113 -0.400989,-0.19803 -0.556341,-0.259785 -0.155352,-0.06175 -0.282458,-0.149635 -0.282458,-0.19529 0,-0.04565 0.127106,-0.133536 0.282458,-0.19529 0.155352,-0.06175 0.405706,-0.178658 0.556341,-0.259785 0.150637,-0.08113 0.337059,-0.14753 0.414273,-0.147563 0.07721,-3.2e-5 0.347167,-0.09788 0.599895,-0.217444 0.252728,-0.119561 0.608626,-0.242229 0.790885,-0.272595 0.182257,-0.03036 0.457364,-0.119056 0.611348,-0.19709 0.153983,-0.07803 0.459039,-0.177746 0.677901,-0.221582 0.218861,-0.04384 0.584352,-0.159097 0.812202,-0.256135 0.22785,-0.09704 0.5668,-0.2006981 0.753223,-0.2303531 0.186423,-0.02965 0.464937,-0.117763 0.618921,-0.195797 0.153983,-0.07803 0.459039,-0.177746 0.677901,-0.2215819 0.218861,-0.043836 0.584352,-0.1587108 0.812202,-0.2552774 0.22785,-0.096566 0.583747,-0.1994126 0.790884,-0.2285469 0.207136,-0.029134 0.563034,-0.1302618 0.790884,-0.2247278 0.22785,-0.094466 0.582952,-0.1961298 0.789116,-0.2259195 0.206164,-0.02979 0.496115,-0.1160312 0.644334,-0.1916475 0.148222,-0.075616 0.487967,-0.1761761 0.754991,-0.2234662 0.267025,-0.04729 0.68887,-0.1657537 0.937434,-0.2632528 0.248563,-0.097499 0.621408,-0.201535 0.828545,-0.2311914 0.207136,-0.029657 0.503346,-0.1177562 0.658245,-0.1957773 0.154898,-0.078021 0.533876,-0.1901186 0.842173,-0.2491055 0.308296,-0.058987 0.657263,-0.1572668 0.775481,-0.2183996 0.422793,-0.2186344 0.719114,-0.2246621 1.19555,-0.024319 0.24492,0.1029894 0.639362,0.223057 0.876538,0.2668168 0.237174,0.04376 0.536098,0.1337938 0.664272,0.2000754 0.128174,0.066281 0.485288,0.1687739 0.793584,0.2277609 0.308297,0.058987 0.687275,0.1710844 0.842173,0.2491055 0.154899,0.078021 0.451109,0.1665077 0.658245,0.1966368 0.207136,0.030129 0.567006,0.1348029 0.799709,0.2326084 0.232703,0.097806 0.635047,0.2119618 0.894097,0.2536806 0.25905,0.041719 0.553496,0.1299062 0.654326,0.1959719 0.100828,0.066066 0.434237,0.1681269 0.740908,0.2268027 0.306671,0.058676 0.683369,0.1741001 0.837106,0.2564985 0.153737,0.082399 0.434836,0.1724796 0.624663,0.2001803 0.189827,0.027701 0.497667,0.126508 0.68409,0.219572 0.186423,0.09306 0.491478,0.193281 0.6779,0.222705 0.186423,0.02942 0.513078,0.1315841 0.725898,0.2270251 0.212822,0.09544 0.534825,0.198008 0.715563,0.227927 0.180737,0.02992 0.464193,0.119435 0.629902,0.198922 0.16571,0.07949 0.487712,0.193674 0.715562,0.253749 0.22785,0.06007 0.581019,0.194503 0.784819,0.298729 0.2038,0.104226 0.445785,0.189502 0.537742,0.189502 0.280676,0 0.51599,0.243574 0.458111,0.474188 -0.03869,0.154137 -0.120763,0.21743 -0.368446,0.284124 -0.17527,0.04719 -0.410523,0.151213 -0.522786,0.231151 -0.112263,0.07994 -0.361518,0.192714 -0.5539,0.250613 -0.192381,0.0579 -0.405896,0.154513 -0.474476,0.214699 -0.06858,0.06019 -0.315154,0.163881 -0.547941,0.230434 -0.232787,0.06655 -0.462222,0.167966 -0.509857,0.225361 -0.04763,0.0574 -0.246964,0.148546 -0.442956,0.202555 -0.195993,0.05401 -0.474983,0.173768 -0.619978,0.26613 -0.144996,0.09236 -0.382261,0.19219 -0.527257,0.221843 -0.144995,0.02965 -0.348676,0.113985 -0.452624,0.187405 -0.103948,0.07342 -0.340902,0.174396 -0.526565,0.224389 -0.185663,0.04999 -0.432786,0.158699 -0.549162,0.241566 -0.116377,0.08287 -0.382784,0.195827 -0.592013,0.251021 -0.209231,0.05519 -0.436327,0.150723 -0.504659,0.212287 -0.29137,0.26251 -0.476218,0.227242 -1.143776,-0.218227 -0.350655,-0.233997 -0.756187,-0.491209 -0.901182,-0.571581 -0.144995,-0.08037 -0.416155,-0.245577 -0.602578,-0.367117 -0.186423,-0.12154 -0.491478,-0.308463 -0.677901,-0.415383 -0.186427,-0.10692 -0.525376,-0.310214 -0.753226,-0.451763 -0.22785,-0.141549 -0.558161,-0.332998 -0.734024,-0.425442 -0.379157,-0.199307 -0.425635,-0.309475 -0.323268,-0.766261 0.125047,-0.557979 -0.04486,-0.812079 -0.819539,-1.225672 -0.381185,-0.203509 -0.462996,-0.217615 -1.242817,-0.214292 -0.81078,0.0035 -0.848844,0.01123 -1.324367,0.270629 -0.587028,0.320223 -0.803928,0.637074 -0.72481,1.058809 0.04041,0.215402 0.139792,0.338463 0.481993,0.596827 l 0.431087,0.325473 1.021293,0.03985 c 0.946326,0.03692 1.038402,0.05367 1.254363,0.228153 0.128189,0.103569 0.408443,0.289991 0.622787,0.414273 0.214344,0.124282 0.497264,0.301505 0.628711,0.393829 0.131448,0.09232 0.323733,0.209968 0.427301,0.261429 0.103568,0.05146 0.343562,0.196241 0.533321,0.321732 0.189756,0.125492 0.487538,0.312904 0.661736,0.416472 0.666197,0.396083 1.206645,0.753674 1.253395,0.829318 0.08294,0.1342 -0.391987,0.502875 -0.770331,0.597992 -0.19799,0.04978 -0.461666,0.152501 -0.585948,0.228281 -0.124281,0.07578 -0.395442,0.187729 -0.602578,0.248778 -0.207136,0.06104 -0.495244,0.179161 -0.640239,0.262475 -0.144996,0.08331 -0.399209,0.175023 -0.564918,0.203799 -0.165708,0.02878 -0.402974,0.114707 -0.527255,0.190958 -0.124283,0.07625 -0.395443,0.180041 -0.602579,0.230643 -0.207136,0.0506 -0.468139,0.137898 -0.580007,0.193988 -0.239665,0.120167 -0.497659,0.127778 -0.682522,0.02013 z"
     id="path3060"
     style="fill:#ffffff" />
</svg>
