<?xml version="1.0" encoding="UTF-8" standalone="no"?>
<!-- Created with Inkscape (http://www.inkscape.org/) -->

<svg
   xmlns:dc="http://purl.org/dc/elements/1.1/"
   xmlns:cc="http://creativecommons.org/ns#"
   xmlns:rdf="http://www.w3.org/1999/02/22-rdf-syntax-ns#"
   xmlns:svg="http://www.w3.org/2000/svg"
   xmlns="http://www.w3.org/2000/svg"
   version="1.1"
   width="64.181816"
   height="64.181816"
   id="svg2985">
  <defs
     id="defs2987" />
  <metadata
     id="metadata2990">
    <rdf:RDF>
      <cc:Work
         rdf:about="">
        <dc:format>image/svg+xml</dc:format>
        <dc:type
           rdf:resource="http://purl.org/dc/dcmitype/StillImage" />
        <dc:title></dc:title>
      </cc:Work>
    </rdf:RDF>
  </metadata>
  <path
     d="m 64.181816,32.090908 a 32.090908,32.090908 0 0 1 -64.181816,0 32.090908,32.090908 0 1 1 64.181816,0 z"
     id="path3008"
     style="fill:#b70101;fill-opacity:1;stroke:none" />
  <path
     d=""
     id="path3850"
     style="fill:#000000" />
  <path
     d=""
     id="path3848"
     style="fill:#000000" />
  <path
     d=""
     id="path3846"
     style="fill:#000000" />
  <path
     d=""
     id="path3874"
     style="fill:#000000" />
  <path
     d="m 43.118249,48.830523 -12.925925,-0.03776 -0.54767,-0.237023 c -0.301218,-0.130362 -0.635509,-0.313478 -0.742868,-0.406928 -0.332594,-0.289495 -0.900209,-0.912235 -0.902696,-0.990363 -0.0013,-0.04086 -0.101723,-0.2056 -0.223158,-0.366096 -0.121436,-0.160495 -0.220793,-0.347732 -0.220793,-0.416085 0,-0.06835 -0.0848,-0.283763 -0.188445,-0.478691 -0.103644,-0.194929 -0.224191,-0.525842 -0.26788,-0.735362 -0.04369,-0.20952 -0.145336,-0.579787 -0.225881,-0.822815 -0.180942,-0.545953 -0.267251,-2.033357 -0.200668,-3.458195 0.04406,-0.942772 0.06255,-1.036596 0.308494,-1.565592 l 0.261628,-0.562718 0.63924,-0.306731 c 0.863428,-0.4143 0.842757,-0.536069 -0.09113,-0.53685 -0.743065,-5.95e-4 -1.034477,-0.107457 -1.485385,-0.544558 -0.217651,-0.210988 -0.447208,-0.483902 -0.510127,-0.606474 -0.06291,-0.122574 -0.174568,-0.289721 -0.248111,-0.371435 -0.07355,-0.08172 -0.199849,-0.332434 -0.280681,-0.557152 -0.08083,-0.224718 -0.207258,-0.55901 -0.280943,-0.742869 -0.189937,-0.473927 -0.199575,-3.607886 -0.01302,-4.234355 0.368307,-1.236825 0.771408,-2.092316 1.218574,-2.586151 l 0.315276,-0.348182 2.089143,-0.0084 c 2.210035,-0.0088 2.468291,-0.04755 2.090254,-0.313846 -0.276879,-0.195033 -0.901727,-0.814768 -0.901727,-0.894349 0,-0.03967 -0.07873,-0.16662 -0.174956,-0.282113 -0.09622,-0.115494 -0.21768,-0.340984 -0.269899,-0.501088 -0.05222,-0.160105 -0.155288,-0.394108 -0.229044,-0.520008 -0.118839,-0.20286 -0.258784,-0.769445 -0.524428,-2.123227 -0.114488,-0.583456 -0.04317,-2.624399 0.105557,-3.020998 0.06385,-0.17024 0.138586,-0.471102 0.166096,-0.668582 0.06561,-0.471008 0.511347,-1.393938 0.859943,-1.780584 0.309591,-0.343387 0.530736,-0.72689 0.459964,-0.797662 -0.02561,-0.02561 -0.310583,-0.04656 -0.633276,-0.04656 -1.036916,0 -1.552837,0.360536 -2.121591,1.482615 -0.234842,0.463312 -0.304229,0.734941 -0.579586,2.268875 -0.129562,0.721751 -0.105111,2.070663 0.04915,2.711472 0.04426,0.183861 0.127848,0.600974 0.185752,0.926917 0.117175,0.659593 0.517995,1.552174 0.811685,1.807536 0.200815,0.174606 0.238982,0.344107 0.09721,0.431725 -0.04885,0.03019 -0.558646,0.05724 -1.132875,0.0601 -1.026648,0.0051 -1.05004,0.009 -1.403137,0.228066 -0.646602,0.401305 -0.967824,0.724106 -1.323199,1.329706 -0.23968,0.408443 -0.524385,1.128837 -0.590118,1.493197 -0.04423,0.245147 -0.144163,0.713154 -0.222079,1.040017 -0.196882,0.825937 -0.197819,2.509924 -0.0018,3.342912 0.0769,0.326861 0.178798,0.824948 0.226452,1.106858 0.04765,0.281911 0.168366,0.66608 0.268248,0.853709 0.09988,0.187629 0.181606,0.395403 0.181606,0.46172 0,0.06631 0.06214,0.200298 0.13807,0.297739 0.07594,0.09744 0.191613,0.281582 0.257054,0.409204 0.185694,0.362134 0.688455,0.861338 1.035241,1.027918 0.396716,0.190564 0.44955,0.433358 0.167297,0.768797 -0.106199,0.12621 -0.298142,0.523671 -0.42654,0.883245 -0.233065,0.652696 -0.233441,0.656215 -0.22848,2.139509 0.0039,1.146975 0.03264,1.5789 0.126323,1.894317 0.06674,0.224718 0.174787,0.676011 0.240091,1.002873 0.06531,0.326863 0.198631,0.744461 0.296282,0.927996 0.09765,0.183535 0.177548,0.387802 0.177548,0.453927 0,0.06612 0.08402,0.244036 0.186709,0.395358 0.102691,0.151324 0.23232,0.381636 0.288065,0.511804 0.05575,0.130169 0.272199,0.403817 0.481011,0.608105 0.364946,0.357043 0.4639,0.571669 0.307993,0.668026 -0.113371,0.07007 -1.533968,-0.103866 -2.143745,-0.262474 -0.30012,-0.07806 -0.901419,-0.178121 -1.336219,-0.22235 -0.910529,-0.09262 -1.341243,-0.254316 -1.733368,-0.650737 -0.149794,-0.151433 -0.394607,-0.375621 -0.544032,-0.498195 -0.692728,-0.568248 -1.18649,-1.705916 -1.354139,-3.12005 -0.09731,-0.820865 -0.100827,-1.132884 -0.02342,-2.080034 0.05009,-0.612867 0.134391,-1.231306 0.187337,-1.374307 0.05295,-0.143003 0.166473,-0.450657 0.252281,-0.683676 0.273503,-0.742718 0.885817,-1.567098 1.337439,-1.800641 0.302161,-0.156254 0.354626,-0.266825 0.186804,-0.393703 -0.249061,-0.188294 -0.98389,-0.07236 -1.456117,0.22971 -0.735181,0.470288 -1.133306,1.043044 -1.434047,2.063053 -0.306383,1.039149 -0.349334,1.497152 -0.316129,3.371015 l 0.03027,1.708599 0.261754,0.677482 c 0.227832,0.589689 0.662845,1.291122 0.800724,1.291122 0.02521,0 0.103877,0.09825 0.174814,0.21834 0.07094,0.120087 0.195146,0.239342 0.276021,0.26501 0.08087,0.02567 0.147044,0.07784 0.147044,0.115951 0,0.101908 -0.37384,0.08446 -0.86687,-0.04047 -0.238233,-0.06037 -0.749679,-0.145092 -1.136547,-0.188282 -0.386869,-0.04319 -0.960469,-0.144166 -1.274669,-0.224388 -0.3142,-0.08022 -0.89016,-0.178926 -1.27991,-0.219341 -0.951932,-0.09872 -1.991152,-0.439527 -2.436524,-0.799064 -0.367842,-0.296951 -0.834015,-0.869496 -0.973789,-1.195988 -0.0465,-0.108636 -0.142169,-0.28271 -0.212578,-0.386833 -0.112553,-0.166442 -0.194071,-0.436354 -0.526152,-1.742146 -0.04157,-0.163432 -0.07822,-0.78187 -0.08146,-1.374308 -0.0051,-0.938129 0.02087,-1.187427 0.201508,-1.93146 0.302811,-1.247281 0.995592,-2.556905 1.493563,-2.823411 0.220807,-0.118171 0.303529,-0.33926 0.181811,-0.485922 -0.11389,-0.137229 -0.264423,-0.135663 -0.839244,0.0088 -0.363745,0.09137 -0.535791,0.186435 -0.79528,0.439444 -0.520472,0.507472 -0.63504,0.651517 -0.739453,0.929701 -0.05367,0.143003 -0.15965,0.364871 -0.235504,0.49304 -0.198956,0.336174 -0.35956,1.621324 -0.407207,3.25845 -0.03542,1.217015 -0.01991,1.53322 0.112544,2.295393 0.113413,0.652578 0.202867,0.955001 0.341771,1.15544 0.103482,0.149325 0.188149,0.311392 0.188149,0.360151 0,0.04875 0.117003,0.218159 0.260005,0.376444 0.289695,0.32066 0.328318,0.498098 0.12263,0.56338 -0.142312,0.04517 -1.6752546,-0.145867 -1.8027406,-0.224657 -0.03971,-0.02454 -0.413276,-0.105876 -0.830168,-0.180756 C 8.2813354,45.31677 8.0330207,45.23837 7.9807667,45.149483 7.9398066,45.079807 7.836745,44.916814 7.7517331,44.787262 7.6666691,44.657733 7.5592477,44.443113 7.5129671,44.310354 7.4666874,44.177593 7.3651628,43.978519 7.287359,43.867967 7.2095562,43.757415 7.0948254,43.499817 7.0324018,43.295529 6.969982,43.09124 6.8510354,42.756949 6.7680836,42.55266 6.5601113,42.040479 6.3090794,40.648021 6.3090794,40.006592 c 0,-0.709674 0.2459504,-1.718987 0.5743235,-2.356869 0.3411888,-0.662779 0.491211,-0.866912 0.9483436,-1.290407 0.9701599,-0.898772 1.0353209,-0.975215 0.9230759,-1.08288 -0.06541,-0.06274 -0.456069,-0.134351 -1.0247583,-0.187852 C 7.224585,35.041028 6.6061465,34.939702 6.3557564,34.863415 6.1053665,34.787128 5.6596427,34.692132 5.3652593,34.652313 4.7499864,34.569092 4.6286585,34.499515 4.262438,34.01989 3.5504816,33.08747 3.2405432,31.990015 3.2315387,30.369604 3.2250804,29.210963 3.4495132,27.874662 3.7433299,27.322068 3.847042,27.127012 3.9318976,26.91005 3.9318976,26.83993 c 0,-0.07012 0.062135,-0.207216 0.1380705,-0.304654 0.075938,-0.09745 0.1971099,-0.294167 0.2692706,-0.437169 0.170016,-0.336928 0.9679863,-1.100201 1.2984328,-1.241976 0.2170309,-0.09311 0.5582033,-0.101835 2.1854816,-0.05583 1.0605673,0.02998 2.0123913,0.077 2.1151633,0.104486 0.2714786,0.07261 0.2761996,0.201789 0.01237,0.338225 -0.445144,0.230193 -0.956423,0.672832 -1.202212,1.040813 -0.136452,0.204289 -0.365058,0.705725 -0.508013,1.114304 l -0.2599168,0.742868 0.00153,1.894318 c 0.00132,1.74498 0.014027,1.929453 0.1604577,2.340037 0.087431,0.245147 0.1986311,0.596153 0.2471181,0.780013 0.221578,0.840213 1.025901,1.725432 1.8559406,2.042609 0.7019,0.268211 0.823577,0.217572 0.523876,-0.218028 -0.125356,-0.182195 -0.262827,-0.352838 -0.305492,-0.379207 -0.129474,-0.08002 -0.7376596,-0.94822 -0.7376596,-1.053027 0,-0.05387 -0.0868,-0.263927 -0.192878,-0.466808 -0.191858,-0.366921 -0.32521,-1.087473 -0.440217,-2.37866 -0.07807,-0.876472 0.14495,-2.579439 0.422973,-3.229829 0.38997,-0.91228 0.6907466,-1.365321 1.1062946,-1.666341 0.16474,-0.119339 0.367212,-0.303025 0.449938,-0.408194 0.08272,-0.105169 0.191739,-0.191216 0.242251,-0.191216 0.05051,0 0.150346,-0.04278 0.221852,-0.09507 0.170359,-0.124571 0.06792,-0.412227 -0.268851,-0.755042 -0.358845,-0.36527 -0.56046,-0.659415 -0.618232,-0.901966 -0.02837,-0.119091 -0.1357,-0.417104 -0.238518,-0.662251 -0.165822,-0.395361 -0.190452,-0.57582 -0.217996,-1.597169 -0.03286,-1.218662 -0.01289,-1.347198 0.371209,-2.387537 0.259288,-0.702305 0.693828,-1.244283 1.371381,-1.710452 0.323546,-0.222605 0.38332,-0.235502 1.372163,-0.296068 1.057744,-0.06479 1.321567,-0.02521 1.321567,0.198208 0,0.05916 -0.158788,0.188107 -0.352863,0.286546 -0.450139,0.228323 -0.762748,0.620457 -1.113568,1.396848 l -0.279312,0.618138 0,1.7086 c 0,1.702388 7.44e-4,1.710279 0.204289,2.170654 0.11236,0.25413 0.204369,0.504848 0.204465,0.557151 2.98e-4,0.16263 0.58371,0.963378 0.897725,1.232164 0.265392,0.227164 1.227414,0.608632 1.534995,0.608666 0.207426,2.2e-5 0.06496,-0.241671 -0.445721,-0.756173 -0.715488,-0.720843 -0.987842,-1.260366 -1.17454,-2.326724 -0.07869,-0.449436 -0.142595,-1.017731 -0.14202,-1.262878 0.0015,-0.686071 0.267954,-2.167177 0.43147,-2.399384 0.07771,-0.110362 0.164996,-0.27695 0.193956,-0.370197 0.05517,-0.177641 0.12583,-0.261659 0.901242,-1.071647 0.262376,-0.274073 0.477047,-0.548575 0.477047,-0.610003 0,-0.176839 0.441993,-0.252357 2.005746,-0.342697 1.395431,-0.08062 2.649746,-0.172624 5.422946,-0.397798 0.715011,-0.05806 1.985318,-0.144598 2.822903,-0.192315 0.837585,-0.04771 1.690027,-0.12495 1.894315,-0.171631 0.501021,-0.114484 3.963373,-0.115639 4.457216,-0.0015 0.204289,0.04721 1.106875,0.12522 2.005746,0.173329 0.898872,0.04811 2.219323,0.133448 2.934334,0.189645 0.715011,0.0562 2.035461,0.154062 2.934333,0.217478 0.898872,0.06342 2.28618,0.164463 3.082907,0.22455 0.796729,0.06008 2.184036,0.160136 3.082908,0.222332 4.569598,0.316183 6.647437,0.493487 6.778681,0.578431 0.05107,0.03305 0.09286,0.176469 0.09286,0.318699 0,0.202144 -0.06202,0.318771 -0.284063,0.534197 -0.156234,0.151577 -0.40919,0.434383 -0.562125,0.628457 l -0.278063,0.352864 -10.056069,0 c -6.187222,0 -10.127641,0.02721 -10.242105,0.07072 -0.341085,0.12968 -0.418853,0.506741 -0.133612,0.647823 0.06834,0.0338 4.613343,0.07817 10.100002,0.09861 8.759306,0.03262 9.984331,0.05073 10.046169,0.148575 0.08945,0.141535 0.08894,0.198542 -0.0048,0.536073 -0.15273,0.549926 0.745087,0.503587 -9.826539,0.507182 -5.237094,0.0018 -9.868529,0.03193 -10.292075,0.06701 -0.792899,0.06566 -1.024048,0.162935 -0.935501,0.393685 0.139879,0.364516 0.404698,0.37483 10.812904,0.421149 8.129259,0.03617 9.796591,0.06068 9.898733,0.145459 0.192005,0.159372 0.163388,0.688345 -0.04799,0.886918 l -0.170813,0.16047 -7.499312,0.03418 c -4.124622,0.01879 -8.654171,0.06105 -10.065668,0.09391 -2.291388,0.05334 -2.588366,0.07417 -2.7718,0.19447 -0.243862,0.159935 -0.225607,0.271257 0.06927,0.422416 0.189,0.09688 1.536189,0.116279 10.320397,0.148575 5.556662,0.02042 10.16126,0.06569 10.23244,0.100582 0.07118,0.03489 0.179783,0.23304 0.241341,0.440328 0.09995,0.336556 0.09983,0.395353 -0.0011,0.549429 l -0.113052,0.172539 -10.020947,0 c -5.51152,0 -10.073823,0.02029 -10.138452,0.0451 -0.121571,0.04665 -0.156345,0.301911 -0.06065,0.445224 0.166811,0.249822 0.282948,0.252553 10.738781,0.252553 9.844264,0 10.367849,0.0066 10.523912,0.132988 0.316057,0.255927 0.149366,1.006534 -0.241572,1.08779 -0.09141,0.019 -0.603013,0.04728 -1.136891,0.06284 -1.235143,0.03601 -1.446149,0.124837 -1.803529,0.759269 -0.138093,0.245147 -0.285608,0.546008 -0.327807,0.668582 -0.0422,0.122573 -0.109401,0.264647 -0.149334,0.31572 -0.05748,0.07353 -2.299472,0.09286 -10.76571,0.09286 -7.228964,0 -10.739654,0.02492 -10.836793,0.0769 -0.149382,0.07994 -0.195112,0.328272 -0.07421,0.402991 0.03821,0.02361 4.832346,0.04202 10.653632,0.04088 7.122719,-0.0014 10.65032,0.0231 10.786469,0.07486 0.200284,0.07614 0.2018,0.08192 0.151207,0.575742 -0.03651,0.356398 -0.09611,0.546726 -0.208721,0.666598 l -0.157616,0.167774 -10.966658,0 c -8.430574,0 -10.987271,0.02062 -11.055802,0.08914 -0.12752,0.12752 -0.109991,0.395367 0.03369,0.514627 0.102437,0.08503 1.951674,0.10812 11.140405,0.139098 10.087825,0.034 11.027875,0.04744 11.139556,0.159139 0.161046,0.161072 0.239851,1.054071 0.107131,1.213989 -0.08272,0.09967 -1.318667,0.11261 -10.751675,0.11261 -9.561859,0 -10.70142,0.01227 -11.078226,0.119282 -0.519675,0.147586 -0.670615,0.270177 -0.534536,0.434142 0.08556,0.103083 1.263326,0.115158 11.231901,0.115158 12.242379,0 11.585372,-0.02476 11.687586,0.440612 0.02797,0.127342 0.126618,0.322659 0.219218,0.434039 0.217569,0.261689 0.260277,0.39507 0.17783,0.555373 -0.06323,0.122945 -0.677408,0.130002 -11.313412,0.130002 -10.125084,0 -11.258188,0.01164 -11.363283,0.116736 -0.129841,0.129841 -0.139799,0.179608 -0.05989,0.299292 0.197392,0.295622 -0.08552,0.288096 12.283482,0.32684 l 11.857473,0.03714 0.333436,0.307371 c 0.557357,0.513782 0.498272,0.501751 2.620626,0.533681 1.062302,0.01598 1.98996,0.06011 2.061461,0.09806 0.222165,0.117909 0.146516,0.363341 -0.22286,0.723032 -0.194075,0.188985 -0.482249,0.502398 -0.640388,0.696471 l -0.287524,0.352864 -12.837382,0 c -11.739076,0 -12.847689,0.01031 -12.957831,0.120448 -0.167717,0.167716 -0.113441,0.341417 0.147886,0.473281 0.194276,0.09804 1.780062,0.116628 12.717023,0.14914 9.329225,0.02773 12.516879,0.05895 12.581143,0.123225 0.131362,0.131377 0.01416,0.947476 -0.169622,1.181117 l -0.150861,0.191803 -13.068861,-0.01786 c -12.963446,-0.01771 -13.070054,-0.01666 -13.216808,0.130084 -0.12111,0.121111 -0.134365,0.183671 -0.07307,0.344883 0.04229,0.111236 0.148754,0.212482 0.244648,0.232662 0.09337,0.01965 5.995009,0.0501 13.114742,0.06766 9.336879,0.02303 12.972675,0.05493 13.044372,0.11443 0.125856,0.104451 0.305319,1.521241 0.213481,1.685348 -0.05973,0.106738 -1.29771,0.118997 -13.211886,0.130826 -12.44736,0.01236 -13.15666,0.02005 -13.347032,0.144766 -0.110581,0.07244 -0.201056,0.19371 -0.201056,0.269481 0,0.357371 -0.634254,0.340492 13.508591,0.359495 7.509779,0.01008 13.291269,0.04617 13.328283,0.08319 0.08486,0.08485 0.498424,1.272568 0.499719,1.435136 5.2e-4,0.06859 -0.05153,0.177228 -0.115742,0.241432 -0.105158,0.105158 -1.304382,0.116748 -12.090197,0.116852 -11.250444,7.4e-5 -11.989161,0.0079 -12.233464,0.130002 -0.320554,0.160135 -0.381697,0.411053 -0.134511,0.55201 0.139399,0.0795 2.49471,0.104865 12.534173,0.135028 l 12.362517,0.03714 0.241544,0.334291 c 0.318314,0.440542 0.390392,0.736469 0.211277,0.867442 -0.07392,0.05406 -0.186529,0.09021 -0.250221,0.08033 -0.0637,-0.0099 -5.93247,-0.03494 -13.041728,-0.05572 z M 18.979391,36.714031 c 0.02767,-0.04476 -0.04557,-0.170845 -0.162762,-0.280174 -0.439858,-0.410371 -1.067364,-1.150362 -1.067364,-1.258698 0,-0.06183 -0.08655,-0.260101 -0.19232,-0.440596 -0.206227,-0.351898 -0.506174,-1.670851 -0.587199,-2.582072 -0.09155,-1.029568 0.23226,-2.837181 0.6652,-3.713383 0.266465,-0.539283 0.830099,-1.211755 1.228623,-1.46587 0.154674,-0.09863 0.171711,-0.141309 0.101921,-0.255344 -0.12835,-0.209719 -0.997218,-0.185217 -1.274579,0.03594 -0.110908,0.08844 -0.327009,0.228471 -0.480226,0.311192 -0.153217,0.08272 -0.278576,0.179989 -0.278576,0.216151 0,0.03616 -0.117001,0.205791 -0.260004,0.376953 -0.143002,0.171163 -0.260004,0.359297 -0.260004,0.418077 0,0.05878 -0.08377,0.272186 -0.186159,0.474236 -0.450439,0.888901 -0.454596,4.704636 -0.0063,5.782439 0.096,0.230808 0.197538,0.494842 0.225636,0.586745 0.07557,0.247189 0.538861,0.915349 0.808553,1.166116 0.258791,0.240631 1.254721,0.707335 1.512494,0.708771 0.08952,5.2e-4 0.185398,-0.03571 0.213065,-0.08048 z m 3.546928,-10.737665 c 0.0517,-0.0517 -0.13085,-0.289699 -0.70133,-0.91436 -0.551602,-0.60399 -0.860153,-1.289425 -1.033382,-2.295621 -0.181841,-1.056218 -0.18195,-1.53629 -5.94e-4,-2.611232 0.185564,-1.099892 0.475394,-1.694041 1.193996,-2.447674 0.287557,-0.301575 0.510899,-0.584589 0.496316,-0.628919 -0.01459,-0.04433 -0.192883,-0.09048 -0.396222,-0.102553 -0.559094,-0.0332 -1.240497,0.297249 -1.672996,0.811318 -0.781602,0.929018 -1.008092,1.899563 -0.925286,3.964996 0.05256,1.311122 0.0809,1.468034 0.404502,2.239618 0.414221,0.987662 0.912527,1.493463 1.815272,1.842576 0.470115,0.181804 0.734094,0.227485 0.819728,0.141851 z"
     id="path3014"
     style="fill:#ffffff" />
</svg>
