<?xml version="1.0" encoding="UTF-8" standalone="no"?>
<!-- Created with Inkscape (http://www.inkscape.org/) -->

<svg
   xmlns:dc="http://purl.org/dc/elements/1.1/"
   xmlns:cc="http://creativecommons.org/ns#"
   xmlns:rdf="http://www.w3.org/1999/02/22-rdf-syntax-ns#"
   xmlns:svg="http://www.w3.org/2000/svg"
   xmlns="http://www.w3.org/2000/svg"
   xmlns:sodipodi="http://sodipodi.sourceforge.net/DTD/sodipodi-0.dtd"
   xmlns:inkscape="http://www.inkscape.org/namespaces/inkscape"
   id="svg2"
   version="1.1"
   inkscape:version="0.48.4 r9939"
   width="160"
   height="160"
   xml:space="preserve"
   sodipodi:docname="icon_stories.svg"><metadata
     id="metadata8"><rdf:RDF><cc:Work
         rdf:about=""><dc:format>image/svg+xml</dc:format><dc:type
           rdf:resource="http://purl.org/dc/dcmitype/StillImage" /><dc:title /></cc:Work></rdf:RDF></metadata><defs
     id="defs6"><clipPath
       clipPathUnits="userSpaceOnUse"
       id="clipPath16"><path
         d="M 0,128 128,128 128,0 0,0 0,128 z"
         id="path18" /></clipPath></defs><sodipodi:namedview
     pagecolor="#ffffff"
     bordercolor="#666666"
     borderopacity="1"
     objecttolerance="10"
     gridtolerance="10"
     guidetolerance="10"
     inkscape:pageopacity="0"
     inkscape:pageshadow="2"
     inkscape:window-width="1908"
     inkscape:window-height="1042"
     id="namedview4"
     showgrid="false"
     inkscape:zoom="1.475"
     inkscape:cx="-64.745763"
     inkscape:cy="80"
     inkscape:window-x="0"
     inkscape:window-y="0"
     inkscape:window-maximized="1"
     inkscape:current-layer="g10" /><g
     id="g10"
     inkscape:groupmode="layer"
     inkscape:label="icon_stories"
     transform="matrix(1.25,0,0,-1.25,0,160)"><path
       inkscape:connector-curvature="0"
       id="path22"
       style="fill:#cf2037;fill-opacity:1;fill-rule:nonzero;stroke:none"
       d="M 128,63.998 C 128,28.654 99.346,0 64,0 28.651,0 0,28.654 0,63.998 0,99.346 28.651,128 64,128 c 35.346,0 64,-28.654 64,-64.002" /><path
       style="fill:#ffffff;fill-opacity:1;fill-rule:nonzero;stroke:none"
       d="m 94.425,100.15 c 0,0 -16.789498,-18.187323 -27.95,-27.975 1.357274,-1.178802 2.447084,-2.544365 3.275,-3.975 1.789823,-3.092807 2.567388,-6.31849 2.8,-8.675 11.062736,7.461045 33.8,19.25 33.8,19.25 0,0 0,6.476 -2.975,11.45 -5.946,9.94 -8.95,9.925 -8.95,9.925 z M 63.575,69.725 c -0.06572,-0.05308 -0.13496,-0.122878 -0.2,-0.175 0.622186,-0.413558 1.192066,-0.859982 1.725,-1.35 -0.460713,0.558325 -0.953729,1.072496 -1.525,1.525 z m -3.5,-2.6 C 47.372593,58.336531 35.459295,52.513466 27.5,48.6 c -9.106,-4.468 4.8,-19 4.8,-19 0,0 -15.378,24.954 1.025,8.925 3.776,-3.689 3.9,-10.25 3.9,-10.25 0,0 20.461038,19.254696 29.825,27.1 -0.199431,1.822963 -0.851394,4.714527 -2.275,7.175 -1.117284,1.931044 -2.574737,3.604044 -4.7,4.575 z"
       id="path26"
       inkscape:connector-curvature="0" /></g></svg>