<?xml version="1.0" encoding="UTF-8" standalone="no"?>
<!-- Created with Inkscape (http://www.inkscape.org/) -->

<svg
   xmlns:dc="http://purl.org/dc/elements/1.1/"
   xmlns:cc="http://creativecommons.org/ns#"
   xmlns:rdf="http://www.w3.org/1999/02/22-rdf-syntax-ns#"
   xmlns:svg="http://www.w3.org/2000/svg"
   xmlns="http://www.w3.org/2000/svg"
   version="1.1"
   width="160"
   height="160"
   id="svg2"
   xml:space="preserve"><metadata
     id="metadata8"><rdf:RDF><cc:Work
         rdf:about=""><dc:format>image/svg+xml</dc:format><dc:type
           rdf:resource="http://purl.org/dc/dcmitype/StillImage" /><dc:title></dc:title></cc:Work></rdf:RDF></metadata><defs
     id="defs6"><clipPath
       id="clipPath16"><path
         d="M 0,128 128,128 128,0 0,0 0,128 z"
         id="path18" /></clipPath></defs><g
     transform="matrix(1.25,0,0,-1.25,0,160)"
     id="g10"><path
       d="M 128,63.9976 C 128,28.6556 99.343,-4e-4 64,-4e-4 c -35.349,0 -64,28.656 -64,63.998 0,35.346 28.651,64.002 64,64.002 35.343,0 64,-28.656 64,-64.002"
       id="path22"
       style="fill:#b70101;fill-opacity:1;fill-rule:nonzero;stroke:none" /><path
       d="M 55.125,105.325 C 39.676,105.325 27.15,92.802 27.15,77.35 27.15,61.904 39.676,49.4 55.125,49.4 c 5.661131,0 10.921389,1.682682 15.325,4.575 1.090015,-2.551533 2.91982,-5.481362 5.3,-8.35 l 9.35,-11.3 c 5.365,-6.466 11.642,-10.195 13.925,-8.3 2.284,1.893 -0.259,8.734 -5.625,15.2 L 84.05,52.5 c -2.46812,2.974066 -5.128384,5.362318 -7.5,6.9 4.078248,4.859326 6.55,11.109823 6.55,17.95 0,15.452 -12.532,27.975 -27.975,27.975 z m 0,-10.175 c 9.801,0 17.775,-7.995 17.775,-17.8 0,-9.802 -7.974,-17.775 -17.775,-17.775 -9.802,0 -17.775,7.973 -17.775,17.775 0,9.805 7.973,17.8 17.775,17.8 z"
       id="path26"
       style="fill:#ffffff;fill-opacity:1;fill-rule:nonzero;stroke:none" /></g></svg>