<?xml version="1.0" encoding="UTF-8" standalone="no"?>
<!-- Created with Inkscape (http://www.inkscape.org/) -->

<svg
   xmlns:dc="http://purl.org/dc/elements/1.1/"
   xmlns:cc="http://creativecommons.org/ns#"
   xmlns:rdf="http://www.w3.org/1999/02/22-rdf-syntax-ns#"
   xmlns:svg="http://www.w3.org/2000/svg"
   xmlns="http://www.w3.org/2000/svg"
   xmlns:sodipodi="http://sodipodi.sourceforge.net/DTD/sodipodi-0.dtd"
   xmlns:inkscape="http://www.inkscape.org/namespaces/inkscape"
   version="1.1"
   width="64.181816"
   height="64.181816"
   id="svg2985"
   inkscape:version="0.48.4 r9939"
   sodipodi:docname="icon_tag_3.svg">
  <sodipodi:namedview
     pagecolor="#ffffff"
     bordercolor="#666666"
     borderopacity="1"
     objecttolerance="10"
     gridtolerance="10"
     guidetolerance="10"
     inkscape:pageopacity="0"
     inkscape:pageshadow="2"
     inkscape:window-width="640"
     inkscape:window-height="480"
     id="namedview3001"
     showgrid="false"
     inkscape:zoom="3.6770539"
     inkscape:cx="32.090908"
     inkscape:cy="32.090908"
     inkscape:window-x="2292"
     inkscape:window-y="197"
     inkscape:window-maximized="0"
     inkscape:current-layer="svg2985" />
  <defs
     id="defs2987" />
  <metadata
     id="metadata2990">
    <rdf:RDF>
      <cc:Work
         rdf:about="">
        <dc:format>image/svg+xml</dc:format>
        <dc:type
           rdf:resource="http://purl.org/dc/dcmitype/StillImage" />
        <dc:title></dc:title>
      </cc:Work>
    </rdf:RDF>
  </metadata>
  <path
     d="m 64.181816,32.090908 a 32.090908,32.090908 0 0 1 -64.181816,0 32.090908,32.090908 0 1 1 64.181816,0 z"
     id="path3008"
     style="fill:#b70101;fill-opacity:1;stroke:none" />
  <path
     d=""
     id="path3850"
     style="fill:#000000" />
  <path
     d=""
     id="path3848"
     style="fill:#000000" />
  <path
     d=""
     id="path3846"
     style="fill:#000000" />
  <path
     d=""
     id="path3874"
     style="fill:#000000" />
  <path
     d="m 18.199486,53.417227 c -1.192814,-0.03928 -1.253877,-0.06592 -1.63983,-0.715232 l -0.236328,-0.397588 -0.02162,-1.584924 c -0.02015,-1.476842 0.05228,-2.764949 0.191507,-3.405902 0.03223,-0.148376 0.104851,-0.861592 0.161381,-1.584925 0.05653,-0.723332 0.163254,-1.618646 0.237167,-1.989585 0.07391,-0.37094 0.165891,-1.053807 0.204398,-1.517482 0.03851,-0.463674 0.114983,-1.009967 0.169945,-1.213984 0.08728,-0.323983 0.136573,-0.711195 0.267315,-2.09991 0.03563,-0.378475 0.382187,-0.945344 0.757009,-1.238263 0.652816,-0.510168 0.856515,-0.654853 1.023426,-0.726925 0.09863,-0.04259 0.265113,-0.146902 0.369968,-0.231806 0.104854,-0.08491 0.229666,-0.154374 0.277361,-0.154374 0.04769,0 0.201286,-0.09105 0.341317,-0.202331 0.14003,-0.111282 0.291859,-0.202331 0.337397,-0.202331 0.04554,0 0.1673,-0.06648 0.270583,-0.147713 0.228933,-0.180079 1.070285,-0.615179 1.399965,-0.723984 0.132344,-0.04368 0.276939,-0.123167 0.321321,-0.176645 0.04439,-0.05347 0.204076,-0.130454 0.354876,-0.17106 0.1508,-0.04061 0.381932,-0.147048 0.513627,-0.236537 0.131694,-0.08949 0.285511,-0.162731 0.341815,-0.162761 0.0563,-2.9e-5 0.29478,-0.09108 0.529949,-0.202331 0.654396,-0.30958 0.966314,-0.274305 1.096872,0.124044 0.04452,0.135822 0.152207,0.340864 0.239315,0.455647 0.0871,0.114783 0.158378,0.254709 0.158378,0.310944 0,0.05624 0.0735,0.210569 0.16335,0.342959 0.08984,0.13239 0.226821,0.371835 0.3044,0.5321 0.07758,0.160264 0.184785,0.367264 0.238238,0.459999 0.05345,0.09273 0.148919,0.274832 0.212146,0.404662 0.156844,0.322054 0.461766,0.895864 0.734707,1.382593 0.124808,0.222564 0.27513,0.510885 0.334051,0.640714 0.05892,0.12983 0.137279,0.281578 0.174128,0.337219 0.03685,0.05564 0.154643,0.287286 0.261766,0.514767 0.10712,0.227483 0.22577,0.432765 0.263662,0.456184 0.03789,0.02341 0.105859,0.155969 0.151033,0.294556 0.04517,0.138585 0.15104,0.334707 0.235259,0.435829 0.08422,0.101119 0.173206,0.275281 0.197749,0.387026 0.02454,0.111746 0.07551,0.222259 0.113254,0.245588 0.03774,0.02332 0.15394,0.23256 0.258211,0.464959 0.10427,0.232399 0.220586,0.441705 0.258479,0.465125 0.03789,0.02341 0.1052,0.155969 0.149569,0.294554 0.04437,0.138587 0.137022,0.31398 0.205893,0.389763 0.06887,0.07579 0.161124,0.242707 0.205002,0.37094 0.04387,0.128234 0.150713,0.338833 0.23741,0.467999 0.0867,0.129167 0.157632,0.269092 0.157632,0.310946 0,0.04185 0.08008,0.194112 0.177969,0.338352 0.09788,0.144239 0.209153,0.353335 0.247264,0.464655 0.03811,0.111322 0.136367,0.293452 0.218345,0.404733 0.08197,0.111282 0.183778,0.310894 0.226223,0.443583 0.08435,0.263671 0.419316,0.555747 0.597918,0.521352 0.06191,-0.01192 0.1557,-0.112513 0.208416,-0.223533 0.05271,-0.111019 0.141797,-0.292902 0.197958,-0.404184 0.05616,-0.111282 0.144443,-0.293379 0.196181,-0.404662 0.05174,-0.111282 0.137672,-0.278204 0.190964,-0.370939 0.05329,-0.09274 0.143204,-0.274833 0.199802,-0.404662 0.0566,-0.129829 0.147777,-0.311926 0.202621,-0.404662 0.05484,-0.09273 0.162177,-0.305182 0.238518,-0.472105 0.07634,-0.166922 0.168333,-0.349021 0.204427,-0.404662 0.03609,-0.05564 0.1556,-0.283263 0.265574,-0.505827 0.109973,-0.222564 0.228418,-0.450185 0.263213,-0.505826 0.0348,-0.05564 0.121863,-0.222564 0.193486,-0.37094 0.07162,-0.148377 0.181648,-0.375998 0.244498,-0.505828 0.06285,-0.129828 0.157877,-0.311926 0.21117,-0.404661 0.05329,-0.09274 0.143202,-0.274833 0.1998,-0.404661 0.0566,-0.12983 0.147778,-0.311927 0.202621,-0.404662 0.05484,-0.09273 0.162177,-0.305182 0.238519,-0.472105 0.07634,-0.166923 0.168333,-0.349021 0.204426,-0.404661 0.03609,-0.05564 0.155602,-0.283264 0.265574,-0.505828 0.109973,-0.222564 0.228419,-0.450186 0.263214,-0.505827 0.0348,-0.05564 0.121864,-0.222564 0.193487,-0.370939 0.07162,-0.148376 0.181647,-0.375999 0.244498,-0.505828 0.06285,-0.129829 0.157876,-0.311926 0.211168,-0.404661 0.05329,-0.09273 0.143763,-0.274834 0.201046,-0.404662 0.05728,-0.129829 0.148622,-0.311926 0.20298,-0.404662 0.08438,-0.14396 0.756001,-1.45601 1.030777,-2.013699 0.0483,-0.09802 0.112159,-0.223513 0.141918,-0.278875 0.158887,-0.295581 0.886473,-0.203103 1.685049,0.214176 0.199965,0.104489 0.397237,0.190822 0.438384,0.191854 0.04114,9.85e-4 0.194027,0.09208 0.339738,0.202331 0.14571,0.11025 0.293451,0.200454 0.328314,0.200454 0.03486,0 0.161546,0.08346 0.281518,0.185471 0.205787,0.174972 0.412682,0.3116 0.853892,0.56388 0.104497,0.05975 0.386667,0.272198 0.627046,0.472106 0.240378,0.199907 0.579285,0.469691 0.753125,0.599521 1.060931,0.79233 2.076069,1.791047 2.193683,2.158195 0.04158,0.129829 0.133646,0.332314 0.204567,0.449969 0.07092,0.117654 0.172866,0.443455 0.226543,0.724003 0.05368,0.280547 0.144677,0.622768 0.202222,0.76049 0.05754,0.137723 0.146946,0.570661 0.19867,0.962087 0.05172,0.391426 0.154575,0.939306 0.228556,1.21751 0.07398,0.278205 0.154435,0.824498 0.178787,1.213985 0.02435,0.389487 0.104365,1.011654 0.177804,1.382594 0.07344,0.37094 0.175534,1.251079 0.226877,1.955865 0.05134,0.704785 0.143612,1.736673 0.205044,2.293082 0.131748,1.193286 0.09978,1.945054 -0.104835,2.465365 -0.179836,0.457297 -0.283208,0.573123 -0.707043,0.792219 -0.329752,0.170461 -0.378277,0.175466 -2.191916,0.226105 -2.116303,0.05909 -25.19742,0.108353 -26.753652,0.0571 z M 31.194643,34.33161 c -0.241111,-0.03095 -0.528725,-0.0912 -0.639143,-0.133903 -0.110418,-0.0427 -0.413235,-0.122333 -0.672926,-0.176961 -0.259692,-0.05463 -0.53574,-0.140978 -0.613441,-0.191889 -0.0777,-0.05091 -0.275651,-0.13167 -0.439893,-0.179465 -0.16424,-0.0478 -0.389669,-0.15327 -0.50095,-0.234389 -0.111282,-0.08112 -0.29338,-0.194245 -0.404662,-0.251393 -0.296186,-0.152101 -1.445646,-1.196091 -1.719812,-1.562007 -0.129829,-0.173276 -0.317023,-0.412791 -0.415989,-0.532254 -0.216717,-0.261608 -0.958445,-1.681386 -1.026846,-1.965541 -0.02678,-0.111281 -0.120043,-0.384427 -0.207233,-0.606992 -0.211804,-0.540662 -0.395393,-2.479562 -0.322496,-3.405902 0.04891,-0.621464 0.0556,-0.641316 0.222595,-0.660772 0.111983,-0.01305 0.262586,0.05179 0.430796,0.185471 0.142243,0.11304 0.297646,0.205527 0.34534,0.205527 0.04769,0 0.173865,0.07333 0.28038,0.162956 0.106513,0.08963 0.313701,0.184813 0.460417,0.211527 0.146717,0.02672 0.403859,0.117241 0.571429,0.201171 0.167567,0.08393 0.486239,0.173161 0.708157,0.198292 0.221918,0.02512 0.555235,0.08574 0.740705,0.134692 0.959382,0.253205 1.24751,0.271626 4.248947,0.271626 2.998721,0 3.390972,-0.02514 4.215225,-0.270215 0.166924,-0.04963 0.47518,-0.109602 0.685017,-0.133271 0.209836,-0.02367 0.498157,-0.102649 0.640713,-0.175511 0.142557,-0.07286 0.380594,-0.165016 0.52897,-0.204785 0.287057,-0.07694 0.626359,-0.272418 1.187901,-0.68437 0.544864,-0.399719 0.549079,-0.387813 0.518622,1.464642 -0.02076,1.262614 -0.04662,1.602269 -0.137673,1.80784 -0.06166,0.139221 -0.14865,0.442717 -0.19331,0.674436 -0.04466,0.231719 -0.167567,0.584916 -0.273126,0.784881 -0.105559,0.199964 -0.192478,0.412412 -0.193153,0.472105 -6.75e-4,0.0597 -0.09172,0.242085 -0.202331,0.405317 -0.110607,0.163231 -0.201104,0.326147 -0.201104,0.362036 0,0.03589 -0.08346,0.162644 -0.18547,0.28168 -0.102008,0.119036 -0.276519,0.332705 -0.3878,0.474822 -0.507627,0.648284 -1.860728,1.923136 -2.041174,1.923136 -0.03581,0 -0.14683,0.06428 -0.246711,0.142847 -0.09988,0.07856 -0.339182,0.202493 -0.531782,0.275394 -0.192601,0.0729 -0.397123,0.174662 -0.454497,0.226135 -0.05737,0.05148 -0.315343,0.138309 -0.57327,0.192968 -0.257925,0.05466 -0.60553,0.150762 -0.772453,0.213565 -0.352181,0.132505 -1.723101,0.187023 -2.427969,0.09655 z m 0.05266,-9.88496 c -0.0239,-0.0239 -0.628571,-0.07191 -1.343727,-0.106709 -0.715157,-0.0348 -1.483558,-0.104654 -1.707556,-0.155239 -0.223999,-0.05058 -0.665244,-0.144162 -0.980542,-0.207952 -0.315299,-0.06379 -0.770543,-0.187572 -1.011654,-0.275074 -0.241111,-0.0875 -0.559781,-0.179005 -0.708157,-0.203339 -0.148377,-0.02434 -0.391174,-0.112663 -0.53955,-0.196284 -0.148375,-0.08362 -0.375998,-0.186007 -0.505826,-0.227528 -0.129829,-0.04152 -0.362621,-0.196619 -0.517316,-0.344661 -0.256922,-0.245875 -0.285342,-0.307267 -0.32841,-0.709426 -0.02593,-0.242141 -0.03491,-1.413812 -0.01997,-2.603711 0.02498,-1.988314 0.03702,-2.170649 0.148745,-2.252346 0.15923,-0.116431 0.53005,-0.06077 0.925094,0.138849 0.170118,0.08597 0.42809,0.17792 0.57327,0.204346 0.14518,0.02642 0.400537,0.116008 0.56746,0.199071 0.166923,0.08307 0.459254,0.184061 0.649623,0.22444 0.19037,0.04038 0.448341,0.132222 0.573271,0.204101 0.124929,0.07187 0.38734,0.163878 0.583135,0.204445 0.195795,0.04056 0.42379,0.118185 0.506657,0.172482 0.08287,0.0543 0.358371,0.146889 0.612233,0.205763 0.253862,0.05888 0.527008,0.149924 0.606992,0.202331 0.07999,0.05241 0.353131,0.143457 0.606992,0.202331 0.253862,0.05888 0.526786,0.149778 0.606496,0.202006 0.07971,0.05223 0.334526,0.13919 0.566258,0.193249 0.231731,0.05406 0.551711,0.161407 0.711067,0.23855 0.159355,0.07714 0.430899,0.159608 0.603431,0.183256 0.265739,0.03642 0.380582,0.01074 0.751248,-0.168032 0.240656,-0.116067 0.478178,-0.21103 0.527827,-0.21103 0.04965,0 0.271596,-0.0901 0.493216,-0.200214 0.221619,-0.110119 0.449242,-0.201167 0.505827,-0.202331 0.05659,-0.0012 0.284208,-0.09221 0.505826,-0.202331 0.22162,-0.110117 0.448922,-0.201167 0.505115,-0.202331 0.0562,-0.0012 0.283815,-0.08943 0.505827,-0.19615 0.222011,-0.106719 0.567912,-0.232324 0.768666,-0.279123 0.493493,-0.115041 0.54548,-0.04079 0.54548,0.779091 0,0.54233 -0.01728,0.632987 -0.142178,0.74585 -0.264724,0.239221 -0.480609,0.779066 -0.577253,1.443494 -0.05126,0.352468 -0.144122,0.785384 -0.20634,0.962037 -0.102531,0.291101 -0.103263,0.331051 -0.0078,0.426485 0.169137,0.169138 0.567196,0.226935 1.57476,0.22865 1.542606,0.0027 1.719531,-0.121095 1.360034,-0.951069 -0.08635,-0.19936 -0.194636,-0.536465 -0.240633,-0.749122 -0.046,-0.212658 -0.109598,-0.4027 -0.141337,-0.422316 -0.03174,-0.01962 -0.106364,-0.182155 -0.165832,-0.361199 -0.05947,-0.179043 -0.198363,-0.411987 -0.308653,-0.517652 l -0.200528,-0.192118 0,-0.936026 c 0,-0.963421 0.05086,-1.196934 0.260716,-1.196934 0.0666,0 0.270389,-0.0763 0.452872,-0.169559 0.182483,-0.09326 0.491688,-0.211922 0.687124,-0.2637 0.593785,-0.157314 0.565596,-0.298695 0.541897,2.717905 l -0.02047,2.605016 -0.202331,0.284162 c -0.111281,0.15629 -0.283726,0.318452 -0.383212,0.360361 -0.09948,0.0419 -0.276952,0.147078 -0.394373,0.233708 -0.117421,0.08663 -0.336252,0.17825 -0.486292,0.203599 -0.150041,0.02535 -0.427816,0.11827 -0.617281,0.206489 -0.189464,0.08822 -0.401269,0.160697 -0.470679,0.16106 -0.06941,3.37e-4 -0.513305,0.09169 -0.986434,0.202945 -0.667577,0.156984 -1.152868,0.219705 -2.166882,0.280055 -1.674932,0.09969 -3.390113,0.143179 -3.445915,0.08738 z m 1.076239,-5.633834 c -0.06536,-0.03805 -0.334295,-0.114114 -0.597658,-0.169027 -0.263363,-0.05492 -0.589268,-0.155793 -0.724229,-0.224177 -0.134964,-0.06838 -0.381961,-0.146062 -0.548884,-0.172616 -0.166923,-0.02655 -0.470419,-0.120607 -0.674436,-0.209011 -0.204017,-0.0884 -0.512654,-0.191294 -0.685861,-0.228646 -0.17321,-0.03736 -0.416007,-0.126054 -0.539552,-0.197113 -0.123544,-0.07106 -0.391154,-0.163751 -0.594689,-0.205979 -0.203535,-0.04223 -0.438123,-0.121374 -0.521308,-0.175878 -0.08318,-0.0545 -0.352358,-0.145742 -0.598161,-0.202748 -0.245805,-0.05701 -0.517679,-0.150011 -0.604166,-0.20668 -0.08649,-0.05667 -0.348677,-0.14769 -0.582646,-0.202272 -0.233969,-0.05458 -0.48997,-0.141547 -0.568891,-0.193259 -0.07892,-0.05171 -0.335223,-0.143703 -0.569558,-0.204425 -0.234335,-0.06073 -0.534108,-0.164299 -0.666162,-0.23017 -0.132054,-0.06587 -0.382524,-0.154595 -0.5566,-0.197164 -0.174078,-0.04257 -0.416875,-0.135872 -0.53955,-0.20734 -0.122675,-0.07147 -0.344444,-0.15148 -0.49282,-0.177805 -0.148376,-0.02632 -0.406348,-0.115084 -0.57327,-0.197244 -0.166924,-0.08216 -0.445923,-0.184245 -0.62,-0.226857 -0.174076,-0.04261 -0.416873,-0.13444 -0.539548,-0.204064 -0.122676,-0.06963 -0.365718,-0.160734 -0.540093,-0.202468 -0.174377,-0.04174 -0.459631,-0.151692 -0.633899,-0.244351 -0.174268,-0.09266 -0.376485,-0.168471 -0.449371,-0.168471 -0.07289,0 -0.242877,-0.05944 -0.377757,-0.132075 -0.134879,-0.07264 -0.359046,-0.177316 -0.498148,-0.232611 -0.139102,-0.05529 -0.252913,-0.133984 -0.252913,-0.174863 0,-0.04088 0.113811,-0.119568 0.252913,-0.174863 0.139102,-0.05529 0.363269,-0.15997 0.498148,-0.232611 0.13488,-0.07264 0.301803,-0.132099 0.37094,-0.132128 0.06913,-2.9e-5 0.310854,-0.08764 0.537146,-0.1947 0.226293,-0.107055 0.544964,-0.216892 0.708159,-0.244081 0.163193,-0.02718 0.409524,-0.106603 0.547401,-0.176475 0.137877,-0.06987 0.411024,-0.159154 0.606993,-0.198405 0.195968,-0.03925 0.523229,-0.142455 0.727246,-0.229343 0.204017,-0.08689 0.507513,-0.179705 0.674436,-0.206258 0.166924,-0.02655 0.416305,-0.105445 0.554182,-0.175317 0.137877,-0.06987 0.411024,-0.159154 0.606993,-0.198404 0.195968,-0.03925 0.523229,-0.14211 0.727246,-0.228576 0.204017,-0.08647 0.522687,-0.178554 0.708158,-0.204641 0.18547,-0.02609 0.504141,-0.116636 0.708158,-0.201221 0.204017,-0.08458 0.521975,-0.175615 0.706575,-0.202289 0.184599,-0.02667 0.444221,-0.103894 0.576936,-0.171601 0.132719,-0.06771 0.436926,-0.157748 0.67602,-0.200092 0.239094,-0.04234 0.616814,-0.148415 0.839378,-0.235716 0.222564,-0.0873 0.556409,-0.1804554 0.74188,-0.2070094 0.18547,-0.02656 0.450696,-0.105439 0.589393,-0.175299 0.138695,-0.06986 0.478033,-0.1702324 0.754082,-0.2230493 0.276048,-0.052817 0.588513,-0.1408167 0.694366,-0.195555 0.378569,-0.1957654 0.643895,-0.2011626 1.070496,-0.021775 0.219301,0.092217 0.572485,0.1997253 0.784852,0.2389079 0.212366,0.039183 0.480022,0.119799 0.59479,0.1791476 0.114767,0.059348 0.434527,0.1511201 0.710575,0.2039371 0.276049,0.05282 0.615386,0.153189 0.754082,0.2230491 0.138697,0.06986 0.403923,0.149091 0.589393,0.176069 0.185469,0.02698 0.507697,0.120702 0.716059,0.208278 0.208363,0.08757 0.568622,0.18979 0.800575,0.227145 0.231954,0.03735 0.495601,0.116318 0.585884,0.175474 0.09028,0.05916 0.388816,0.15054 0.663409,0.203079 0.274594,0.05254 0.611889,0.155889 0.749545,0.229669 0.137656,0.07378 0.389353,0.154438 0.559324,0.179241 0.169971,0.0248 0.445611,0.113275 0.612534,0.196605 0.166923,0.08333 0.44007,0.173064 0.606992,0.19941 0.166923,0.02634 0.45941,0.117821 0.649969,0.203278 0.190561,0.08546 0.478883,0.177297 0.640716,0.204086 0.161832,0.02679 0.415638,0.106943 0.564014,0.178115 0.148377,0.07118 0.436698,0.173416 0.640715,0.227207 0.204017,0.05379 0.520244,0.174158 0.702727,0.267482 0.182483,0.09332 0.399156,0.16968 0.481494,0.16968 0.251318,0 0.462018,0.218097 0.410193,0.424588 -0.03464,0.138015 -0.108131,0.194687 -0.329906,0.254405 -0.156937,0.04225 -0.367583,0.135396 -0.468103,0.206973 -0.100521,0.07158 -0.323704,0.172556 -0.495963,0.224399 -0.172258,0.05184 -0.363439,0.138351 -0.424846,0.192241 -0.06141,0.05389 -0.282189,0.14674 -0.490626,0.206331 -0.208438,0.05959 -0.413874,0.150397 -0.456526,0.201788 -0.04265,0.0514 -0.221132,0.133009 -0.396623,0.181368 -0.175492,0.04836 -0.4253,0.155592 -0.555129,0.238293 -0.129829,0.0827 -0.342276,0.172087 -0.472106,0.198638 -0.129828,0.02655 -0.312204,0.102063 -0.40528,0.167803 -0.09307,0.06574 -0.305243,0.156154 -0.471486,0.200918 -0.166243,0.04476 -0.387517,0.142099 -0.49172,0.216298 -0.104204,0.0742 -0.342745,0.175344 -0.530089,0.224765 -0.187345,0.04942 -0.390687,0.134957 -0.451871,0.190081 -0.260893,0.235052 -0.426406,0.203473 -1.024138,-0.1954 -0.313976,-0.209521 -0.67709,-0.439829 -0.806919,-0.511794 -0.129828,-0.07196 -0.372625,-0.21989 -0.539548,-0.328717 -0.166923,-0.108827 -0.44007,-0.276198 -0.606993,-0.371934 -0.166927,-0.09574 -0.470422,-0.277765 -0.674439,-0.404508 -0.204017,-0.126744 -0.499777,-0.298167 -0.657245,-0.380941 -0.339497,-0.17846 -0.381114,-0.277104 -0.289454,-0.686111 0.111967,-0.499614 -0.04017,-0.727136 -0.733816,-1.097467 -0.341313,-0.182222 -0.414567,-0.194853 -1.112819,-0.191877 -0.725972,0.0031 -0.760055,0.01005 -1.185838,0.242321 -0.525626,0.286728 -0.719838,0.570437 -0.648996,0.948058 0.03618,0.192871 0.12517,0.30306 0.431577,0.534399 l 0.385996,0.291429 0.914466,0.03568 c 0.84734,0.03306 0.929785,0.04806 1.123157,0.204288 0.11478,0.09274 0.36572,0.259658 0.557644,0.37094 0.191923,0.111282 0.44525,0.269968 0.562948,0.352635 0.117698,0.08266 0.28987,0.188005 0.382605,0.234083 0.09273,0.04608 0.307626,0.175715 0.477536,0.288079 0.169907,0.112366 0.436542,0.280175 0.592519,0.37291 0.596513,0.354652 1.08043,0.674839 1.12229,0.742571 0.07426,0.120163 -0.350985,0.450275 -0.689755,0.535442 -0.17728,0.04457 -0.413376,0.13655 -0.524658,0.204403 -0.111281,0.06785 -0.354079,0.168093 -0.539548,0.222756 -0.18547,0.05466 -0.443442,0.160421 -0.573271,0.23502 -0.129829,0.0746 -0.357452,0.156716 -0.505827,0.182482 -0.148375,0.02577 -0.360823,0.102709 -0.472105,0.170984 -0.111283,0.06827 -0.35408,0.161209 -0.539549,0.206518 -0.18547,0.04531 -0.419172,0.123474 -0.519339,0.173697 -0.214596,0.107597 -0.445604,0.114412 -0.61113,0.01802 z"
     id="path3060"
     style="fill:#ffffff" />
</svg>
