<?xml version="1.0" encoding="UTF-8" standalone="no"?>
<!-- Created with Inkscape (http://www.inkscape.org/) -->

<svg
   xmlns:dc="http://purl.org/dc/elements/1.1/"
   xmlns:cc="http://creativecommons.org/ns#"
   xmlns:rdf="http://www.w3.org/1999/02/22-rdf-syntax-ns#"
   xmlns:svg="http://www.w3.org/2000/svg"
   xmlns="http://www.w3.org/2000/svg"
   xmlns:sodipodi="http://sodipodi.sourceforge.net/DTD/sodipodi-0.dtd"
   xmlns:inkscape="http://www.inkscape.org/namespaces/inkscape"
   version="1.1"
   width="64.181816"
   height="64.181816"
   id="svg2985"
   inkscape:version="0.48.4 r9939"
   sodipodi:docname="icon_tag_1.svg">
  <sodipodi:namedview
     pagecolor="#ffffff"
     bordercolor="#666666"
     borderopacity="1"
     objecttolerance="10"
     gridtolerance="10"
     guidetolerance="10"
     inkscape:pageopacity="0"
     inkscape:pageshadow="2"
     inkscape:window-width="640"
     inkscape:window-height="480"
     id="namedview2990"
     showgrid="false"
     inkscape:zoom="3.6770539"
     inkscape:cx="32.090908"
     inkscape:cy="32.090908"
     inkscape:window-x="2252"
     inkscape:window-y="60"
     inkscape:window-maximized="0"
     inkscape:current-layer="svg2985" />
  <defs
     id="defs2987" />
  <metadata
     id="metadata2990">
    <rdf:RDF>
      <cc:Work
         rdf:about="">
        <dc:format>image/svg+xml</dc:format>
        <dc:type
           rdf:resource="http://purl.org/dc/dcmitype/StillImage" />
        <dc:title></dc:title>
      </cc:Work>
    </rdf:RDF>
  </metadata>
  <path
     d="m 64.181816,32.090908 a 32.090908,32.090908 0 0 1 -64.181816,0 32.090908,32.090908 0 1 1 64.181816,0 z"
     id="path3008"
     style="fill:#b70101;fill-opacity:1;stroke:none" />
  <path
     d="m 13.120065,49.182023 c -0.122546,-0.319349 -0.0082,-0.83918 0.254021,-1.15518 0.413357,-0.498064 2.909918,-0.561281 18.754618,-0.4749 l 18.277787,0.09965 0.121452,1.055531 0.121451,1.055531 -18.65326,0 c -16.296389,0 -18.681413,-0.07337 -18.876069,-0.58063 z m 2.313453,-3.427158 c -0.116781,-0.304326 -0.152206,-0.865676 -0.07872,-1.247445 0.126041,-0.654816 1.062424,-0.699786 16.53712,-0.7942 l 16.403514,-0.100078 0,1.34752 0,1.347524 -16.32479,0 c -13.862853,0 -16.356812,-0.08345 -16.537121,-0.553324 z M 17.76694,41.612084 C 17.66079,41.335456 17.620526,37.226761 17.67748,32.48165 l 0.103535,-8.627473 3.646378,0 3.646378,0 0,9.019988 0,9.019988 -3.556908,0.110447 C 18.857,42.08719 17.911281,41.9882 17.766952,41.612084 z m 10.659347,0.0266 c -0.730357,-0.730354 -0.67126,-16.950898 0.06398,-17.561092 0.344249,-0.285702 1.760106,-0.406214 3.93425,-0.33487 l 3.396461,0.111457 0,9.019988 0,9.019987 -3.460441,0.109169 c -2.363257,0.07456 -3.61067,-0.04106 -3.934249,-0.364637 z m 10.451263,-0.0266 C 38.7714,41.335456 38.731136,37.226761 38.78809,32.48165 l 0.103535,-8.627473 3.646379,0 3.646378,0 0,9.019988 0,9.019988 -3.556907,0.110447 c -2.659863,0.08259 -3.605582,-0.0164 -3.749912,-0.392516 z M 12.037608,22.533497 c -0.185869,-0.300739 6.349407,-5.447667 17.529056,-13.8052008 1.372611,-1.026118 2.375373,-1.5270708 2.686805,-1.3422552 2.644704,1.5694642 20.603353,14.886304 20.437371,15.154877 -0.69573,1.125707 -2.634889,0.128686 -11.256581,-5.787583 -4.92227,-3.377697 -9.236815,-6.141268 -9.587877,-6.141268 -0.351063,0 -3.573028,2.126909 -7.159923,4.726465 -3.586895,2.599555 -7.447805,5.363128 -8.579801,6.141269 -1.998183,1.373565 -3.612933,1.79171 -4.06905,1.053696 z m 5.16765,0.0095 c 0,-0.446767 1.483481,-1.586254 8.75291,-6.723263 l 5.874191,-4.15105 7.863301,5.240531 c 4.324818,2.882293 7.759728,5.408119 7.633142,5.612946 -0.301098,0.487184 -30.123544,0.507812 -30.123544,0.02084 z"
     id="path3004"
     style="fill:#ffffff" />
</svg>
