<?xml version="1.0" encoding="utf-8"?>
<!-- Generator: Adobe Illustrator 17.1.0, SVG Export Plug-In . SVG Version: 6.00 Build 0)  -->
<!DOCTYPE svg PUBLIC "-//W3C//DTD SVG 1.1//EN" "http://www.w3.org/Graphics/SVG/1.1/DTD/svg11.dtd">
<svg version="1.1"
	 id="svg2" xmlns:dc="http://purl.org/dc/elements/1.1/" xmlns:cc="http://creativecommons.org/ns#" xmlns:rdf="http://www.w3.org/1999/02/22-rdf-syntax-ns#" xmlns:svg="http://www.w3.org/2000/svg" xmlns:sodipodi="http://sodipodi.sourceforge.net/DTD/sodipodi-0.dtd" xmlns:inkscape="http://www.inkscape.org/namespaces/inkscape" sodipodi:docname="icon_stories.svg" inkscape:version="0.48.4 r9939"
	 xmlns="http://www.w3.org/2000/svg" xmlns:xlink="http://www.w3.org/1999/xlink" x="0px" y="0px" viewBox="0 0 160 160"
	 enable-background="new 0 0 160 160" xml:space="preserve">
<sodipodi:namedview  inkscape:cy="80" inkscape:cx="-64.745763" inkscape:zoom="1.475" showgrid="false" guidetolerance="10" gridtolerance="10" objecttolerance="10" borderopacity="1" bordercolor="#666666" pagecolor="#ffffff" id="namedview4" inkscape:current-layer="g10" inkscape:window-maximized="1" inkscape:window-y="0" inkscape:window-x="0" inkscape:window-height="1042" inkscape:window-width="1908" inkscape:pageshadow="2" inkscape:pageopacity="0">
	</sodipodi:namedview>
<g id="g10" transform="matrix(1.25,0,0,-1.25,0,160)" inkscape:label="icon_stories" inkscape:groupmode="layer">
	<path id="path22" inkscape:connector-curvature="0" fill="#CF2037" d="M128,64c0-35.3-28.7-64-64-64C28.7,0,0,28.7,0,64
		c0,35.3,28.7,64,64,64C99.3,128,128,99.3,128,64"/>
	<path id="path26" inkscape:connector-curvature="0" display="none" fill="#FFFFFF" d="M94.4,100.2c0,0-16.8-18.2-27.9-28
		c1.4-1.2,2.4-2.5,3.3-4c1.8-3.1,2.6-6.3,2.8-8.7c11.1,7.5,33.8,19.3,33.8,19.3s0,6.5-3,11.4C97.4,100.2,94.4,100.2,94.4,100.2z
		 M63.6,69.7c-0.1-0.1-0.1-0.1-0.2-0.2c0.6-0.4,1.2-0.9,1.7-1.3C64.6,68.8,64.1,69.3,63.6,69.7z M60.1,67.1
		c-12.7-8.8-24.6-14.6-32.6-18.5c-9.1-4.5,4.8-19,4.8-19s-15.4,25,1,8.9c3.8-3.7,3.9-10.3,3.9-10.3s20.5,19.3,29.8,27.1
		c-0.2,1.8-0.9,4.7-2.3,7.2C63.7,64.5,62.2,66.2,60.1,67.1z"/>
</g>
<path fill-rule="evenodd" clip-rule="evenodd" fill="#FFFFFF" d="M78.3,135.9c-31,0-56.2-25.1-56.2-56.2c0-31,25.1-56.2,56.2-56.2
	c31,0,56.2,25.1,56.2,56.2C134.5,110.8,109.3,135.9,78.3,135.9z M82.3,51.7c-8,0-4,10-10,4s2-4,6-8c4-4-4-6-6-2c0,0-6-6-10,4
	c0,0-8-4.8-10.8-9.8c-4,2.7-7.6,6-10.6,9.8c1.7,0.9,3.6,2.1,5.4,4c6,6,2,12,0,16c-2,4,6,10,6,10s6,4,12,6c0,0,4-2-4-6c0,0-6-6,2-8
	c6-2,2,4,6,4s0-6,8-10c8-4,6-6,10-6S90.4,51.7,82.3,51.7z M83.3,85.1c-9.4-3.9-15,0-15,5.8c0,11.6,7.5,13.5,7.5,13.5
	c-1.9,9.6,0,13.5,1.9,15.4c1.9,1.9,3.2,4.8,4.8,3.9c1.7-0.9,2.7-13.5,8.3-19.3c5.6-5.8,3.7-11.6,0-13.5C87,88.9,92.7,88.9,83.3,85.1
	z M95,34.6c-0.1,0.4-0.3,0.7-0.6,1c-2,2-6,8,2,8c0,0-4,12,2,12c5.2,0,10.5-10.6,15.7-8.1C108.9,41.8,102.4,37.4,95,34.6z
	 M117.7,52.1c1.3,5.4-11.3,5.2-11.3,17.7c0,10.1,11.4,18.1,18.5,21.8c1-3.8,1.5-7.7,1.5-11.8C126.5,69.4,123.2,59.9,117.7,52.1z"/>
</svg>
