<?xml version="1.0" encoding="utf-8"?>
<!-- Generator: Adobe Illustrator 17.1.0, SVG Export Plug-In . SVG Version: 6.00 Build 0)  -->
<!DOCTYPE svg PUBLIC "-//W3C//DTD SVG 1.1//EN" "http://www.w3.org/Graphics/SVG/1.1/DTD/svg11.dtd">
<svg version="1.1"
	 id="svg2" xmlns:dc="http://purl.org/dc/elements/1.1/" xmlns:cc="http://creativecommons.org/ns#" xmlns:rdf="http://www.w3.org/1999/02/22-rdf-syntax-ns#" xmlns:svg="http://www.w3.org/2000/svg" xmlns:sodipodi="http://sodipodi.sourceforge.net/DTD/sodipodi-0.dtd" xmlns:inkscape="http://www.inkscape.org/namespaces/inkscape" sodipodi:docname="icon_stories.svg" inkscape:version="0.48.4 r9939"
	 xmlns="http://www.w3.org/2000/svg" xmlns:xlink="http://www.w3.org/1999/xlink" x="0px" y="0px" viewBox="0 0 160 160"
	 enable-background="new 0 0 160 160" xml:space="preserve">
<sodipodi:namedview  inkscape:cy="80" inkscape:cx="-64.745763" inkscape:zoom="1.475" showgrid="false" guidetolerance="10" gridtolerance="10" objecttolerance="10" borderopacity="1" bordercolor="#666666" pagecolor="#ffffff" id="namedview4" inkscape:current-layer="g10" inkscape:window-maximized="1" inkscape:window-y="0" inkscape:window-x="0" inkscape:window-height="1042" inkscape:window-width="1908" inkscape:pageshadow="2" inkscape:pageopacity="0">
	</sodipodi:namedview>
<g id="g10" transform="matrix(1.25,0,0,-1.25,0,160)" inkscape:label="icon_stories" inkscape:groupmode="layer">
	<path id="path22" inkscape:connector-curvature="0" fill="#CF2037" d="M128,64c0-35.3-28.7-64-64-64C28.7,0,0,28.7,0,64
		c0,35.3,28.7,64,64,64C99.3,128,128,99.3,128,64"/>
	<path id="path26" inkscape:connector-curvature="0" display="none" fill="#FFFFFF" d="M94.4,100.2c0,0-16.8-18.2-27.9-28
		c1.4-1.2,2.4-2.5,3.3-4c1.8-3.1,2.6-6.3,2.8-8.7c11.1,7.5,33.8,19.3,33.8,19.3s0,6.5-3,11.4C97.4,100.2,94.4,100.2,94.4,100.2z
		 M63.6,69.7c-0.1-0.1-0.1-0.1-0.2-0.2c0.6-0.4,1.2-0.9,1.7-1.3C64.6,68.8,64.1,69.3,63.6,69.7z M60.1,67.1
		c-12.7-8.8-24.6-14.6-32.6-18.5c-9.1-4.5,4.8-19,4.8-19s-15.4,25,1,8.9c3.8-3.7,3.9-10.3,3.9-10.3s20.5,19.3,29.8,27.1
		c-0.2,1.8-0.9,4.7-2.3,7.2C63.7,64.5,62.2,66.2,60.1,67.1z"/>
</g>
<path fill-rule="evenodd" clip-rule="evenodd" fill="#FFFFFF" d="M134.3,86c14.3,4.7,13.7,12.1,13.7,14.8v5c0,2.4-1.9,3.7-3.7,3.7
	h-6.3c-0.4-1.7-1.1-3.3-2.3-4.9c0,0-6.8-7.8-24.9-14.4c-2.5-0.9-4.4-1.6-6.8-2.5c1.4-0.7,2.9-1.3,4.7-1.9c1.6-0.7,2.6-1.7,2.9-2.8
	c0.4-1.8-0.2-4.1-0.6-4.7c0,0-4-4.4-4-14.2c0-4.3-0.3-17.5,14.6-17.5c14.9,0,14.4,13.2,14.4,17.5c0,9.7-3.7,14.1-3.9,14.3
	c-0.4,0.5-1.2,2.8-0.8,4.5C131.5,84.3,132.5,85.2,134.3,86z M95.3,78.3c0,0-3.6,4.2-2.7,7.9c0.5,2,2.6,3.7,5.6,5
	c22.1,6.8,35.4,14.7,35.4,21v5.1c0,2.8-2.2,4.3-4.3,4.3H31.6c-2.1,0-4.3-1.5-4.3-4.3v-5.1c0-6.3,13.2-14.2,35.4-21
	c3-1.3,5.1-3,5.6-5c0.9-3.8-2.8-8-2.8-8c-0.1-0.1-6.8-4.6-6.8-18.6c0-10.7,2.8-24.9,21.8-24.9s21.8,14.2,21.8,24.9
	C102.2,73.5,95.6,78,95.3,78.3L95.3,78.3z M52.2,85.9c1.8,0.6,3.4,1.2,4.7,1.9c-2.4,0.8-4.3,1.5-6.8,2.5
	c-18.1,6.6-24.9,14.4-24.9,14.4c-1.2,1.6-2,3.2-2.3,4.9h-6.3c-1.8,0-3.7-1.3-3.7-3.7v-5c0-2.8-0.6-10.1,13.7-14.8
	c1.8-0.8,2.8-1.7,3.1-2.9c0.4-1.8-0.4-4-0.8-4.5C28.7,78.5,25,74,25,64.3c0-4.3-0.5-17.5,14.4-17.5c14.9,0,14.6,13.2,14.6,17.5
	c0,9.7-4,14.1-4,14.2c-0.4,0.5-1,2.8-0.6,4.7C49.6,84.3,50.6,85.2,52.2,85.9z"/>
</svg>
