<?xml version="1.0" encoding="utf-8"?>
<!-- Generator: Adobe Illustrator 17.1.0, SVG Export Plug-In . SVG Version: 6.00 Build 0)  -->
<!DOCTYPE svg PUBLIC "-//W3C//DTD SVG 1.1//EN" "http://www.w3.org/Graphics/SVG/1.1/DTD/svg11.dtd">
<svg version="1.1"
	 id="svg2" xmlns:dc="http://purl.org/dc/elements/1.1/" xmlns:cc="http://creativecommons.org/ns#" xmlns:rdf="http://www.w3.org/1999/02/22-rdf-syntax-ns#" xmlns:svg="http://www.w3.org/2000/svg" xmlns:sodipodi="http://sodipodi.sourceforge.net/DTD/sodipodi-0.dtd" xmlns:inkscape="http://www.inkscape.org/namespaces/inkscape" inkscape:version="0.48.4 r9939" sodipodi:docname="icon_stories.svg"
	 xmlns="http://www.w3.org/2000/svg" xmlns:xlink="http://www.w3.org/1999/xlink" x="0px" y="0px" viewBox="0 0 612 792"
	 enable-background="new 0 0 612 792" xml:space="preserve">
<sodipodi:namedview  id="namedview4" pagecolor="#ffffff" bordercolor="#666666" borderopacity="1" objecttolerance="10" gridtolerance="10" guidetolerance="10" showgrid="false" inkscape:zoom="1.475" inkscape:cx="-64.745763" inkscape:cy="80" inkscape:pageopacity="0" inkscape:pageshadow="2" inkscape:window-maximized="1" inkscape:current-layer="g10" inkscape:window-height="1042" inkscape:window-x="0" inkscape:window-y="0" inkscape:window-width="1908">
	</sodipodi:namedview>
<g id="g10" transform="matrix(1.25,0,0,-1.25,0,160)" inkscape:label="icon_stories" inkscape:groupmode="layer">
	<path id="path22" inkscape:connector-curvature="0" fill="#6923CC" d="M489.6-188.8c0-135-109.8-244.8-244.8-244.8S0-323.8,0-188.8
		S109.8,56,244.8,56S489.6-53.8,489.6-188.8"/>
	<path id="path26" inkscape:connector-curvature="0" display="none" fill="#FFFFFF" d="M361.1-50.3c0,0-64.3-69.6-106.7-107.1
		c5.4-4.6,9.2-9.6,12.6-15.3c6.9-11.9,9.9-24.1,10.7-33.3c42.5,28.7,129.3,73.8,129.3,73.8s0,24.9-11.5,43.6
		C372.6-50.3,361.1-50.3,361.1-50.3z M243.3-167c-0.4-0.4-0.4-0.4-0.8-0.8c2.3-1.5,4.6-3.4,6.5-5C247.1-170.4,245.2-168.5,243.3-167
		z M229.9-176.9c-48.6-33.7-94.1-55.8-124.7-70.8c-34.8-17.2,18.4-72.7,18.4-72.7s-58.9,95.6,3.8,34c14.5-14.2,14.9-39.4,14.9-39.4
		s78.4,73.8,114,103.7c-0.8,6.9-3.4,18-8.8,27.5C243.7-186.9,237.9-180.4,229.9-176.9z"/>
</g>
<g>
	<path fill="#FFFFFF" d="M467.5,291.1c-4-21.1-11-42.3-23.9-59.7c-11.2-15.1-26.7-26.6-44.1-33.6c-17.4-6.9-37.4-9.7-55.8-5.6
		c-10.8,2.4-21,7.2-29.6,14.3c-8.1,6.6-14.8,14.7-20.6,23.4c-12.1,18.1-20.7,38.2-29.2,58.2c-8.9,20.6-17.9,41.3-29.9,60.3
		c-5.9,9.5-13,18.5-20.6,26.6c-7.1,7.6-15.2,14.2-23.9,20c0.3-0.2,0.4-0.2,0,0c-11.8,7.8-23.1,16.6-32.6,27.1
		c-9.1,10.1-16.9,22.7-17.4,36.6c-0.2,7.2,1.6,14.2,4.9,20.6c4.7,8.9,12.5,15.7,21.1,20.7c9.4,5.4,19.8,8.6,30.4,10.8
		c1.9,0.4,3.7,0.8,5.5,1.6c1.7,0.7,3.5,1.4,5,2.5c1.6,1.2,3.1,2.5,4.3,4.1c1.5,2,2.9,4.1,3.9,6.3c4.3,9.2,7,19.2,14,26.9
		c3.1,3.4,6.9,5.8,11.3,7.2c4.6,1.4,9.3,2,14.1,2c9.6,0,19-2.1,28.4-3.9c4.7-0.9,9.5-1.7,14.3-2.1c2-0.2,4-0.3,5.9-0.1
		c0.8,0.1,1.6,0.1,2.4,0.3c3.3,0.8,5.3,3.4,6.3,4.7c2.2,3.2,3.5,6.8,4.9,10.3c2.5,6.2,4.7,12.6,8.3,18.3c2.6,4.1,5.9,7.4,10.1,9.8
		c3.8,2.1,7.9,3.4,12.3,3.8c9.6,0.8,19.3-2.7,27.4-7.7c9.1-5.6,16.8-13.4,23.5-21.6c6.7-8.2,12.6-17.1,18-26.2
		c11.1-18.6,20-38.4,27.3-58.8c7.6-20.9,13.8-42.3,18.5-64c4.7-21.8,7.9-44,9.2-66.3C472.5,335.5,471.7,313.1,467.5,291.1z
		 M359.3,278.7c-2,8.5-7.6,16.5-15.2,20.9c-7.2,4.2-17,5.1-24.7,1.6c-7-3.2-11.1-10.1-10.4-17.7c0.8-8.4,6.6-15.6,13.5-20
		c2.5-1.6,5.2-2.9,8.1-3.8c-2.8,0.9-4,1.3-4.1,1.3c0.1,0,2.1-0.7,4.1-1.3c0,0,0,0,0,0c0,0,0,0,0,0c7.1-2.3,3.5-1.1,0,0
		c7.1-2.3,16.2-4,23,0C360.2,263.5,360.9,271.9,359.3,278.7z M429.2,309.5c-1.8,7.3-6.9,14.3-14.5,16.1c-7.9,1.9-15.6-2.4-20.4-8.4
		c-5.9-7.4-7.7-16.7-7-26c0.6-7.2,3.1-16.1,10.8-18.6c1.8-0.6,3.6-0.7,5.5-0.6c-1.2-0.1-2.5-0.2-3.1-0.2c0.5,0,1.4,0.1,3.1,0.2
		c0.6,0,1.1,0.1,1.5,0.1c0.5,0,0.9,0.1,1.3,0.1c-0.3,0-0.7-0.1-1.3-0.1c-0.5,0-1-0.1-1.5-0.1c8.1,0.6,15.6,6.1,20.3,12.4
		C429.4,291.6,431.4,300.6,429.2,309.5z"/>
	<path fill="#FFFFFF" d="M189.8,395C189.8,395,189.9,395,189.8,395C187.2,396.7,166.1,410.7,189.8,395z"/>
</g>
</svg>
