<?xml version="1.0" encoding="utf-8"?>
<!-- Generator: Adobe Illustrator 17.1.0, SVG Export Plug-In . SVG Version: 6.00 Build 0)  -->
<!DOCTYPE svg PUBLIC "-//W3C//DTD SVG 1.1//EN" "http://www.w3.org/Graphics/SVG/1.1/DTD/svg11.dtd">
<svg version="1.1"
	 id="svg2" xmlns:dc="http://purl.org/dc/elements/1.1/" xmlns:cc="http://creativecommons.org/ns#" xmlns:rdf="http://www.w3.org/1999/02/22-rdf-syntax-ns#" xmlns:svg="http://www.w3.org/2000/svg" xmlns:sodipodi="http://sodipodi.sourceforge.net/DTD/sodipodi-0.dtd" xmlns:inkscape="http://www.inkscape.org/namespaces/inkscape" inkscape:version="0.48.4 r9939" sodipodi:docname="icon_stories.svg"
	 xmlns="http://www.w3.org/2000/svg" xmlns:xlink="http://www.w3.org/1999/xlink" x="0px" y="0px" viewBox="0 0 612 792"
	 enable-background="new 0 0 612 792" xml:space="preserve">
<sodipodi:namedview  id="namedview4" pagecolor="#ffffff" bordercolor="#666666" borderopacity="1" objecttolerance="10" gridtolerance="10" guidetolerance="10" showgrid="false" inkscape:zoom="1.475" inkscape:cx="-64.745763" inkscape:cy="80" inkscape:pageopacity="0" inkscape:pageshadow="2" inkscape:window-maximized="1" inkscape:current-layer="g10" inkscape:window-height="1042" inkscape:window-x="0" inkscape:window-y="0" inkscape:window-width="1908">
	</sodipodi:namedview>
<g id="g10" transform="matrix(1.25,0,0,-1.25,0,160)" inkscape:label="icon_stories" inkscape:groupmode="layer">
	<path id="path22" inkscape:connector-curvature="0" fill="#1A98B5" d="M489.6-188.8c0-135-109.8-244.8-244.8-244.8S0-323.8,0-188.8
		S109.8,56,244.8,56S489.6-53.8,489.6-188.8"/>
	<path id="path26" inkscape:connector-curvature="0" display="none" fill="#FFFFFF" d="M361.1-50.3c0,0-64.3-69.6-106.7-107.1
		c5.4-4.6,9.2-9.6,12.6-15.3c6.9-11.9,9.9-24.1,10.7-33.3c42.5,28.7,129.3,73.8,129.3,73.8s0,24.9-11.5,43.6
		C372.6-50.3,361.1-50.3,361.1-50.3z M243.3-167c-0.4-0.4-0.4-0.4-0.8-0.8c2.3-1.5,4.6-3.4,6.5-5C247.1-170.4,245.2-168.5,243.3-167
		z M229.9-176.9c-48.6-33.7-94.1-55.8-124.7-70.8c-34.8-17.2,18.4-72.7,18.4-72.7s-58.9,95.6,3.8,34c14.5-14.2,14.9-39.4,14.9-39.4
		s78.4,73.8,114,103.7c-0.8,6.9-3.4,18-8.8,27.5C243.7-186.9,237.9-180.4,229.9-176.9z"/>
</g>
<g display="none">
	<path display="inline" fill="#FFFFFF" d="M465.7,534.3h-77H228.8c-6.7,0-12.1,5.4-12.1,12.1v7.4c0,6.7,5.4,12.1,12.1,12.1h159.8h77
		h39.9v-31.6L465.7,534.3L465.7,534.3z"/>
	<circle display="inline" fill="#FFFFFF" cx="203.7" cy="277.5" r="66.8"/>
	<path display="inline" fill="#FFFFFF" d="M366.7,441.4l-153.1-0.1l-3.6,0v-17.8l-0.1-14.9c0-35.5-28.8-64.3-64.3-64.3
		c-1.2,0-2.4,0-3.6,0.1l-0.1-0.1c-33.5,0-60.6,27.2-60.6,60.6v171.3H210v-73l-1.7-0.1c-0.1,0-0.2,0-0.2,0c-8.7,0-17.1-3.7-22.9-10.1
		l-52.3-57c-1.7-1.8-1.5-4.6,0.3-6.3c1.8-1.7,4.6-1.5,6.3,0.3l52.3,57c4.2,4.6,10.2,7.5,16.5,7.6c0.4,0,6.1,0.1,6.1,0.1h152.3
		c14.7,0,26.6-11.9,26.6-26.6C393.4,453.3,381.4,441.4,366.7,441.4z"/>
	<path display="inline" fill="#FFFFFF" d="M525,346.8c-6.2-2.1-13,1.2-15.2,7.4l-50.6,147.7h-181c-6.6,0-11.9,5.3-11.9,11.9
		c0,6.6,5.3,11.9,11.9,11.9h189.4c4.1,0,7.6-2,9.8-5.1c0.7-1,1.4-2.1,1.8-3.3L532.5,362C534.6,355.8,531.3,349,525,346.8z"/>
</g>
<g display="none">
	<path display="inline" fill="#FFFFFF" d="M217.4,465c-13.3-2.6-26.5-5.3-40-7.9c0.5-2.2,1-4.3,1.6-7c-22.3-7.5-44.4-15.8-64.5-29.8
		c2.2-2.7,4.1-5.1,6.2-7.7c-14.1-10.6-27.6-21.6-37.5-37c5.1-4.8,10-9.4,15.2-14.3c-2.3-2.9-4.7-5.8-7.5-9.4
		c6.4-6,12.7-12,18.8-17.8c-3.8-7.4-8-14.3-11-21.7c-2.4-6.2-4.1-12.9-4.6-19.5c-1.6-20.3,9-32.4,28.4-34.2
		c12-1.1,22.7,3.1,33.8,6.6c14,4.5,28.2,7.5,42.8,4.3c9.7-2.1,19-6.2,28.7-8.4c41.6-9.4,83.3-9.8,124.9,0.4
		c7.3,1.8,14.4,4.2,21.7,5.6c9.5,1.9,18.5,0.3,27.2-4.4c13.2-7.2,27.2-11.3,42.2-10.8c1.5,0.1,2.9,0.1,4.4,0.2
		c19.8,2,29.2,14.4,25.7,34.9c-1.2,7.2-3.7,14.1-5.6,21.1c10.3,5.3,21,10.8,32.1,16.4c-1.8,2.6-3,4.4-4.2,6
		c7.9,6.6,16.2,12.6,23.6,19.7c10.4,10.2,9.5,5.6,3,18.8c-1.8,3.7-4,7.2-6.1,10.7c-2.2,3.4-4.6,6.7-7,10.3c2.2,1.6,4.3,3.2,6.9,5.1
		c-10.7,15.7-24.7,26.9-40.3,36.6c1.4,2.2,2.7,4.3,4.3,6.7c-14,11-30.6,13.8-47.7,17.4c4.6,6.5,4.6,13.3,3,20.5
		c-0.3,1.5,0.7,3.6,1.5,5.1c8.3,14.7,5,31.3-8.2,41.1c-14.1,10.4-30.2,15.6-46.9,18.3c-48.3,7.8-95.4,2.8-140.7-16.9
		c-5.8-2.5-11.3-5.8-16.6-9.4c-11.5-8-14.6-18.9-9.6-32.5C217.3,476.7,220.1,471.5,217.4,465z M452,314.8c1.6-3.4,3.3-6.5,4.4-9.8
		c2.5-7.7,5.5-15.3,6.7-23.2c1.5-11.1-2.6-15.9-13.2-17.5c-14.8-2.3-28.6,1.4-41.6,8.3c-10,5.3-20.4,8.2-31.4,6.4
		c-9.2-1.4-18.2-4.1-27.3-6.5c-24.1-6.2-48.6-7.5-73.3-6.4c-22.3,1-44.2,4.7-65.5,12c-7,2.4-14.5,3.7-21.9,4
		c-15.4,0.7-30.2-3.6-44.6-8.9c-9.2-3.4-18.5-4.7-27.9-1.4c-6.8,2.4-10.8,7.1-11.4,14.8c-1.1,13,3.8,24.1,10.1,34.6
		c3.1,5,6.6,9.7,10,14.7c-6.4,5.8-12.7,11.5-19.1,17.3c3.1,3.9,5.9,7.5,8.7,11c-5.9,4.5-11.4,8.6-17.2,13
		c11.6,14.1,25.6,23.7,39.6,33.4c-1.2,1.6-2.1,2.8-3.1,4c-0.9,1.1-1.8,2.2-2.8,3.5c19.8,11.1,40.3,18.5,61.5,24.3
		c-0.6,2.3-1,3.9-1.5,6.1c11.3,2.1,22.3,4.5,33.4,6.3c16.9,2.7,33.9,5.1,50.9,7.5c1.2,0.2,2.7-0.8,3.8-1.7c2.9-2.3,5.6-4.7,8.4-7.1
		c0.3,0.4,0.5,0.7,0.8,1.1c-0.8,1.6-1.7,3.2-2.4,4.9c-3,7.5-1,14.3,5.4,18.3c4.8,3,9.8,2.4,14.8,0.5c2.6-1,5.2-2.1,8.5-3.4
		c-0.6,1.8-0.7,2.8-1.2,3.5c-2.7,3.8-1.1,6,2.1,8.4c8,5.9,16.7,9.6,26.4,10.3c8.2,0.6,15.9-0.8,22.8-6.6
		c-10-10.8-22.8-12.7-36.8-14.6c11.3-4.5,21.2-5.4,30.9,0.1c5,2.8,9.9,6,14.7,9.2c6.5,4.4,15,0.4,15.8-7.6c0.5-5.6-1.1-10.2-5-14.1
		c-1-1-1.8-3.1-1.6-4.5c1.2-8,1.6-15.9-3.4-23c8.1,4.2,13.2,10.8,14.7,19.6c7.4-2.6,14.3-5.5,21.5-7.4c8.3-2.2,17-3.4,25.4-5.4
		c7.9-1.9,15.6-4.4,23.9-6.8c-2-3.2-3.4-5.3-4.9-7.7c14.7-8.5,28.8-17.1,39.9-30.3c-2.6-1.9-5-3.6-6.8-4.9
		c7.4-10.6,14.6-20.9,22.5-32.4c-12.7-9.4-24.5-18.1-36.3-26.8c1.1-1.5,2.3-3.3,4-5.7C472.8,323.4,462.7,319.2,452,314.8z
		 M412.4,461.3c-0.4-0.4-0.9-0.7-1.3-1.1c-1.5,1.5-4.5,3.2-4.4,4.6c1,13.1,3,25.9,9.5,37.5c0.8,1.5,3.7,3.2,5,2.7
		c2.8-1,1.4-3.5,0.6-5.8c-2.5-6.9-4.9-13.7-6.7-20.8C413.6,472.9,413.2,467,412.4,461.3z M258.2,470.4c-2.3,11.3-4.5,22.1-6.5,33
		c-0.2,1,1.4,3.3,2.5,3.5c1,0.2,3.1-1.1,3.6-2.3c4-10.6,5.3-21.8,5.7-33.4C261.3,470.9,259.5,470.6,258.2,470.4z M275.6,475.2
		c-2.1,11-4.5,22.3-6.4,33.7c-0.2,1.4,1.4,3.2,2.2,4.7c1.3-1.1,3.5-1.8,3.9-3.2c1.7-5.6,2.6-11.3,4.1-16.9
		C281.4,486.3,280.4,480,275.6,475.2z M242.2,468.4c-2.8,9.6-5.3,18.5-8,27.3c-0.8,2.5-1,5,1.7,5.6c1.2,0.3,3.5-1.5,4.3-3
		c1.5-2.7,2.4-5.9,3.4-8.9c2.2-6.6,4-13.4,3-20.6C244.7,468.6,242.9,468.4,242.2,468.4z M292.2,489.9c-1.6,8.4-3.3,16.2-4.6,24.1
		c-0.2,1.4,0.8,3.5,1.9,4.3c0.7,0.5,3.4-0.6,3.8-1.6c3.2-8.6,5.7-17.3,3.5-26.8C294.9,489.9,293.1,489.9,292.2,489.9z M309.5,495.4
		c-0.9,7.5-2,14.7-2.5,22c-0.1,1.5,1.8,3.1,2.8,4.7c1.2-1.3,3.1-2.3,3.4-3.8c0.9-4.5,0.8-9.2,1.8-13.6
		C316.3,499.4,313.8,497.3,309.5,495.4z M397.5,485.8c-1.3,3.5-3.6,6.6-3.1,8.9c1.2,5.3,3.7,10.3,6,15.2c0.6,1.1,2.8,1.4,4.2,2.1
		c0.5-1.6,1.7-3.5,1.3-4.7C403.5,500.4,400.6,493.7,397.5,485.8z M377.8,499.2c2.1,6.4,3.8,12.2,6,17.7c0.4,1.1,2.7,2,4.1,1.9
		c0.7,0,2.1-2.7,1.9-3.7c-1.6-5.5-3.6-10.8-5.5-16.3C382.7,498.9,380.9,499,377.8,499.2z M367.1,502.9c-2,1.9-5.1,3.5-4.9,4.8
		c0.7,5.1,2.1,10.1,3.7,15c0.3,0.8,2.8,1.5,4,1.1c0.7-0.2,1.6-2.6,1.4-3.7C370.2,514.7,368.7,509.4,367.1,502.9z M326.6,505.1
		c-0.3,5.5-0.8,10.4-0.7,15.2c0,1.3,1.9,2.5,3,3.7c1.1-1.1,3-2.1,3.2-3.4c0.6-4.3,0.6-8.8,0.8-13.4C331,506.6,329.2,506,326.6,505.1
		z M350.4,509.1c-2.1,0-4,0-6.3,0c0.6,4.8,0.8,9.2,1.7,13.5c0.3,1.4,2.5,2.3,3.8,3.4c0.8-1.5,2.4-3.1,2.4-4.6
		C351.8,517.3,351,513.3,350.4,509.1z"/>
	<path display="inline" fill="#FFFFFF" d="M118.2,278.9c8.8-1.8,17.1-0.8,25.5,1.9c10.3,3.3,20.7,6.6,31.3,8.6
		c11.2,2.2,22.2,0.3,33.2-5.7c0.9,1.5,1.8,3.3,2.4,4.3c9.7-4.1,18.5-7.7,27.4-11.5c1.2,2.5,2,4.1,2.7,5.3c6.9-2,13.6-4.3,20.5-5.9
		c1.8-0.4,4.7,0.5,6.1,1.9c15.4,14.9,24.4,33.9,30.5,54.6c2.7,9.1,4.1,18.5,6.3,27.8c1.1,4.4-0.8,5.8-4.4,6.3
		c-8.1,1.1-14.5-2.2-20.2-7.9c-8.3-8.2-16.3-16.9-25.1-24.4c-19.8-16.7-42.4-25.2-68-25.5c-17.7-0.1-34.8-4.3-50.7-13.1
		C127.5,291.3,120.9,285,118.2,278.9z"/>
	<path display="inline" fill="#FFFFFF" d="M309.8,274c7.4,2.4,14.7,4.7,22.2,7.1c0.2-1.4,0.4-3,0.8-5.8c9.8,3.9,19.2,7.6,28.8,11.4
		c0.1-0.8,0.4-1.9,0.6-3.4c1,0.2,2,0.3,2.9,0.5c9.8,2.5,19.7,4.1,29.5,1.5c7-1.9,13.6-5.5,20.6-7.7c8.6-2.8,17.4-5.1,26.2-7.3
		c2.2-0.6,4.6-0.3,7.7-0.4c-2.8,8-6.4,14.9-12.5,19.5c-6.3,4.8-13.2,9.1-20.3,12.5c-12.6,6-25,12.3-32.9,25
		c-4.6,7.4-8.2,15.6-12.7,23.1c-2.5,4.2-5.8,8.1-9.2,11.6c-1.9,1.9-4.8,3-7.4,3.6c-4.9,1-6.1-0.1-6.8-5c-4.5-31.6-15.5-60-36.9-83.4
		c-0.5-0.5-0.9-1.2-1.3-1.8C309.3,274.7,309.5,274.4,309.8,274z"/>
	<path display="inline" fill="#FFFFFF" d="M154,410.8c1.2-2.4,2.4-4.8,3.7-7.4c-13-7.1-24.9-15.4-34-27.7
		c5.2-5.8,10.3-11.4,15.7-17.3c-2.5-2-4.6-3.8-7.3-5.9c15.2-13.1,31.7-23.1,49.4-32.2c-2.7,6.2-5.7,11.7-7.5,17.5
		c-6.9,22.7-0.5,42.1,14.7,58.8c17,18.6,38.3,30,60.8,39.5c4.9,2.1,9.8,3.9,14.9,5.9C247,446.3,169.3,424.5,154,410.8z"/>
	<path display="inline" fill="#FFFFFF" d="M363.9,398.5c-0.8,1.6-1.3,2.6-2.2,4.5c6.2,1.9,11.9,3.7,17.9,5.5
		c-0.2,0.5-0.6,1.7-1.1,3.1c7.1,0.4,13.9,0.7,21.5,1.1c-5,6.7-10.5,10.8-17.6,12c-8.1,1.4-14.9,4.3-19.3,12.5
		c-4.5,8.3-12.2,10.4-20.9,8.8c-8.8-1.6-16.9-4.9-24-10.6c-6.3-5.1-13.5-6.9-21.2-7.8c-7.8-0.9-15.7-2-23.2-4.1
		c-5.8-1.6-10.6-5.5-13.9-10.8c7.3-0.6,14.5-1.1,22.5-1.7c-1.1-2-1.8-3.1-2.3-4c7.9-1.5,15.6-3,24.2-4.7c-1.7-1.9-2.7-3-3.5-4
		C321.8,384.1,342.6,387.3,363.9,398.5z M351.6,422.4c2.1,3.8,3.8,6.9,5.4,9.9c3.4-3.7,3.8-7.1,1-10.9c-5.4-7.4-21.4-9.9-28.6-4.5
		c-4.8,3.6-5.7,10-2.1,13.9c3.4-8.1,4-8.3,10.5-3C342.9,432,348.5,430.2,351.6,422.4z"/>
	<path display="inline" fill="#FFFFFF" d="M463.8,331.1c-2.8,3.1-4.5,5-6.1,6.8c13.3,8.5,26.3,16.9,40.5,26
		c-8,9.5-15.2,18-22.6,26.9c1.7,1.5,3.9,3.4,6.1,5.3c-21.1,20.9-47.7,27.8-73.1,37.4c7.1-5.9,14.6-11.3,21.2-17.7
		c10-9.6,17.6-21,21-35c5-21-2.2-38-16.4-52.4c-3.5-3.6-7.6-6.6-11.4-9.9c0.2-0.4,0.3-0.8,0.5-1.2
		C436.6,321.7,449.7,326.2,463.8,331.1z"/>
	<path display="inline" fill="#FFFFFF" d="M213.2,362.8c0.7-4.5,1-9.2,2.3-13.5c3.5-11.9,12.7-16.5,25.6-13.4
		c9.8,2.3,17.2,8.7,24.2,15.8c6.2,6.3,12.6,12.4,19.6,17.6c9.4,7,19.1,5.9,28-2.3c-0.8,7.9-2.3,15.1-8.7,19.4
		c-6.2,4.2-13.2,4.3-19-0.2c-7.9-6-14.9-13.3-22.5-19.7c-4.4-3.7-8.8-7.8-13.9-10.3C234.1,348.8,225,350.9,213.2,362.8z"/>
	<path display="inline" fill="#FFFFFF" d="M340.9,363.1c2.9,2.4,5.2,5,8,6.3c6,2.6,11.6,1.1,16-3.8c4.9-5.3,9.1-11.4,14.3-16.2
		c4.8-4.4,10.2-8.4,15.9-11.1c10.4-4.9,19.5,1.4,20.4,13.4c0.2,2.5-0.2,5.1-0.4,8.4c-2.2-2.6-3.6-4.9-5.5-6.6
		c-5.2-4.8-10.7-4.8-15.6,0.4c-3.9,4.1-7.3,8.8-11.1,13c-4,4.5-8.1,8.8-12.3,13c-11.8,11.8-25.8,1.6-28.7-9.9
		C341.4,367.8,341.3,365.6,340.9,363.1z"/>
	<path display="inline" fill="#FFFFFF" d="M330.5,450.6c12.9,1.3,24.9,3.7,35.8,10.8c2.1,1.4,4.3,3,5.5,5.1c1,1.7,0.5,4.3,0.6,6.6
		c-2,0-4.5,0.8-5.9-0.2c-13.4-9.2-27.8-10.4-42.9-7.1c-2.3,0.5-4.4,1.6-6.7,2.2c-2.1,0.5-4.3,1-6.4,0.9c-3.4-0.2-5.9-2.1-6.6-5.6
		c-0.8-3.9,1.4-6.5,4.6-7.3C315.7,453.8,323.2,452.3,330.5,450.6z"/>
	<path display="inline" fill="#FFFFFF" d="M253.3,367.1c0.8,4,1.5,7.7,2.5,12.5c2.2-3.9,3.8-6.9,6.5-11.6c3.1,4,6.3,7.1,8.3,10.9
		c1.1,2.2,1,5.7,0.3,8.3c-1.9,6.8-8.3,10.4-15.6,9.4c-7.2-1-12.7-7.5-12.9-15.2C242.1,374.2,246.3,368.8,253.3,367.1z"/>
	<path display="inline" fill="#FFFFFF" d="M394.1,367.4c8.1,3.3,11.7,9.6,10.4,17.8c-1,6.5-6.3,11.1-13,11.5
		c-7.4,0.4-13.8-4.5-15.8-11.9c-0.8-3-0.6-5.6,1.9-7.9c2.8-2.4,5.3-5.2,8.1-8c1.6,3.1,3.3,6.3,5.5,10.6
		C392.3,374.9,393.1,371.2,394.1,367.4z"/>
	<path display="inline" fill="#FFFFFF" d="M351.6,422.4c-3.1,7.8-8.7,9.6-13.7,5.5c-6.5-5.3-7.1-5.1-10.5,3
		c-3.7-3.9-2.7-10.3,2.1-13.9c7.2-5.4,23.2-2.9,28.6,4.5c2.8,3.7,2.4,7.2-1,10.9C355.4,429.3,353.7,426.2,351.6,422.4z"/>
</g>
<g display="none">
	<path display="inline" fill="#FFFFFF" d="M182.5,477.4c0.7-2.9,1.1-4.9,1.7-7.4c-23-7.1-45.2-16.1-66.4-29.5c2.2-3,4.1-5.7,6.4-9
		c-15.2-11.9-30.5-23.4-42.8-40.6c6.3-5.3,12.3-10.3,18.6-15.6c-3.1-4.3-6.1-8.5-9.5-13.2c6.8-6.9,13.6-13.8,20.7-21.1
		c-2.2-3.4-4.4-6.7-6.5-10.1c-7.4-11.8-13.6-24.3-15.2-39.2c-2-19.4,4.6-28.7,21.2-30.3c9.3-0.9,17.7,2.7,26.3,6
		c16.4,6.2,33,11,50.3,8.2c8.8-1.4,17.4-5,26.1-7.8c33.4-11.1,67.5-13.1,102-10.4c19.2,1.5,37.6,7.2,56.2,12.9
		c15.8,4.9,31.1,3,46-6.1c13.8-8.5,28.7-12.6,44.5-9.7c11.1,2,15.8,7.8,14,20.9c-1.5,10.8-5.5,21.2-8.5,31.7
		c-0.8,2.9-2.2,5.7-3.3,8.6c11.4,5.3,22.5,10.5,33.9,15.8c-1.9,3.1-3.3,5.3-4.3,6.9c12.8,10.5,25.4,21,39.2,32.4
		c-8.5,13.8-16.3,26.3-24.3,39.2c2,1.6,4.6,3.8,7.3,6.1c-12.1,16-27.4,26.4-43.1,36.6c1.7,3.1,3.1,5.6,4.7,8.5
		c-11.4,6.4-23.4,8.8-35.3,11.4c-13.7,3-27.4,5.6-39.6,13.9c-2.1-4.9-3.5-10.1-6.2-14.3c-2.7-4.2-6.5-7.4-10.4-10.6
		c5.4,9.2,4.8,19,3.3,29.1c-0.2,1.4,0.8,3.4,1.7,4.4c3.6,3.9,5.6,8.6,5.7,14.2c0.1,5-0.3,10.1-4.8,12.4c-4.5,2.3-8.9,2.7-13.4-1
		c-9.8-8-19.7-15.9-32.5-14.8c-4.9,0.5-9.8,2.1-14.6,3.8c13.9,2.8,27.7,5.1,38.1,17.7c-11.2,15.2-43.4,9.3-56.9-8.8
		c1-2.8,2-5.6,3.5-9.8c-4.1,1.9-7.1,3.4-10.2,4.7c-8.2,3.3-15.3,1.4-19.8-5.5c-4.8-7.3-3.2-14.7,0.5-21.8c0.2-0.5,0.4-1,0.7-1.5
		c-0.3-0.4-0.6-0.9-0.9-1.3c-2.9,2.8-5.8,5.6-8.8,8.3c-1.2,1.1-2.8,2.5-4.1,2.3c-18.3-2.9-36.6-5.8-54.9-9.1
		C206.8,482.8,194.8,480,182.5,477.4z M103.2,272.4c3.6,7.8,10.4,15,18.7,20.2c17.3,10.8,35.9,15.8,55.2,16
		c26.1,0.2,49.5,9.4,70,27.9c10.9,9.8,20.5,21.6,30.5,32.6c6.6,7.2,14,11.4,23.2,9c2.8-0.7,4-2.2,3.3-5.8c-2.3-11.6-4-23.4-6.9-34.7
		c-6.5-25.2-16.3-48.4-33.1-66.6c-1.5-1.6-4.3-2.6-6.2-2.1c-7.5,2-14.8,4.7-22.4,7.2c-0.6-1.3-1.4-3.3-2.7-6.5
		c-9.7,4.5-19.3,9-29.3,13.7c-0.9-1.3-2-3.1-3.2-4.8c-12.2,7.2-24.6,9.4-37.4,6.4c-10.8-2.6-21.4-6.2-31.9-10.1
		C122.1,271.4,113.1,270.2,103.2,272.4z M308.8,265.9c5.8,8.5,10.9,15.3,15.3,22.7c14.7,24.4,23,51.9,26.7,81.4
		c0.8,6.7,2.3,8.8,7.6,6.6c4.7-1.9,9.6-5.4,12.6-9.9c5.1-7.7,9.4-16.3,13.1-25.1c6.8-15.9,16.9-27.6,30.5-35.3
		c7.7-4.3,15.6-8.1,23.1-12.9c10.9-6.9,18.6-17.3,23-31.5c-3,0-5.5-0.3-8,0c-14.4,1.9-27.6,8.9-41.1,14.5
		c-6.9,2.9-14.3,4.6-21.6,4.8c-7.6,0.3-15.2-1.9-23-3c-0.2,1.2-0.5,2.7-0.7,3.5c-10.4-4.6-20.5-9.1-31-13.8c-0.4,3.3-0.6,5.2-0.9,7
		C326.2,272.1,318.1,269.2,308.8,265.9z M261,471c0-0.5,0.1-1,0.1-1.5c-5.3-2.3-10.7-4.5-15.9-7C221,451,198,437.1,179.6,414.7
		c-20.3-24.7-24.3-55.2-11.2-84c1.1-2.5,2.4-4.9,3.9-7.8c-12.4,4.6-47.4,30.3-53.3,39c2.3,2.1,4.7,4.2,7.3,6.7
		c-5.8,7.2-11.3,14-17,21c9.9,14.9,22.7,24.9,36.7,33.5c-1.4,3.2-2.7,6.1-4.5,10C179.2,456.5,219.6,466,261,471z M368.5,417.7
		c-18.9-15.7-43.4-15.9-68.8-0.2c1.6,1.1,3,2,4.3,2.9c-0.1,0.6-0.3,1.1-0.4,1.7c-8.4,1.8-16.8,3.7-25.3,5.6c0.5,1.2,1.1,2.5,2.2,4.9
		c-8.6,0.7-16.3,1.3-24.2,2c3.7,6.5,8.9,11.3,15.2,13.1c8.2,2.4,16.7,3.8,25.1,4.9c8.2,1,15.8,3.2,22.5,9.2c7.7,7,16.4,11,25.9,13
		c9.4,2,17.8-0.3,22.7-10.4c4.9-10,12.2-13.8,21.2-15.4c7.6-1.4,13.5-6.4,18.8-14.5c-8.2-0.5-15.5-0.9-23.1-1.4
		c0.5-1.8,0.9-3.3,1-3.8c-6.5-2.3-12.7-4.5-19.4-6.8C367.4,420.1,368,418.9,368.5,417.7z M433.1,318.6c-0.2,0.5-0.4,1-0.5,1.5
		c4.1,4,8.5,7.6,12.3,11.9c15.4,17.4,23.2,38.1,17.7,63.5c-3.6,16.9-11.8,30.8-22.7,42.4c-7.2,7.7-15.2,14.3-22.9,21.4
		c27.4-11.6,56.1-19.9,78.9-45.2c-2.3-2.3-4.7-4.6-6.6-6.4c8-10.7,15.8-21,24.4-32.5c-15.3-11-29.4-21.1-43.7-31.4
		c1.7-2.3,3.6-4.7,6.3-8.3C461.4,329.6,447.3,324.1,433.1,318.6z M205.9,374c0.5,0.2,0.9,0.3,1.4,0.5c7.5-12.8,17.7-15.7,29.9-11.7
		c8.1,2.7,15.1,7.4,21.1,14.2c3.5,4,6.7,8.6,10.5,12.1c5.8,5.4,11.5,11.4,18.1,15c13.6,7.3,28.3-6.9,26.1-24.5
		c-8.6,11.2-21.9,9.1-29.7,2.1c-7.4-6.6-14.4-13.9-21.1-21.4c-7.6-8.6-15.6-16.2-26.2-19c-13.5-3.5-22.8,1.3-26.9,15
		C207.3,361.9,206.9,368.1,205.9,374z M424.2,370.7c0.2-4.1,0.6-7.3,0.4-10.3c-1-14.4-10.9-22.1-22.1-16.1
		c-6.2,3.3-12,8.1-17.2,13.4c-5.7,5.8-10.1,13.3-15.5,19.6c-7.3,8.5-16.1,8.1-23.3-0.7c-0.6-0.8-0.9-1.9-1.4-2.9
		c-0.4,0.4-0.7,0.8-1.1,1.1c0.7,10,3.7,18.4,11.7,23.5c7.8,5,14.8,2.8,20.7-4.2c8-9.5,15.5-19.5,23.3-29.2
		c6.5-8.2,12.9-8.8,19.3-1.6C420.6,365.1,421.9,367.5,424.2,370.7z M333.1,481.4c-0.1-0.5-0.2-1-0.3-1.5c-8.2,2.3-16.5,4.3-24.6,6.9
		c-3.1,1-5.4,4.5-4.1,8.2c1,2.8,3.6,5.8,6,6.6c2.8,0.9,6.1-0.4,9.2-1.1c6.5-1.3,12.9-3.8,19.5-4.1c11.7-0.5,22.9,2.2,32.8,10.3
		c1.5,1.2,4.5,0.1,6.8,0c-0.2-2.6,0.3-5.7-0.8-7.5c-1.7-2.8-4.2-5-6.8-6.7C359.2,484.5,346.4,481.7,333.1,481.4z M249.3,379.1
		c-7.7,1.9-12.3,8.8-11.8,17.7c0.4,9.3,6.5,16.9,14.3,17.9c8.1,1.1,15.2-3.8,16.8-12.4c0.6-3,0.5-7.1-0.8-9.4
		c-2.5-4.1-6.2-7.3-9.6-11.1c-2,4-3.8,7.6-6.1,12.4C251,388.3,250.2,383.7,249.3,379.1z M392,380.6c-2.5,3.1-4.5,5.6-6.6,8.1
		c-5.5,6.5-5.6,12.2-0.5,19.2c4.6,6.4,12.4,8.7,18.9,5.5c6.3-3,9.6-9.9,8.9-18.4c-0.6-7.6-5.4-13.8-11.6-15.3
		c-0.9,4.4-1.7,8.8-2.8,14.4C395.9,389.1,394.1,385.2,392,380.6z"/>
	<path display="inline" fill="#FFFFFF" d="M361.3,458c-1.8-3.8-3.5-7.3-4.6-9.8c-3.6,2.7-6.2,6.2-9.1,6.4c-2.9,0.2-6.4-2.3-8.9-4.6
		c-3.4-3-4.9-3.3-7.2,0.8c-0.9,1.7-1.5,3.6-2.3,5.4c-3.9-5-2.8-12.6,2.3-16.9c7.8-6.5,25.1-3.4,30.9,5.5
		C365.4,449.5,365,453.7,361.3,458z"/>
</g>
<path fill="#FFFFFF" d="M293.8,313l-26.5,64.3c-0.9,2.2-2.9,3.7-5.3,3.9l-135.3,11.9c-3.3,0.3-5.8,3.1-5.8,6.4l2.8,106.2
	c0.1,2.9,2.1,5.4,5,6l159.3,33.5c3.9,0.8,7.9,1.2,11.8,1.2l0-31.5V314.2C299.9,305.4,297.1,304.9,293.8,313z M275.3,511.1l-59.8-9.6
	v-31.4h59.8V511.1z M249.1,365.9L89.6,382c-4.9,0.5-8.4-4.5-6.3-8.9l42.5-90.8c0.9-1.8,2.6-3.2,4.6-3.5l175.3-32.2l-51.3,115.6
	C253.3,364.2,251.4,365.7,249.1,365.9z M485.6,393.1l-135.3-11.9c-2.3-0.2-4.4-1.7-5.3-3.9L318.6,313c-3.3-8.1-6.1-7.6-6.1,1.2V515
	l0,31.5c4,0,7.9-0.4,11.8-1.2l159.3-33.5c2.9-0.6,4.9-3.1,5-6l2.8-106.2C491.5,396.2,489,393.3,485.6,393.1z M522.7,382l-159.5-16.1
	c-2.3-0.2-4.2-1.6-5.1-3.7l-51.3-115.6L482,278.7c2,0.4,3.7,1.7,4.6,3.5l42.5,90.8C531.2,377.5,527.6,382.5,522.7,382z"/>
</svg>
